<?xml version="1.0" encoding="utf-8"?>
<!-- Generator: Adobe Illustrator 27.0.0, SVG Export Plug-In . SVG Version: 6.00 Build 0)  -->
<svg version="1.1" xmlns="http://www.w3.org/2000/svg" xmlns:xlink="http://www.w3.org/1999/xlink" x="0px" y="0px"
	 viewBox="0 0 750 500" style="enable-background:new 0 0 750 500;" xml:space="preserve">
<style type="text/css">
	.st0{fill:#1F1E69;}
	.st1{opacity:0.8;fill:url(#SVGID_1_);}
	.st2{opacity:0.1;fill:#42E8E0;}
	.st3{fill:#42E8E0;}
	.st4{opacity:0.11;}
	.st5{fill:url(#SVGID_00000122000808326241076370000002935129953920431791_);}
	.st6{fill:url(#SVGID_00000154387612610088610190000017174954253477060249_);}
	.st7{fill:url(#SVGID_00000075125183885504243740000012249910270985719961_);}
	.st8{fill:url(#SVGID_00000046310825018778045760000016447011156332908679_);}
	.st9{opacity:0.5;fill:url(#SVGID_00000127752435333717699000000007331120137909514934_);}
	.st10{fill:url(#SVGID_00000088116295067752590840000016117811544761722549_);}
	.st11{fill:url(#SVGID_00000067923981540811167290000014378975428371397303_);}
	.st12{opacity:0.7;fill:#42E8E0;}
	.st13{opacity:0.3;}
	.st14{fill:url(#SVGID_00000178186851250535318930000001704119222354938754_);}
	.st15{opacity:0.3;fill:#0F054C;}
	.st16{fill:url(#SVGID_00000025442035422416286130000009810106244555009945_);}
	.st17{fill:#0F054C;}
	.st18{opacity:0.4;fill:#42E8E0;}
	.st19{fill:url(#SVGID_00000173841455489238023170000013999875191172015795_);}
	.st20{fill:url(#SVGID_00000144324933122075578090000008675096802338050491_);}
	.st21{fill:#FFFFFF;}
	.st22{opacity:0.3;fill:#7945DC;}
	.st23{opacity:0.2;fill:#7945DC;}
	.st24{opacity:0.6;fill:none;stroke:#7945DC;stroke-miterlimit:10;}
	.st25{fill:none;stroke:#70DBC8;stroke-miterlimit:10;}
	.st26{opacity:0.3;fill:none;stroke:#7945DC;stroke-miterlimit:10;}
	.st27{opacity:0.6;}
	.st28{fill:#7945DC;}
	.st29{fill:#70DBC8;}
	.st30{fill:#9EF3D2;}
	.st31{fill:#A28FFF;}
	.st32{fill:#9071F4;}
	.st33{fill:#582EBF;}
	.st34{fill:#1E0049;}
	.st35{fill:#193BA5;}
	.st36{fill:#347FF4;}
	.st37{fill:#3467DB;}
	.st38{fill:#2343BC;}
	.st39{fill:#1E308B;}
	.st40{clip-path:url(#SVGID_00000168831066961714132880000016004868515413843862_);fill:#193BA5;}
	.st41{fill:#5BCFC3;}
</style>
<g id="BACKGROUND">
	<rect x="0.14" y="-1.29" class="st0" width="749.86" height="501.29"/>
	
		<radialGradient id="SVGID_1_" cx="-3681.446" cy="3.9717" r="439.3419" gradientTransform="matrix(-1.2498 0 0 1.3774 -3834.7148 72.4736)" gradientUnits="userSpaceOnUse">
		<stop  offset="0" style="stop-color:#FF2C9C"/>
		<stop  offset="0.0301" style="stop-color:#F62F9F"/>
		<stop  offset="0.2023" style="stop-color:#C63EB0"/>
		<stop  offset="0.3737" style="stop-color:#9E4BBE"/>
		<stop  offset="0.5413" style="stop-color:#7F54C9"/>
		<stop  offset="0.7039" style="stop-color:#695BD1"/>
		<stop  offset="0.8594" style="stop-color:#5C60D5"/>
		<stop  offset="1" style="stop-color:#5761D7"/>
	</radialGradient>
	<path class="st1" d="M729.21,3.74c-1.55-0.99-4.06-0.99-5.61,0c-1.16,0.74-1.45,1.83-0.87,2.74l-86.89,55.29l0,69.79l-21.17,13.47
		l0,75.92l-72.51,46.14l-11.3-7.19l55.91-35.58l0-41.62l-0.22-0.14l-63.57-40.45V128l35.95-22.88c1.55,0.71,3.73,0.64,5.12-0.25
		c1.55-0.99,1.55-2.59,0-3.57c-1.55-0.99-4.06-0.99-5.61,0c-1.4,0.89-1.52,2.27-0.4,3.26l-35.95,22.88v15.24l0.22,0.14l63.57,40.45
		l0,40.49l-42.25,26.88l0-17.34l19.37-12.32c1.55,0.71,3.73,0.63,5.12-0.25c1.55-0.99,1.55-2.59,0-3.57c-1.55-0.99-4.06-0.99-5.61,0
		c-1.4,0.89-1.52,2.27-0.4,3.26l-19.37,12.32l0,18.47l-12.78,8.13l-15.11-9.61l0-30.19l28.5-18.14l0-20.87l-0.22-0.14l-60-38.18
		c1.12-0.99,1-2.37-0.4-3.26c-1.55-0.99-4.06-0.99-5.61,0c-1.55,0.99-1.55,2.59,0,3.57c1.4,0.89,3.57,0.97,5.12,0.25l60.22,38.32
		l0,19.74l-27.61,17.57l0-20.81l-0.22-0.14l-36.71-23.36c1.12-0.99,1-2.37-0.4-3.26c-1.55-0.99-4.06-0.99-5.61,0
		c-1.55,0.99-1.55,2.59,0,3.57c1.4,0.89,3.57,0.97,5.12,0.25l36.93,23.5l0,51.01l-10.61-6.75l-17.49,11.13l-15.84-10.08l0-24.49
		l-0.22-0.14l-41.87-26.64l0-23.09c0.86-0.06,1.7-0.29,2.36-0.71c1.55-0.99,1.55-2.59,0-3.57c-1.55-0.99-4.06-0.99-5.61,0
		c-1.55,0.99-1.55,2.59,0,3.57c0.66,0.42,1.5,0.65,2.36,0.71l0,23.65l0.22,0.14l41.87,26.64l0,23.36l-68.14-43.36l0-45.96
		l36.96-23.52l33.92,0l0.1-0.07l58.2-37.03c1.55,0.71,3.73,0.63,5.12-0.25c1.55-0.99,1.55-2.59,0-3.57c-1.55-0.99-4.06-0.99-5.61,0
		c-1.4,0.89-1.52,2.27-0.4,3.26l-57.65,36.68l-32.14,0l106.91-68.03c1.55,0.71,3.73,0.63,5.12-0.25c1.55-0.99,1.55-2.59,0-3.57
		c-1.55-0.99-4.06-0.99-5.61,0c-1.4,0.89-1.52,2.27-0.4,3.26L400.12,153l0,47.09l0.22,0.14l84.65,53.86l-17.04,10.84l-144.52-91.96
		l0-54.87l-0.22-0.14l-49.15-31.27c1.12-0.99,1-2.37-0.4-3.26c-1.55-0.99-4.06-0.99-5.61,0c-1.55,0.99-1.55,2.59,0,3.57
		c1.4,0.89,3.57,0.97,5.12,0.25l49.37,31.42l0,54.87l0.22,0.14l144.3,91.82l-16.22,10.32l-142.92-90.95l-85.23,0l-53.27-33.9
		l0-52.09c0.56-0.12,1.09-0.31,1.54-0.6c1.55-0.99,1.55-2.59,0-3.57c-1.55-0.99-4.06-0.99-5.61,0c-1.55,0.99-1.55,2.59,0,3.57
		c0.87,0.55,2.05,0.79,3.18,0.72l0,52.54l0.22,0.14l53.7,34.17l85.23,0l120.65,76.77l-24.27,0l-41.18-26.2h-31.72l-0.1,0.07
		l-43.99,27.99c-1.55-0.71-3.73-0.63-5.12,0.25c-1.55,0.99-1.55,2.59,0,3.57c1.55,0.99,4.06,0.99,5.61,0
		c1.4-0.89,1.52-2.27,0.4-3.26l43.44-27.64h31.24l41.18,26.2l26.04,0l20.08,12.78l-43.29,27.55l-12.31-7.83v-20.56l-31.27-19.9
		c1.12-0.99,1-2.37-0.4-3.26c-1.55-0.99-4.06-0.99-5.61,0c-1.55,0.99-1.55,2.59,0,3.57c1.4,0.89,3.57,0.97,5.12,0.25l31.27,19.9
		v19.43l-33.35-21.22h-15.79l-0.1,0.07l-18.83,11.98c-1.55-0.72-3.73-0.64-5.12,0.25c-1.55,0.99-1.55,2.59,0,3.57
		c1.55,0.99,4.06,0.99,5.61,0c1.4-0.89,1.52-2.27,0.4-3.26l18.28-11.63h15.32l45.9,29.21l-8.34,5.31l26.61,16.93l-12.46,7.93h-18.84
		l-13.48-8.58c1.07-0.98,0.93-2.34-0.45-3.22c-1.55-0.99-4.06-0.99-5.61,0c-1.55,0.99-1.55,2.59,0,3.57
		c1.42,0.9,3.63,0.97,5.18,0.22l14.12,8.99h17.54l-31.78,20.22l-74.76-47.58l-53.8,0l-0.1,0.07l-30.29,19.27
		c-1.55-0.71-3.73-0.64-5.12,0.25c-1.55,0.99-1.55,2.59,0,3.57c1.55,0.99,4.06,0.99,5.61,0c1.4-0.89,1.52-2.27,0.4-3.26l29.74-18.93
		l53.32,0l57.66,36.69h-24.68l-24.13-15.35c1.12-0.99,1-2.37-0.4-3.26c-1.55-0.99-4.06-0.99-5.61,0c-1.55,0.99-1.55,2.59,0,3.57
		c1.4,0.89,3.57,0.97,5.12,0.25l24.78,15.76h26.46l14.91,9.49l-37.96,24.15l-121.31,0l-94.24-59.97c1.12-0.99,1-2.37-0.4-3.26
		c-1.55-0.99-4.06-0.99-5.61,0c-1.55,0.99-1.55,2.59,0,3.57c1.4,0.89,3.57,0.97,5.12,0.25l94.89,60.38l120.01,0l-15.06,9.58l-89.8,0
		l-0.1,0.07l-44.28,28.18c-1.55-0.71-3.73-0.64-5.12,0.25c-1.55,0.99-1.55,2.59,0,3.57c1.55,0.99,4.06,0.99,5.61,0
		c1.4-0.89,1.52-2.27,0.4-3.26l43.74-27.83l89.8,0l0.1-0.07l101.76-64.76l11.3,7.19l-106.99,68.08H251l-0.1,0.07l-94.51,60.14
		l-130.93,0L0.14,446.68v1.13l25.07,15.95l131.41,0l0.1-0.07l59.31-37.74l0,22.34l-39.09,24.88c-1.55-0.71-3.73-0.64-5.12,0.25
		c-1.55,0.99-1.55,2.59,0,3.57c1.55,0.99,4.06,0.99,5.61,0c1.4-0.89,1.52-2.27,0.4-3.26l39.09-24.88l0-23.34h-0.2l34.52-21.96h78.24
		l0.1-0.07l107.54-68.43l12.83,8.17L241.29,476.01l0,23.99h0.89l0-23.43L450.84,343.8l15.86,10.09l-107.63,68.49l0,12.24
		l-19.08,12.14v28.16l-37.01,23.55c-1.55-0.71-3.73-0.63-5.12,0.25c-0.57,0.36-0.92,0.8-1.07,1.27h7.74
		c-0.11-0.34-0.32-0.67-0.65-0.96l37.01-23.55v-28.16l18.19-11.58l0,45.1l10.74,6.83L350.45,500h1.78l18.46-11.75L389.15,500h1.78
		l-30.98-19.71l0-57.34l107.63-68.49l14.44,9.19l-76.17,48.47c-1.55-0.71-3.73-0.64-5.12,0.25c-1.55,0.99-1.55,2.59,0,3.57
		c1.55,0.99,4.06,0.99,5.61,0c1.4-0.89,1.52-2.27,0.4-3.26l76.17-48.47l13.94,8.87l-91.11,57.98h-24.76
		c-0.15-0.47-0.51-0.93-1.09-1.3c-1.55-0.99-4.06-0.99-5.61,0s-1.55,2.59,0,3.57c1.55,0.99,4.06,0.99,5.61,0
		c0.58-0.37,0.94-0.82,1.09-1.3h25l0.1-0.07l91.66-58.33l5.63,3.58l4.33-2.75l21.83,13.89l0,19.33l-18.04,11.48v-0.05h-28.3
		l-0.1,0.07l-31.06,19.76c-1.55-0.71-3.73-0.63-5.12,0.25c-1.55,0.99-1.55,2.59,0,3.57c1.55,0.99,4.06,0.99,5.61,0
		c1.4-0.89,1.52-2.27,0.4-3.26l30.51-19.41h26.61L457,453.83c-1.56-0.77-3.8-0.71-5.23,0.2c-1.55,0.99-1.55,2.59,0,3.57
		c1.55,0.99,4.06,0.99,5.61,0c1.36-0.87,1.52-2.21,0.49-3.19l66.14-42.08l0,9.3l-39.35,25.04v17.68l-32.04,20.39
		c-1.55-0.72-3.73-0.64-5.12,0.25c-1.55,0.99-1.55,2.59,0,3.57c1.55,0.99,4.06,0.99,5.61,0c1.4-0.89,1.52-2.27,0.4-3.26l32.04-20.39
		v-17.68l39.35-25.04l0-10.43l5.51-3.51l0-20.46l-21.83-13.89l14.35-9.13l44.92,28.58l0,32.5l-30.5,19.41
		c-1.56-0.77-3.8-0.71-5.23,0.2c-1.55,0.99-1.55,2.59,0,3.57c1.55,0.99,4.06,0.99,5.61,0c1.36-0.87,1.52-2.21,0.49-3.19l29.63-18.86
		l0,26.25l-23.41,14.9l0,31.87h0.89l0-31.31l22.52-14.33l0,45.64h0.89l0-107.21l-44.92-28.58l16.11-10.25l58.71,37.36l0,88.98
		l28.22,17.96l0,1.75h0.89v-2.32l-28.22-17.96l0-88.98l-58.71-37.36l11.94-7.6l79.24,50.42l0,75.92L675.79,500h1.78l-44.69-28.44
		l0-75.92l-79.24-50.42l19.35-12.31l131.83,83.89l0,37.78L750,483.32v-1.13l-44.29-28.18l0-37.78l-74.15-47.19h58.64L750,407.1
		v-1.13l-59.56-37.9h-60.42l-56.14-35.72l22.49-14.31l48.26,30.71l77.49,0L750,366.49v-1.13l-6.11-3.89l6.11,0v-0.98l-7.65,0
		l-20-12.73l-77.49,0l-13.5-8.59h32.94l0.1-0.07l16.52-10.51l68.84,0l0.23,0.15v-1.12l-67.53,0l18.6-11.84
		c1.55,0.71,3.73,0.63,5.12-0.25c1.55-0.99,1.55-2.59,0-3.57c-1.55-0.99-4.06-0.99-5.61,0c-1.4,0.89-1.52,2.27-0.4,3.26
		l-36.12,22.98h-34.24l-32.57-20.72l12.03-7.66l-7.74-4.93h22.51l29.42,18.72c-1.12,0.99-1,2.37,0.4,3.26
		c1.55,0.99,4.06,0.99,5.61,0c1.55-0.99,1.55-2.59,0-3.57c-1.4-0.89-3.57-0.97-5.12-0.25l-30.07-19.14h-24.29l-16.47-10.48
		l10.13-6.44h17.96l15.79-10.05h11.79l26.62,16.94c-1.19,0.99-1.1,2.41,0.33,3.32c1.55,0.99,4.06,0.99,5.61,0
		c1.55-0.99,1.55-2.59,0-3.57c-1.37-0.87-3.49-0.97-5.04-0.3l-27.28-17.36h-12.26L611.39,286H595.2l32.38-20.6h17.48l36.44,23.19
		l68.5,0v-0.98l-68.26,0l-36.44-23.19h-17.96l-0.1,0.07l-44.59,28.37l-11.7-7.44l50.39-32.06l35.54,0l29.32,18.66l63.81,0v-0.98
		l-63.57,0l-27.78-17.68l91.35,0v-0.98l-128.9,0l-0.1,0.07l-50.93,32.41l-13.29-8.46l70.26-44.71l122.97,0v-0.98l-89.61,0
		L750,173.68v-1.13l-91.39,58.15l-30.94,0l66.62-42.39v-9.34l31.88-20.28c1.55,0.71,3.73,0.63,5.12-0.25c1.55-0.99,1.55-2.59,0-3.57
		c-1.55-0.99-4.06-0.99-5.61,0c-1.4,0.89-1.52,2.27-0.4,3.26l-17.36,11.04l0-25.6L750,116.79v-1.13L707.04,143l0,26.73l-13.63,8.67
		v9.34l-67.16,42.74l0.22,0.43l-70.59,44.92l-12.83-8.17l72.51-46.14l0-75.92L750,60.06v-1.13l-113.27,72.08l0-68.66l86.69-55.16
		c0.06,0.05,0.11,0.1,0.18,0.14c1.55,0.99,4.06,0.99,5.61,0C730.76,6.33,730.76,4.73,729.21,3.74z M607.51,309.81l-104.15,66.28
		l-104.15-66.27l104.15-66.28L607.51,309.81z"/>
	<path class="st2" d="M687.45,56.82L668.4,68.36l0,37.17L499.18,208.01l-12.86-7.79l87.29-52.87l0-9.45l15.48-9.37l0-21.74
		l30.01-18.18c1.26,0.55,3.02,0.49,4.15-0.2c1.26-0.76,1.26-2,0-2.76c-1.26-0.76-3.29-0.76-4.55,0c-1.13,0.69-1.23,1.75-0.32,2.52
		l-30.01,18.18l0,21.74l-14.75,8.94l0-34.81l-0.18-0.11l-8.53-5.17l51.17-30.99l0-34.85L652.42,9.1c1.26,0.55,3.02,0.49,4.15-0.2
		c1.26-0.76,1.26-2,0-2.76c-1.26-0.76-3.29-0.76-4.55,0c-1.13,0.69-1.23,1.75-0.32,2.52l-36.35,22.02l0,34.85l-51.17,30.99
		l-83.19-50.38l0-38.98c0.7-0.05,1.38-0.22,1.92-0.55c1.26-0.76,1.26-1.99,0-2.76c-1.26-0.76-3.29-0.76-4.55,0
		c-1.26,0.76-1.26,2,0,2.76c0.54,0.33,1.22,0.5,1.92,0.55l0,39.42l0.18,0.11l50.04,30.3l-36.47,0l-29.49-17.86
		c0.91-0.76,0.81-1.83-0.32-2.52c-1.26-0.76-3.29-0.76-4.55,0c-1.26,0.76-1.26,2,0,2.76c1.13,0.69,2.9,0.75,4.15,0.2l30.01,18.18
		l37.89,0v-0.01l41.17,24.93l0,44.26l-87.29,52.86l-11.7-7.09l61.77-37.41c1.26,0.55,3.02,0.49,4.15-0.2c1.26-0.76,1.26-2,0-2.76
		c-1.26-0.76-3.29-0.76-4.55,0c-1.13,0.69-1.23,1.75-0.32,2.52l-61.77,37.41l-11.3-6.84l73.89-44.75l20.08,0
		c0.12,0.37,0.41,0.72,0.88,1c1.26,0.76,3.29,0.76,4.55,0c1.26-0.76,1.26-2,0-2.76s-3.29-0.76-4.55,0c-0.47,0.28-0.76,0.63-0.88,1
		l-20.28,0l-0.08,0.05l-74.34,45.02l-4.56-2.76l-0.18,0.11l-3.33,2.02l-17.7-10.72l0-14.92l14.63-8.86v0.04l22.95,0l25.27-15.3
		c1.26,0.55,3.02,0.49,4.15-0.2c1.26-0.76,1.26-2,0-2.76c-1.26-0.76-3.29-0.76-4.55,0c-1.13,0.69-1.23,1.75-0.32,2.52l-24.74,14.98
		l-21.58,0l43-26.04c1.26,0.6,3.08,0.55,4.24-0.15c1.26-0.76,1.26-2,0-2.76c-1.26-0.76-3.29-0.76-4.55,0
		c-1.11,0.67-1.24,1.7-0.4,2.46l-53.63,32.48v-7.18l31.91-19.33v-13.64l25.98-15.73c1.26,0.55,3.02,0.49,4.15-0.2
		c1.26-0.76,1.26-2,0-2.76c-1.26-0.76-3.29-0.76-4.55,0c-1.13,0.69-1.23,1.75-0.32,2.52l-25.98,15.73v13.64l-31.91,19.33v8.05
		l-4.47,2.71l0,15.8l17.7,10.72l-11.63,7.04l-36.43-22.06l0-25.08l24.74-14.98c1.26,0.6,3.08,0.55,4.24-0.15
		c1.26-0.76,1.26-2,0-2.76c-1.26-0.76-3.29-0.76-4.55,0c-1.11,0.67-1.24,1.7-0.4,2.46l-24.03,14.55l0-20.26l18.99-11.5l0-38.11
		c0.7-0.05,1.38-0.23,1.92-0.55c1.26-0.76,1.26-2,0-2.76c-1.26-0.76-3.29-0.76-4.55,0c-1.26,0.76-1.26,2,0,2.76
		c0.54,0.32,1.22,0.5,1.92,0.55l0,37.68l-18.27,11.06l0-67.21h-0.72l0,114.73L440,192.27l-13.06,7.91l-47.61-28.84l0-68.68
		l-22.89-13.86l0-25.83l-20.21-12.24c0.91-0.76,0.81-1.83-0.32-2.52c-1.26-0.76-3.29-0.76-4.55,0c-1.26,0.76-1.26,2,0,2.76
		c1.13,0.69,2.9,0.75,4.16,0.2l20.21,12.24l0,25.83l22.89,13.86l0,68.68l47.61,28.84l-9.68,5.86l-64.26-38.92l0-58.59l-0.18-0.11
		l-56.88-34.45c0.91-0.76,0.81-1.83-0.32-2.52c-1.26-0.76-3.29-0.76-4.55,0c-1.26,0.76-1.26,2,0,2.76c1.13,0.69,2.9,0.75,4.15,0.2
		l57.06,34.56l0,58.6l0.18,0.11l64.08,38.81l-15.69,9.5l-106.91-64.75v-29.16l-0.18-0.11l-89.5-54.21c0.91-0.76,0.81-1.83-0.32-2.52
		c-1.26-0.76-3.29-0.76-4.55,0c-1.26,0.76-1.26,2,0,2.76c1.13,0.69,2.9,0.75,4.15,0.2l89.68,54.32v29.16l0.18,0.11l59.95,36.31
		l-47.56,0l-55.05-33.34c0.91-0.76,0.81-1.83-0.32-2.52c-1.26-0.76-3.29-0.76-4.55,0c-1.26,0.76-1.26,1.99,0,2.76
		c1.13,0.69,2.9,0.75,4.16,0.2l55.58,33.66l49,0l45.53,27.57l-18.24,11.05l-39.13-23.7h-62.84l-71.47-43.28l-39.65,0l-16.16-9.79
		c0.91-0.76,0.81-1.83-0.32-2.52c-1.26-0.76-3.29-0.76-4.55,0c-1.26,0.76-1.26,2,0,2.76c1.13,0.69,2.9,0.75,4.15,0.2l16.69,10.11
		l39.65,0l54.01,32.71h-46.65l-22.46-13.6c0.91-0.76,0.81-1.83-0.32-2.52c-1.26-0.76-3.29-0.76-4.55,0c-1.26,0.76-1.26,2,0,2.76
		c1.13,0.69,2.9,0.75,4.15,0.2l22.99,13.92h48.09l16.22,9.82h62.84l10.95,6.63h-26.71l-0.08,0.05l-13.4,8.12l-55.83,0l-15.75-9.54
		h-31.58c-0.12-0.37-0.41-0.72-0.88-1c-1.26-0.76-3.29-0.76-4.55,0c-1.26,0.76-1.26,2,0,2.76c1.26,0.76,3.29,0.76,4.55,0
		c0.47-0.28,0.76-0.63,0.88-1h31.39l15.75,9.54l54.78,0l-15.09,9.14c-1.26-0.55-3.02-0.49-4.16,0.2c-1.26,0.76-1.26,2,0,2.76
		c1.26,0.76,3.29,0.76,4.55,0c1.13-0.69,1.23-1.75,0.33-2.52l29.29-17.74h27.77l26.41,15.99l-9.76,5.91l0.54,0.33l5.74,3.48
		l-18.25,0l-23.86-14.45c0.91-0.76,0.81-1.83-0.32-2.52c-1.26-0.76-3.29-0.76-4.55,0c-1.26,0.76-1.26,2,0,2.76
		c1.13,0.69,2.9,0.75,4.15,0.2l24.39,14.77l19.69,0l13.36,8.09l-8.21,4.97h-14.57l-0.08,0.05l-12.72,7.71h-9.56l-21.58-13.07
		c0.97-0.76,0.89-1.86-0.27-2.56c-1.26-0.76-3.29-0.76-4.55,0c-1.26,0.76-1.26,2,0,2.76c1.11,0.67,2.83,0.75,4.08,0.23l22.13,13.4
		h9.94l0.08-0.05l12.72-7.71h13.13l-26.25,15.9h-14.18l-29.55-17.9H223l-55.28-33.48c0.96-0.76,0.87-1.85-0.28-2.55
		c-1.26-0.76-3.29-0.76-4.55,0c-1.26,0.76-1.26,2,0,2.76c1.12,0.68,2.84,0.75,4.1,0.22l55.81,33.8h89.12l29.55,17.9h14.56l0.08-0.05
		l36.16-21.9l9.49,5.74l-40.86,24.75h-28.82l-23.78-14.4l-61.02,0c-0.12-0.37-0.41-0.72-0.88-1c-1.26-0.76-3.29-0.76-4.55,0
		c-1.26,0.76-1.26,2,0,2.76c1.26,0.76,3.29,0.76,4.55,0c0.47-0.28,0.76-0.63,0.88-1l60.83,0l22.53,13.64h-85.99l-0.08,0.05
		l-81.95,49.63c-1.26-0.55-3.02-0.49-4.15,0.2c-1.26,0.76-1.26,2,0,2.76c1.26,0.76,3.29,0.76,4.55,0c1.13-0.69,1.23-1.75,0.33-2.52
		l81.5-49.36h116.25l0.08-0.05l41.31-25.02l10.78,6.53l-56.98,34.51H255.96l-0.08,0.05l-87.86,53.21l-102.37,0l-59.7-36.16
		c0.91-0.76,0.81-1.83-0.33-2.52c-1.26-0.76-3.29-0.76-4.55,0c-1.26,0.76-1.26,2,0,2.76c1.13,0.69,2.9,0.75,4.15,0.2l60.23,36.48
		l102.75,0l0.08-0.05l87.86-53.21h73.08L221.93,360.3l0,17.11l-42.81,25.92c-1.26-0.55-3.02-0.49-4.15,0.2c-1.26,0.76-1.26,2,0,2.76
		c1.26,0.76,3.29,0.76,4.55,0c1.13-0.69,1.23-1.75,0.32-2.52l42.81-25.92l0-17.11l108.03-65.43h25.08l-54.02,32.72v7.21
		l-25.85,15.66c-1.26-0.55-3.02-0.49-4.15,0.2c-1.26,0.76-1.26,2,0,2.76c1.26,0.76,3.29,0.76,4.55,0c1.13-0.69,1.23-1.75,0.32-2.52
		l14.07-8.52v19.76l-81.31,49.25c-1.26-0.55-3.02-0.49-4.15,0.2c-1.26,0.76-1.26,2,0,2.76c1.26,0.76,3.29,0.76,4.55,0
		c1.13-0.69,1.23-1.75,0.32-2.52L291.41,363v-20.63l11.05-6.69v-7.21l54.47-32.99l-0.18-0.33l57.24-34.67l10.41,6.3l-58.8,35.61
		l0,58.6l-108.15,65.5h1.44l89.55-54.23l0,52.99l-2.04,1.24h1.44l1.32-0.8l0-53.87l17.17-10.4l0-58.6l58.8-35.61l9.16,5.55
		l-45.34,27.46l0,32.12l0.18,0.11l51.56,31.22l0,10.89l-29.16,17.66c-1.26-0.55-3.02-0.49-4.15,0.2c-1.26,0.76-1.26,1.99,0,2.76
		c1.26,0.76,3.29,0.76,4.55,0c1.13-0.69,1.23-1.75,0.32-2.52l29.16-17.66l0-11.77l-0.18-0.11l-51.56-31.22l0-31.25l34.26-20.75
		l0,13.38l-15.71,9.51c-1.26-0.55-3.02-0.49-4.15,0.2c-1.26,0.76-1.26,2,0,2.76c1.26,0.76,3.29,0.76,4.55,0
		c1.13-0.69,1.23-1.75,0.32-2.52l15.71-9.51l0-14.26l10.36-6.28l12.25,7.42l0,23.31l-23.11,14v16.11l0.18,0.11l48.65,29.47
		c-0.91,0.76-0.81,1.83,0.32,2.52c1.26,0.76,3.29,0.76,4.55,0c1.26-0.76,1.26-1.99,0-2.76c-1.13-0.69-2.9-0.75-4.15-0.2
		l-48.84-29.58v-15.24l22.39-13.56l0,16.06L477.2,339c-0.91,0.76-0.81,1.83,0.33,2.52c1.26,0.76,3.29,0.76,4.55,0
		c1.26-0.76,1.26-2,0-2.76c-1.13-0.69-2.9-0.75-4.15-0.2l-29.95-18.14l0-39.37l8.61,5.21l0.18-0.11l14-8.48l12.84,7.78l0,18.9
		l34.14,20.67l0,17.82c-0.7,0.05-1.38,0.23-1.92,0.55c-1.26,0.76-1.26,2,0,2.76c1.26,0.76,3.29,0.76,4.55,0c1.26-0.76,1.26-2,0-2.76
		c-0.54-0.32-1.22-0.5-1.92-0.55l0-18.26l-34.14-20.67l0-18.03l55.26,33.47l0,35.48L509.62,373h-27.5l-0.08,0.05l-47.2,28.58
		c-1.26-0.55-3.02-0.49-4.15,0.2c-1.26,0.76-1.26,2,0,2.76c1.26,0.76,3.29,0.76,4.55,0c1.13-0.69,1.23-1.75,0.32-2.52l46.75-28.31
		h26.06l-86.7,52.51c-1.26-0.55-3.02-0.49-4.15,0.2c-0.02,0.01-0.03,0.02-0.04,0.03h5.26l117.58-71.21l0-36.35l-0.18-0.11
		l-68.65-41.57l13.81-8.37l117.2,70.98l0,42.35l40.04,24.25c-0.91,0.76-0.81,1.83,0.32,2.52c1.26,0.76,3.29,0.76,4.55,0
		c1.26-0.76,1.26-2,0-2.76c-1.13-0.69-2.9-0.75-4.15-0.2l-40.04-24.25l0-42.35l-0.18-0.11l-117.02-70.87l13.15-7.97l115.91,70.19
		h69.12l3.24,1.96v-0.87l-3.05-1.85h-69.12l-97.84-59.26h19.68l33.39,20.22l25.72,0l0.08-0.05l35.67-21.6
		c1.26,0.55,3.02,0.49,4.15-0.2c1.26-0.76,1.26-2,0-2.76c-1.26-0.76-3.29-0.76-4.55,0c-1.13,0.69-1.23,1.75-0.32,2.52l-35.23,21.34
		l-25.34,0l-33.39-20.22h-21.12l-16.29-9.86l35.11-21.26l9.98,6.05l0,15.87l25.36,15.36c-0.91,0.76-0.81,1.83,0.32,2.52
		c1.26,0.76,3.29,0.76,4.55,0c1.26-0.76,1.26-1.99,0-2.76c-1.13-0.69-2.9-0.75-4.15-0.2l-25.36-15.36l0-15l27.05,16.38h12.81
		l0.08-0.05l15.27-9.25c1.26,0.55,3.02,0.49,4.15-0.2c1.26-0.76,1.26-2,0-2.76c-1.26-0.76-3.29-0.76-4.55,0
		c-1.13,0.69-1.23,1.75-0.32,2.52l-14.83,8.98h-12.42l-37.22-22.54l6.76-4.1l-0.54-0.33l-21.04-12.74l10.11-6.12h15.28l10.93,6.62
		c-0.87,0.76-0.75,1.81,0.36,2.49c1.26,0.76,3.29,0.76,4.55,0c1.26-0.76,1.26-2,0-2.76c-1.15-0.7-2.94-0.75-4.2-0.17l-11.45-6.94
		h-14.23l25.77-15.61l60.63,36.72h43.63l0.08-0.05l24.56-14.88c0.16,0.07,0.34,0.1,0.51,0.15v-3.48c-0.33,0.09-0.64,0.21-0.91,0.38
		c-1.13,0.69-1.23,1.75-0.32,2.52l-24.12,14.61h-43.24l-46.76-28.32l20.01,0l19.56,11.85c-0.91,0.76-0.81,1.83,0.32,2.52
		c1.26,0.76,3.29,0.76,4.55,0c1.26-0.76,1.26-2,0-2.76c-1.13-0.69-2.9-0.75-4.15-0.2l-20.09-12.17l-21.46,0l-12.09-7.32l30.78-18.64
		l97.91,0v-0.76l-96.66,0l12.21-7.4l72.82,0l0.08-0.05l11.55-6.99v-0.87l-11.82,7.16l-72.82,0l-0.08,0.05l-82.53,49.98l-9.16-5.55
		l86.77-52.55l63.45,0l0.08-0.05l26.12-15.82v-0.87l-26.39,15.98l-63.45,0l-0.08,0.05l-87.21,52.82l-10.41-6.3l169.22-102.48
		l0-37.17l18.33-11.1V56.82z M541.05,234.25l-84.46,51.15l-84.46-51.15l84.46-51.15L541.05,234.25z"/>
	<g>
		<g>
			<g>
				<g>
					<path class="st3" d="M81.88,319.53c-1.44,0-2.89-0.37-4.17-1.11l-22.38-12.87c-0.51-0.29-0.81-0.81-0.81-1.4
						c0-0.58,0.3-1.11,0.81-1.4l21.06-11.98c2.9-1.67,6.51-1.67,9.41,0.01l21.85,12.56c0.51,0.29,0.81,0.81,0.81,1.4
						c0,0.58-0.3,1.11-0.81,1.4l-21.59,12.28C84.77,319.16,83.33,319.53,81.88,319.53z M81.09,290.19c-1.51,0-3.02,0.39-4.37,1.16
						l-21.06,11.98c-0.29,0.17-0.47,0.47-0.47,0.81c0,0.34,0.18,0.65,0.47,0.82l22.38,12.87c2.37,1.37,5.31,1.37,7.67,0l21.59-12.28
						c0.29-0.17,0.47-0.47,0.47-0.81c0-0.34-0.18-0.65-0.47-0.82l-21.85-12.56h0C84.12,290.58,82.6,290.19,81.09,290.19z"/>
				</g>
				<g class="st4">
					
						<linearGradient id="SVGID_00000171692208322360318620000012515267525967633560_" gradientUnits="userSpaceOnUse" x1="54.8602" y1="291.9593" x2="108.1183" y2="291.9593">
						<stop  offset="0" style="stop-color:#5761D7"/>
						<stop  offset="0.0726" style="stop-color:#5472D8"/>
						<stop  offset="0.2791" style="stop-color:#4E9CDB"/>
						<stop  offset="0.4801" style="stop-color:#49BDDD"/>
						<stop  offset="0.6715" style="stop-color:#45D5DF"/>
						<stop  offset="0.8493" style="stop-color:#43E3E0"/>
						<stop  offset="1" style="stop-color:#42E8E0"/>
					</linearGradient>
					<path style="fill:url(#SVGID_00000171692208322360318620000012515267525967633560_);" d="M85.63,278.5
						c-2.81-1.62-6.27-1.62-9.08,0L55.5,290.48c-0.85,0.49-0.85,1.72,0,2.21l22.38,12.87c2.48,1.43,5.53,1.43,8.01,0l21.59-12.28
						c0.85-0.49,0.85-1.72,0-2.21L85.63,278.5z"/>
				</g>
				<g class="st4">
					
						<linearGradient id="SVGID_00000125576600010845824730000000882138307966748333_" gradientUnits="userSpaceOnUse" x1="54.8602" y1="282.8461" x2="108.1183" y2="282.8461">
						<stop  offset="0" style="stop-color:#5761D7"/>
						<stop  offset="0.0726" style="stop-color:#5472D8"/>
						<stop  offset="0.2791" style="stop-color:#4E9CDB"/>
						<stop  offset="0.4801" style="stop-color:#49BDDD"/>
						<stop  offset="0.6715" style="stop-color:#45D5DF"/>
						<stop  offset="0.8493" style="stop-color:#43E3E0"/>
						<stop  offset="1" style="stop-color:#42E8E0"/>
					</linearGradient>
					<path style="fill:url(#SVGID_00000125576600010845824730000000882138307966748333_);" d="M85.63,269.39
						c-2.81-1.62-6.27-1.62-9.08,0L55.5,281.36c-0.85,0.49-0.85,1.72,0,2.21l22.38,12.87c2.48,1.43,5.53,1.43,8.01,0l21.59-12.28
						c0.85-0.49,0.85-1.72,0-2.21L85.63,269.39z"/>
				</g>
				<g class="st4">
					
						<linearGradient id="SVGID_00000157995704486680486260000004654920122745159853_" gradientUnits="userSpaceOnUse" x1="54.8602" y1="273.733" x2="108.1183" y2="273.733">
						<stop  offset="0" style="stop-color:#5761D7"/>
						<stop  offset="0.0726" style="stop-color:#5472D8"/>
						<stop  offset="0.2791" style="stop-color:#4E9CDB"/>
						<stop  offset="0.4801" style="stop-color:#49BDDD"/>
						<stop  offset="0.6715" style="stop-color:#45D5DF"/>
						<stop  offset="0.8493" style="stop-color:#43E3E0"/>
						<stop  offset="1" style="stop-color:#42E8E0"/>
					</linearGradient>
					<path style="fill:url(#SVGID_00000157995704486680486260000004654920122745159853_);" d="M85.63,260.28
						c-2.81-1.62-6.27-1.62-9.08,0L55.5,272.25c-0.85,0.49-0.85,1.72,0,2.21l22.38,12.87c2.48,1.43,5.53,1.43,8.01,0l21.59-12.28
						c0.85-0.49,0.85-1.72,0-2.21L85.63,260.28z"/>
				</g>
				<g class="st4">
					
						<linearGradient id="SVGID_00000158014037550025098210000013296202244793992360_" gradientUnits="userSpaceOnUse" x1="54.8602" y1="264.6198" x2="108.1183" y2="264.6198">
						<stop  offset="0" style="stop-color:#5761D7"/>
						<stop  offset="0.0726" style="stop-color:#5472D8"/>
						<stop  offset="0.2791" style="stop-color:#4E9CDB"/>
						<stop  offset="0.4801" style="stop-color:#49BDDD"/>
						<stop  offset="0.6715" style="stop-color:#45D5DF"/>
						<stop  offset="0.8493" style="stop-color:#43E3E0"/>
						<stop  offset="1" style="stop-color:#42E8E0"/>
					</linearGradient>
					<path style="fill:url(#SVGID_00000158014037550025098210000013296202244793992360_);" d="M85.63,251.17
						c-2.81-1.62-6.27-1.62-9.08,0L55.5,263.14c-0.85,0.49-0.85,1.72,0,2.21l22.38,12.87c2.48,1.43,5.53,1.43,8.01,0l21.59-12.28
						c0.85-0.49,0.85-1.72,0-2.21L85.63,251.17z"/>
				</g>
				
					<linearGradient id="SVGID_00000059287670041057931590000011825242562939499669_" gradientUnits="userSpaceOnUse" x1="54.8602" y1="278.2895" x2="108.1183" y2="278.2895">
					<stop  offset="0" style="stop-color:#5761D7"/>
					<stop  offset="0.0726" style="stop-color:#5472D8"/>
					<stop  offset="0.2791" style="stop-color:#4E9CDB"/>
					<stop  offset="0.4801" style="stop-color:#49BDDD"/>
					<stop  offset="0.6715" style="stop-color:#45D5DF"/>
					<stop  offset="0.8493" style="stop-color:#43E3E0"/>
					<stop  offset="1" style="stop-color:#42E8E0"/>
				</linearGradient>
				<path style="opacity:0.5;fill:url(#SVGID_00000059287670041057931590000011825242562939499669_);" d="M107.48,263.73
					l-21.85-12.56c-2.81-1.62-6.27-1.62-9.08,0L55.5,263.14c-0.43,0.25-0.64,0.68-0.64,1.11v27.34c0,0.43,0.21,0.86,0.64,1.11
					l22.38,12.87c2.48,1.43,5.53,1.43,8.01,0l21.59-12.28c0.43-0.25,0.64-0.68,0.64-1.11v-27.34l0,0
					C108.12,264.4,107.91,263.97,107.48,263.73z"/>
				<g class="st4">
					
						<linearGradient id="SVGID_00000044876094078033127750000004819854910264287378_" gradientUnits="userSpaceOnUse" x1="54.8602" y1="264.6198" x2="108.1183" y2="264.6198">
						<stop  offset="0" style="stop-color:#5761D7"/>
						<stop  offset="0.0726" style="stop-color:#5472D8"/>
						<stop  offset="0.2791" style="stop-color:#4E9CDB"/>
						<stop  offset="0.4801" style="stop-color:#49BDDD"/>
						<stop  offset="0.6715" style="stop-color:#45D5DF"/>
						<stop  offset="0.8493" style="stop-color:#43E3E0"/>
						<stop  offset="1" style="stop-color:#42E8E0"/>
					</linearGradient>
					<path style="fill:url(#SVGID_00000044876094078033127750000004819854910264287378_);" d="M85.63,251.17
						c-2.81-1.62-6.27-1.62-9.08,0L55.5,263.14c-0.85,0.49-0.85,1.72,0,2.21l22.38,12.87c2.48,1.43,5.53,1.43,8.01,0l21.59-12.28
						c0.85-0.49,0.85-1.72,0-2.21L85.63,251.17z"/>
				</g>
				
					<linearGradient id="SVGID_00000044899243568482013590000002074196046881350035_" gradientUnits="userSpaceOnUse" x1="54.8609" y1="271.4533" x2="108.1175" y2="271.4533">
					<stop  offset="0" style="stop-color:#5761D7"/>
					<stop  offset="0.0726" style="stop-color:#5472D8"/>
					<stop  offset="0.2791" style="stop-color:#4E9CDB"/>
					<stop  offset="0.4801" style="stop-color:#49BDDD"/>
					<stop  offset="0.6715" style="stop-color:#45D5DF"/>
					<stop  offset="0.8493" style="stop-color:#43E3E0"/>
					<stop  offset="1" style="stop-color:#42E8E0"/>
				</linearGradient>
				<path style="fill:url(#SVGID_00000044899243568482013590000002074196046881350035_);" d="M107.48,264.68l-21.59,12.28
					c-2.48,1.43-5.53,1.43-8.01,0L55.5,264.09c-0.21-0.12-0.37-0.29-0.47-0.48c-0.33,0.58-0.17,1.37,0.47,1.74l22.38,12.87
					c2.48,1.43,5.53,1.43,8.01,0l21.59-12.28c0.64-0.37,0.8-1.16,0.47-1.74C107.85,264.39,107.69,264.56,107.48,264.68z"/>
			</g>
		</g>
		<g>
			<polygon class="st12" points="81.49,272.03 67.86,264.16 81.49,256.29 95.12,264.16 			"/>
			<path class="st3" d="M81.49,272.77c-0.13,0-0.25-0.03-0.37-0.1l-13.63-7.87c-0.23-0.13-0.37-0.38-0.37-0.64s0.14-0.51,0.37-0.64
				l13.63-7.87c0.23-0.13,0.51-0.13,0.74,0l13.63,7.87c0.23,0.13,0.37,0.38,0.37,0.64s-0.14,0.51-0.37,0.64l-13.63,7.87
				C81.74,272.74,81.62,272.77,81.49,272.77z M69.33,264.16l12.16,7.02l12.16-7.02l-12.16-7.02L69.33,264.16z"/>
		</g>
	</g>
	<g>
		<g class="st13">
			
				<linearGradient id="SVGID_00000092437310552635280400000015278705208708907909_" gradientUnits="userSpaceOnUse" x1="55.4868" y1="328.6737" x2="106.9967" y2="358.4129">
				<stop  offset="0" style="stop-color:#BCBEFF"/>
				<stop  offset="0.2271" style="stop-color:#AAADF8"/>
				<stop  offset="0.6802" style="stop-color:#7C83E5"/>
				<stop  offset="1" style="stop-color:#5761D7"/>
			</linearGradient>
			<path style="fill:url(#SVGID_00000092437310552635280400000015278705208708907909_);" d="M113.95,345.57v-5.66l-1.56-0.87
				c-0.44,2.67-3.58,4.43-6.21,4.79L88.28,354.3l-7.81,2.82l-24.92-12.86l0.58-0.33c-2.13-0.99-3.28-3.27-4.43-5.35l-1.68,1l-1,0.28
				v5.8l0,0c0,1.11,0.73,2.22,2.19,3.06l24.97,14.41c2.92,1.69,7.68,1.69,10.6,0l24.97-14.41c1.44-0.83,2.17-1.92,2.19-3.01
				C113.95,345.67,113.95,345.62,113.95,345.57L113.95,345.57z"/>
			<path class="st15" d="M106.17,343.84L88.28,354.3l-6.8,2.45v7.65c1.92,0,3.84-0.42,5.3-1.27l24.97-14.41
				c1.44-0.83,2.17-1.92,2.19-3.01c0-0.05,0-0.1,0-0.15l0,0v-5.66l-1.43-0.8h-0.15C111.88,341.75,108.78,343.48,106.17,343.84z"/>
			<g>
				
					<linearGradient id="SVGID_00000011001670243414237010000007498574742215022746_" gradientUnits="userSpaceOnUse" x1="49.028" y1="339.915" x2="113.9498" y2="339.915">
					<stop  offset="0" style="stop-color:#E9E9FD"/>
					<stop  offset="0.3601" style="stop-color:#D3D2F9"/>
					<stop  offset="0.7062" style="stop-color:#C5C4F7"/>
					<stop  offset="1" style="stop-color:#C0BFF6"/>
				</linearGradient>
				<path style="fill:url(#SVGID_00000011001670243414237010000007498574742215022746_);" d="M76.19,357.39l-24.97-14.41
					c-2.92-1.69-2.92-4.43,0-6.12l24.97-14.41c2.92-1.69,7.68-1.69,10.6,0l24.97,14.41c2.92,1.69,2.92,4.43,0,6.12l-24.97,14.41
					C83.87,359.08,79.11,359.08,76.19,357.39z"/>
			</g>
			<g class="st13">
				<path class="st17" d="M76.19,357.39l-24.97-14.41c-2.92-1.69-2.92-4.43,0-6.12l24.97-14.41c2.92-1.69,7.68-1.69,10.6,0
					l24.97,14.41c2.92,1.69,2.92,4.43,0,6.12l-24.97,14.41C83.87,359.08,79.11,359.08,76.19,357.39z"/>
			</g>
		</g>
		<g>
			<g>
				<path class="st3" d="M81.49,347.87c-1.71,0-3.41-0.38-4.71-1.12l-24.97-14.42c-1.3-0.75-2.01-1.76-2.01-2.84
					c0-1.08,0.71-2.09,2.01-2.84l24.97-14.41c2.59-1.5,6.82-1.5,9.41,0l24.97,14.42c1.3,0.75,2.01,1.76,2.01,2.84
					c0,1.09-0.71,2.1-2.01,2.84l-24.97,14.41C84.9,347.5,83.19,347.87,81.49,347.87z M81.49,311.54c-1.62,0-3.25,0.36-4.49,1.07
					l-24.97,14.41c-1.16,0.67-1.79,1.54-1.79,2.46c0,0.92,0.64,1.8,1.79,2.46L77,346.37c2.48,1.43,6.5,1.43,8.97,0l24.97-14.41
					c1.16-0.67,1.79-1.54,1.79-2.46c0-0.92-0.64-1.8-1.79-2.46l-24.97-14.42C84.74,311.9,83.11,311.54,81.49,311.54z"/>
				<g>
					<path class="st18" d="M113.95,323.96v-8.55l-1.56-0.87c-0.44,2.67-3.58,4.43-6.21,4.79l-17.89,10.46l-7.81,2.82l-24.92-12.86
						l0.58-0.33c-2.13-0.99-3.28-3.27-4.43-5.35l-1.68,1l-1,0.28v8.69l0,0c0,1.11,0.73,2.22,2.19,3.06l24.97,14.41
						c2.92,1.69,7.68,1.69,10.6,0l24.97-14.41c1.44-0.83,2.17-1.92,2.19-3.01C113.95,324.05,113.95,324,113.95,323.96L113.95,323.96
						z"/>
					<g>
						<g>
							
								<linearGradient id="SVGID_00000125586282374067264210000005911356427693651126_" gradientUnits="userSpaceOnUse" x1="55.4869" y1="299.4593" x2="106.9967" y2="329.1985">
								<stop  offset="0" style="stop-color:#BCBEFF"/>
								<stop  offset="0.2271" style="stop-color:#AAADF8"/>
								<stop  offset="0.6802" style="stop-color:#7C83E5"/>
								<stop  offset="1" style="stop-color:#5761D7"/>
							</linearGradient>
							<path style="fill:url(#SVGID_00000125586282374067264210000005911356427693651126_);" d="M113.95,316.36v-5.66l-1.56-0.87
								c-0.44,2.67-3.58,4.43-6.21,4.79l-17.89,10.46l-7.81,2.82l-24.92-12.86l0.58-0.33c-2.13-0.99-3.28-3.27-4.43-5.35l-1.68,1
								l-1,0.28v5.8l0,0c0,1.11,0.73,2.22,2.19,3.06l24.97,14.41c2.92,1.69,7.68,1.69,10.6,0l24.97-14.41
								c1.44-0.83,2.17-1.92,2.19-3.01C113.95,316.45,113.95,316.4,113.95,316.36L113.95,316.36z"/>
							<path class="st15" d="M106.17,314.62l-17.89,10.46l-6.8,2.45v7.65c1.92,0,3.84-0.42,5.3-1.27l24.97-14.41
								c1.44-0.83,2.17-1.92,2.19-3.01c0-0.05,0-0.1,0-0.15l0,0v-5.66l-1.43-0.8h-0.15C111.88,312.53,108.78,314.26,106.17,314.62z"
								/>
							<g>
								
									<linearGradient id="SVGID_00000129923352285856998410000009947357587059291583_" gradientUnits="userSpaceOnUse" x1="49.0281" y1="310.7006" x2="113.9498" y2="310.7006">
									<stop  offset="0" style="stop-color:#E9E9FD"/>
									<stop  offset="0.3601" style="stop-color:#D3D2F9"/>
									<stop  offset="0.7062" style="stop-color:#C5C4F7"/>
									<stop  offset="1" style="stop-color:#C0BFF6"/>
								</linearGradient>
								<path style="fill:url(#SVGID_00000129923352285856998410000009947357587059291583_);" d="M76.19,328.18l-24.97-14.41
									c-2.92-1.69-2.92-4.43,0-6.12l24.97-14.41c2.92-1.69,7.68-1.69,10.6,0l24.97,14.41c2.92,1.69,2.92,4.43,0,6.12l-24.97,14.41
									C83.87,329.86,79.11,329.86,76.19,328.18z"/>
							</g>
							<g>
								<path class="st21" d="M111.76,313.76l-24.97,14.41c-2.92,1.69-7.68,1.69-10.6,0l-24.97-14.41
									c-1.31-0.75-2.03-1.72-2.17-2.71c-0.17,1.22,0.55,2.48,2.17,3.41l24.97,14.41c2.92,1.69,7.68,1.69,10.6,0l24.97-14.41
									c1.62-0.93,2.34-2.19,2.17-3.41C113.78,312.04,113.06,313.01,111.76,313.76z"/>
							</g>
						</g>
					</g>
				</g>
			</g>
		</g>
	</g>
</g>
<g id="OBJECTS">
	<g>
		<rect x="680.13" y="110.48" class="st22" width="29.8" height="59.16"/>
		<rect x="420.51" y="89.56" class="st23" width="47.15" height="81.37"/>
		<path class="st23" d="M625.69,165.99H558.6V80.76h67.09V165.99z M562.72,162.13h58.84V84.62h-58.84V162.13z"/>
		<rect x="404.53" y="95.21" class="st23" width="47.26" height="33.05"/>
		<rect x="479.9" y="102.74" class="st22" width="93.39" height="31.99"/>
		<rect x="590.09" y="75.64" class="st23" width="41.23" height="14.12"/>
		<ellipse class="st23" cx="715.1" cy="166.77" rx="15.69" ry="15.96"/>
		<g>
			<ellipse class="st22" cx="637.84" cy="92.31" rx="4.41" ry="4.49"/>
			<ellipse class="st22" cx="637.84" cy="107.83" rx="4.41" ry="4.49"/>
			<ellipse class="st22" cx="637.84" cy="123.36" rx="4.41" ry="4.49"/>
		</g>
		<ellipse class="st24" cx="413.19" cy="98.11" rx="40.94" ry="41.64"/>
		<ellipse class="st25" cx="715.1" cy="166.77" rx="33.02" ry="33.59"/>
		<ellipse class="st26" cx="516.45" cy="147.54" rx="24.83" ry="25.26"/>
		<g class="st27">
			<rect x="649.99" y="88.99" class="st28" width="1.33" height="1.35"/>
			<rect x="655.25" y="88.99" class="st28" width="1.33" height="1.35"/>
			<rect x="660.52" y="88.99" class="st28" width="1.33" height="1.35"/>
			<rect x="665.78" y="88.99" class="st28" width="1.33" height="1.35"/>
			<rect x="671.05" y="88.99" class="st28" width="1.33" height="1.35"/>
			<rect x="676.32" y="88.99" class="st28" width="1.33" height="1.35"/>
			<rect x="681.58" y="88.99" class="st28" width="1.33" height="1.35"/>
			<rect x="686.85" y="88.99" class="st28" width="1.33" height="1.35"/>
			
				<rect x="649.98" y="94.35" transform="matrix(-1.836970e-16 1 -1 -1.836970e-16 745.6683 -555.6326)" class="st29" width="1.35" height="1.33"/>
			
				<rect x="649.98" y="99.71" transform="matrix(-1.836970e-16 1 -1 -1.836970e-16 751.0237 -550.2772)" class="st28" width="1.35" height="1.33"/>
			
				<rect x="649.98" y="105.07" transform="matrix(-1.836970e-16 1 -1 -1.836970e-16 756.3792 -544.9218)" class="st28" width="1.35" height="1.33"/>
			
				<rect x="649.98" y="110.42" transform="matrix(-1.836970e-16 1 -1 -1.836970e-16 761.7346 -539.5663)" class="st28" width="1.35" height="1.33"/>
			
				<rect x="649.98" y="115.78" transform="matrix(-1.836970e-16 1 -1 -1.836970e-16 767.0901 -534.2109)" class="st28" width="1.35" height="1.33"/>
			
				<rect x="649.98" y="121.13" transform="matrix(-1.836970e-16 1 -1 -1.836970e-16 772.4455 -528.8555)" class="st29" width="1.35" height="1.33"/>
			
				<rect x="649.98" y="126.49" transform="matrix(-1.836970e-16 1 -1 -1.836970e-16 777.8009 -523.5)" class="st28" width="1.35" height="1.33"/>
			
				<rect x="655.24" y="94.35" transform="matrix(-1.836970e-16 1 -1 -1.836970e-16 750.9338 -560.8981)" class="st28" width="1.35" height="1.33"/>
			
				<rect x="655.24" y="99.71" transform="matrix(-1.836970e-16 1 -1 -1.836970e-16 756.2893 -555.5427)" class="st28" width="1.35" height="1.33"/>
			
				<rect x="655.24" y="105.07" transform="matrix(-1.836970e-16 1 -1 -1.836970e-16 761.6447 -550.1873)" class="st28" width="1.35" height="1.33"/>
			
				<rect x="655.24" y="110.42" transform="matrix(-1.836970e-16 1 -1 -1.836970e-16 767.0001 -544.8318)" class="st28" width="1.35" height="1.33"/>
			
				<rect x="655.24" y="115.78" transform="matrix(-1.836970e-16 1 -1 -1.836970e-16 772.3556 -539.4764)" class="st28" width="1.35" height="1.33"/>
			
				<rect x="655.24" y="121.13" transform="matrix(-1.836970e-16 1 -1 -1.836970e-16 777.711 -534.121)" class="st28" width="1.35" height="1.33"/>
			
				<rect x="655.24" y="126.49" transform="matrix(-1.836970e-16 1 -1 -1.836970e-16 783.0664 -528.7656)" class="st28" width="1.35" height="1.33"/>
			
				<rect x="660.51" y="94.35" transform="matrix(-1.836970e-16 1 -1 -1.836970e-16 756.1994 -566.1637)" class="st29" width="1.35" height="1.33"/>
			
				<rect x="660.51" y="99.71" transform="matrix(-1.836970e-16 1 -1 -1.836970e-16 761.5549 -560.8083)" class="st28" width="1.35" height="1.33"/>
			
				<rect x="660.51" y="105.07" transform="matrix(-1.836970e-16 1 -1 -1.836970e-16 766.9103 -555.4529)" class="st28" width="1.35" height="1.33"/>
			
				<rect x="660.51" y="110.42" transform="matrix(-1.836970e-16 1 -1 -1.836970e-16 772.2657 -550.0974)" class="st28" width="1.35" height="1.33"/>
			
				<rect x="660.51" y="115.78" transform="matrix(-1.836970e-16 1 -1 -1.836970e-16 777.6212 -544.742)" class="st28" width="1.35" height="1.33"/>
			
				<rect x="660.51" y="121.13" transform="matrix(-1.836970e-16 1 -1 -1.836970e-16 782.9766 -539.3865)" class="st28" width="1.35" height="1.33"/>
			
				<rect x="660.51" y="126.49" transform="matrix(-1.836970e-16 1 -1 -1.836970e-16 788.332 -534.0311)" class="st28" width="1.35" height="1.33"/>
			
				<rect x="665.77" y="94.35" transform="matrix(-1.836970e-16 1 -1 -1.836970e-16 761.465 -571.4293)" class="st28" width="1.35" height="1.33"/>
			
				<rect x="665.77" y="99.71" transform="matrix(-1.836970e-16 1 -1 -1.836970e-16 766.8204 -566.0738)" class="st28" width="1.35" height="1.33"/>
			
				<rect x="665.77" y="105.07" transform="matrix(-1.836970e-16 1 -1 -1.836970e-16 772.1758 -560.7184)" class="st28" width="1.35" height="1.33"/>
			
				<rect x="665.77" y="110.42" transform="matrix(-1.836970e-16 1 -1 -1.836970e-16 777.5312 -555.363)" class="st28" width="1.35" height="1.33"/>
			
				<rect x="665.77" y="115.78" transform="matrix(-1.836970e-16 1 -1 -1.836970e-16 782.8867 -550.0075)" class="st29" width="1.35" height="1.33"/>
			
				<rect x="665.77" y="121.13" transform="matrix(-1.836970e-16 1 -1 -1.836970e-16 788.2421 -544.6521)" class="st28" width="1.35" height="1.33"/>
			
				<rect x="665.77" y="126.49" transform="matrix(-1.836970e-16 1 -1 -1.836970e-16 793.5975 -539.2967)" class="st28" width="1.35" height="1.33"/>
			
				<rect x="671.04" y="94.35" transform="matrix(-1.836970e-16 1 -1 -1.836970e-16 766.7305 -576.6948)" class="st28" width="1.35" height="1.33"/>
			
				<rect x="671.04" y="99.71" transform="matrix(-1.836970e-16 1 -1 -1.836970e-16 772.0859 -571.3394)" class="st28" width="1.35" height="1.33"/>
			
				<rect x="671.04" y="105.07" transform="matrix(-1.836970e-16 1 -1 -1.836970e-16 777.4413 -565.9839)" class="st28" width="1.35" height="1.33"/>
			
				<rect x="671.04" y="110.42" transform="matrix(-1.836970e-16 1 -1 -1.836970e-16 782.7968 -560.6285)" class="st28" width="1.35" height="1.33"/>
			
				<rect x="671.04" y="115.78" transform="matrix(-1.836970e-16 1 -1 -1.836970e-16 788.1522 -555.2731)" class="st28" width="1.35" height="1.33"/>
			
				<rect x="671.04" y="121.13" transform="matrix(-1.836970e-16 1 -1 -1.836970e-16 793.5077 -549.9177)" class="st28" width="1.35" height="1.33"/>
			
				<rect x="671.04" y="126.49" transform="matrix(-1.836970e-16 1 -1 -1.836970e-16 798.8631 -544.5622)" class="st28" width="1.35" height="1.33"/>
			
				<rect x="676.3" y="94.35" transform="matrix(-1.836970e-16 1 -1 -1.836970e-16 771.996 -581.9604)" class="st28" width="1.35" height="1.33"/>
			
				<rect x="676.3" y="99.71" transform="matrix(-1.836970e-16 1 -1 -1.836970e-16 777.3515 -576.6049)" class="st28" width="1.35" height="1.33"/>
			
				<rect x="676.3" y="105.07" transform="matrix(-1.836970e-16 1 -1 -1.836970e-16 782.7069 -571.2495)" class="st28" width="1.35" height="1.33"/>
			
				<rect x="676.3" y="110.42" transform="matrix(-1.836970e-16 1 -1 -1.836970e-16 788.0624 -565.894)" class="st28" width="1.35" height="1.33"/>
			
				<rect x="676.3" y="115.78" transform="matrix(-1.836970e-16 1 -1 -1.836970e-16 793.4178 -560.5386)" class="st28" width="1.35" height="1.33"/>
			
				<rect x="676.3" y="121.13" transform="matrix(-1.836970e-16 1 -1 -1.836970e-16 798.7732 -555.1832)" class="st28" width="1.35" height="1.33"/>
			
				<rect x="676.3" y="126.49" transform="matrix(-1.836970e-16 1 -1 -1.836970e-16 804.1287 -549.8278)" class="st29" width="1.35" height="1.33"/>
			
				<rect x="681.57" y="94.35" transform="matrix(-1.836970e-16 1 -1 -1.836970e-16 777.2616 -587.2259)" class="st28" width="1.35" height="1.33"/>
			
				<rect x="681.57" y="99.71" transform="matrix(-1.836970e-16 1 -1 -1.836970e-16 782.6171 -581.8704)" class="st28" width="1.35" height="1.33"/>
			
				<rect x="681.57" y="105.07" transform="matrix(-1.836970e-16 1 -1 -1.836970e-16 787.9725 -576.5151)" class="st28" width="1.35" height="1.33"/>
			
				<rect x="681.57" y="110.42" transform="matrix(-1.836970e-16 1 -1 -1.836970e-16 793.3279 -571.1596)" class="st28" width="1.35" height="1.33"/>
			
				<rect x="681.57" y="115.78" transform="matrix(-1.836970e-16 1 -1 -1.836970e-16 798.6833 -565.8041)" class="st28" width="1.35" height="1.33"/>
			
				<rect x="681.57" y="121.13" transform="matrix(-1.836970e-16 1 -1 -1.836970e-16 804.0388 -560.4487)" class="st29" width="1.35" height="1.33"/>
			
				<rect x="681.57" y="126.49" transform="matrix(-1.836970e-16 1 -1 -1.836970e-16 809.3942 -555.0933)" class="st29" width="1.35" height="1.33"/>
			
				<rect x="686.84" y="94.35" transform="matrix(-1.836970e-16 1 -1 -1.836970e-16 782.5272 -592.4915)" class="st28" width="1.35" height="1.33"/>
			
				<rect x="686.84" y="99.71" transform="matrix(-1.836970e-16 1 -1 -1.836970e-16 787.8826 -587.136)" class="st28" width="1.35" height="1.33"/>
			<rect x="649.99" y="78.28" class="st28" width="1.33" height="1.35"/>
			<rect x="655.25" y="78.28" class="st28" width="1.33" height="1.35"/>
			<rect x="660.52" y="78.28" class="st29" width="1.33" height="1.35"/>
			<rect x="665.78" y="78.28" class="st28" width="1.33" height="1.35"/>
			<rect x="671.05" y="78.28" class="st28" width="1.33" height="1.35"/>
			<rect x="676.32" y="78.28" class="st28" width="1.33" height="1.35"/>
			<rect x="681.58" y="78.28" class="st28" width="1.33" height="1.35"/>
			<rect x="686.85" y="78.28" class="st28" width="1.33" height="1.35"/>
			
				<rect x="649.98" y="83.64" transform="matrix(-1.836970e-16 1 -1 -1.836970e-16 734.9575 -566.3435)" class="st28" width="1.35" height="1.33"/>
			
				<rect x="655.24" y="83.64" transform="matrix(-1.836970e-16 1 -1 -1.836970e-16 740.223 -571.609)" class="st28" width="1.35" height="1.33"/>
			
				<rect x="660.51" y="83.64" transform="matrix(-1.836970e-16 1 -1 -1.836970e-16 745.4885 -576.8746)" class="st28" width="1.35" height="1.33"/>
			
				<rect x="665.77" y="83.64" transform="matrix(-1.836970e-16 1 -1 -1.836970e-16 750.7541 -582.1401)" class="st29" width="1.35" height="1.33"/>
			
				<rect x="671.04" y="83.64" transform="matrix(-1.836970e-16 1 -1 -1.836970e-16 756.0197 -587.4056)" class="st29" width="1.35" height="1.33"/>
			
				<rect x="676.3" y="83.64" transform="matrix(-1.836970e-16 1 -1 -1.836970e-16 761.2852 -592.6712)" class="st28" width="1.35" height="1.33"/>
			
				<rect x="681.57" y="83.64" transform="matrix(-1.836970e-16 1 -1 -1.836970e-16 766.5507 -597.9368)" class="st28" width="1.35" height="1.33"/>
			
				<rect x="686.84" y="83.64" transform="matrix(-1.836970e-16 1 -1 -1.836970e-16 771.8163 -603.2023)" class="st28" width="1.35" height="1.33"/>
			
				<rect x="686.84" y="105.07" transform="matrix(-1.836970e-16 1 -1 -1.836970e-16 793.238 -581.7806)" class="st28" width="1.35" height="1.33"/>
			
				<rect x="686.84" y="110.42" transform="matrix(-1.836970e-16 1 -1 -1.836970e-16 798.5935 -576.4252)" class="st29" width="1.35" height="1.33"/>
			
				<rect x="686.84" y="115.78" transform="matrix(-1.836970e-16 1 -1 -1.836970e-16 803.9489 -571.0698)" class="st28" width="1.35" height="1.33"/>
			
				<rect x="686.84" y="121.13" transform="matrix(-1.836970e-16 1 -1 -1.836970e-16 809.3043 -565.7143)" class="st28" width="1.35" height="1.33"/>
			
				<rect x="686.84" y="126.49" transform="matrix(-1.836970e-16 1 -1 -1.836970e-16 814.6598 -560.3589)" class="st28" width="1.35" height="1.33"/>
		</g>
		<g>
			<path class="st29" d="M398.2,107.16l-2.76,1.75c0.25,0.41,0.52,0.81,0.8,1.2l2.63-1.95C398.64,107.84,398.41,107.5,398.2,107.16z
				"/>
			<path class="st29" d="M396.62,92.56l-3.07-1.1c-0.16,0.45-0.3,0.92-0.43,1.39l3.14,0.87C396.37,93.32,396.49,92.93,396.62,92.56z
				"/>
			<path class="st29" d="M397.86,89.8l-2.82-1.64c-0.23,0.42-0.46,0.85-0.66,1.29l2.93,1.43C397.48,90.51,397.67,90.14,397.86,89.8z
				"/>
			<path class="st29" d="M401.68,85.16l-2.08-2.54c-0.37,0.31-0.72,0.64-1.07,0.97l2.26,2.38
				C401.08,85.69,401.38,85.42,401.68,85.16z"/>
			<path class="st29" d="M396,101.55l-3.19,0.65c0.09,0.48,0.21,0.95,0.33,1.41l3.13-0.88C396.18,102.34,396.08,101.95,396,101.55z"
				/>
			<path class="st29" d="M396.85,104.46l-3.02,1.22c0.17,0.45,0.37,0.89,0.58,1.33l2.93-1.44C397.16,105.2,397,104.83,396.85,104.46
				z"/>
			<path class="st29" d="M395.68,98.53l-3.25,0.07c0.01,0.49,0.04,0.97,0.08,1.45l3.24-0.3C395.71,99.35,395.69,98.94,395.68,98.53z
				"/>
			<path class="st29" d="M395.88,95.5l-3.21-0.52c-0.07,0.47-0.13,0.96-0.17,1.44l3.24,0.29C395.77,96.3,395.82,95.89,395.88,95.5z"
				/>
			<path class="st29" d="M399.57,87.3l-2.49-2.13c-0.31,0.37-0.6,0.76-0.88,1.15l2.64,1.94C399.06,87.94,399.31,87.61,399.57,87.3z"
				/>
			<path class="st29" d="M404.14,83.43l-1.6-2.88c-0.41,0.24-0.82,0.49-1.22,0.76l1.8,2.75C403.45,83.84,403.8,83.63,404.14,83.43z"
				/>
			<path class="st29" d="M428.3,93.32l3.12-0.95c-0.14-0.46-0.29-0.93-0.46-1.38l-3.04,1.18C428.06,92.55,428.19,92.93,428.3,93.32z
				"/>
			<path class="st29" d="M427.19,90.51l2.9-1.5c-0.21-0.43-0.45-0.85-0.69-1.27l-2.78,1.71C426.82,89.79,427.02,90.15,427.19,90.51z
				"/>
			<path class="st29" d="M428.9,96.3l3.23-0.37c-0.05-0.48-0.12-0.96-0.21-1.44l-3.2,0.6C428.8,95.49,428.85,95.9,428.9,96.3z"/>
			<path class="st29" d="M425.61,87.93l2.59-2c-0.29-0.38-0.59-0.76-0.91-1.12L424.85,87C425.11,87.3,425.37,87.61,425.61,87.93z"/>
			<path class="st29" d="M406.86,82.18l-1.07-3.12c-0.45,0.16-0.89,0.34-1.33,0.53l1.29,3.04
				C406.11,82.46,406.48,82.31,406.86,82.18z"/>
			<path class="st29" d="M423.59,85.69l2.2-2.44c-0.35-0.33-0.72-0.64-1.09-0.94l-2.02,2.59C422.99,85.15,423.3,85.42,423.59,85.69z
				"/>
			<path class="st29" d="M422.95,81.05c-0.4-0.26-0.82-0.5-1.23-0.73l-1.53,2.92c0.35,0.19,0.7,0.4,1.04,0.61L422.95,81.05z"/>
			<path class="st29" d="M416.35,114.64l0.78,3.21c0.46-0.11,0.92-0.25,1.37-0.4l-1.01-3.15
				C417.12,114.43,416.74,114.55,416.35,114.64z"/>
			<path class="st29" d="M424.07,110.22l2.29,2.35c0.34-0.35,0.67-0.7,0.98-1.06l-2.45-2.17
				C424.63,109.64,424.36,109.93,424.07,110.22z"/>
			<path class="st29" d="M418.43,78.9l-0.99,3.15c0.37,0.12,0.75,0.26,1.12,0.41l1.21-3.07C419.33,79.21,418.88,79.05,418.43,78.9z"
				/>
			<path class="st29" d="M419.17,113.65l1.34,3.01c0.43-0.2,0.86-0.42,1.28-0.64l-1.54-2.91
				C419.9,113.3,419.54,113.48,419.17,113.65z"/>
			<path class="st29" d="M426,107.9l2.67,1.9c0.27-0.4,0.54-0.81,0.78-1.22l-2.79-1.7C426.45,107.22,426.23,107.57,426,107.9z"/>
			<path class="st29" d="M421.77,112.16l1.84,2.73c0.39-0.27,0.77-0.56,1.15-0.87l-2.03-2.58
				C422.42,111.69,422.1,111.93,421.77,112.16z"/>
			<path class="st29" d="M429,98.11v0.08c0,0.4-0.01,0.81-0.04,1.22l3.24,0.23c0.03-0.48,0.05-0.97,0.05-1.45v-0.08H429z"/>
			<path class="st29" d="M428.48,102.41l3.15,0.82c0.12-0.47,0.22-0.95,0.3-1.42l-3.2-0.59
				C428.67,101.61,428.58,102.01,428.48,102.41z"/>
			<path class="st29" d="M427.48,105.27l2.96,1.38c0.2-0.44,0.38-0.89,0.55-1.34l-3.05-1.16
				C427.81,104.52,427.65,104.9,427.48,105.27z"/>
			<path class="st29" d="M403.24,116.21c0.42,0.22,0.86,0.43,1.3,0.62l1.28-3.04c-0.37-0.16-0.73-0.33-1.08-0.52L403.24,116.21z"/>
			<path class="st29" d="M400.01,109.58l-2.41,2.23c0.32,0.36,0.66,0.71,1,1.04l2.24-2.39
				C400.56,110.18,400.27,109.88,400.01,109.58z"/>
			<path class="st29" d="M407.85,78.45l0.73,3.22c0.39-0.09,0.78-0.17,1.17-0.23l-0.5-3.27C408.79,78.25,408.31,78.34,407.85,78.45z
				"/>
			<path class="st29" d="M406.55,117.57c0.45,0.14,0.92,0.26,1.38,0.37l0.72-3.23c-0.39-0.09-0.78-0.19-1.16-0.31L406.55,117.57z"/>
			<path class="st29" d="M400.23,114.27c0.38,0.3,0.77,0.58,1.16,0.84l1.79-2.76c-0.33-0.22-0.66-0.46-0.98-0.71L400.23,114.27z"/>
			<path class="st29" d="M411.38,77.96l0.16,3.3c0.25-0.01,0.51-0.02,0.77-0.02c0.14,0,0.29,0,0.43,0l0.07-3.31
				c-0.16,0-0.31-0.01-0.47-0.01C412,77.94,411.7,77.94,411.38,77.96z"/>
			<path class="st29" d="M410.04,118.31c0.47,0.05,0.95,0.09,1.42,0.11l0.14-3.31c-0.4-0.02-0.8-0.05-1.19-0.1L410.04,118.31z"/>
			<path class="st29" d="M413.4,115.1l0.2,3.3c0.47-0.03,0.95-0.08,1.42-0.14l-0.44-3.28C414.2,115.04,413.8,115.08,413.4,115.1z"/>
			<path class="st29" d="M414.95,78.11l-0.42,3.28c0.4,0.05,0.79,0.12,1.18,0.2l0.66-3.24C415.89,78.25,415.42,78.17,414.95,78.11z"
				/>
		</g>
		<g>
			<g>
				<polygon class="st30" points="581.77,115.87 581.12,115.87 581.12,110.24 586.65,110.24 586.65,110.9 581.77,110.9 				"/>
				<polygon class="st30" points="605.2,115.87 604.55,115.87 604.55,110.9 599.66,110.9 599.66,110.24 605.2,110.24 				"/>
				<polygon class="st30" points="605.2,134.74 599.66,134.74 599.66,134.07 604.55,134.07 604.55,129.11 605.2,129.11 				"/>
				<polygon class="st30" points="586.65,134.74 581.12,134.74 581.12,129.11 581.77,129.11 581.77,134.07 586.65,134.07 				"/>
			</g>
			<path class="st28" d="M596.76,122.49c0,2.02-1.61,3.66-3.6,3.66c-1.99,0-3.6-1.64-3.6-3.66s1.61-3.66,3.6-3.66
				C595.15,118.83,596.76,120.47,596.76,122.49z"/>
			<path class="st30" d="M593.16,123.46c-0.53,0-0.95-0.43-0.95-0.97c0-0.53,0.43-0.97,0.95-0.97c0.53,0,0.95,0.43,0.95,0.97
				C594.11,123.02,593.69,123.46,593.16,123.46z"/>
		</g>
		<g>
			<path class="st30" d="M502.33,113.3h-27.21c-0.35,0-0.64-0.29-0.64-0.65l0,0c0-0.36,0.28-0.65,0.64-0.65h27.21
				c0.35,0,0.64,0.29,0.64,0.65l0,0C502.97,113.01,502.68,113.3,502.33,113.3z"/>
			<path class="st30" d="M489.32,116.79h-14.2c-0.35,0-0.64-0.29-0.64-0.65l0,0c0-0.36,0.28-0.65,0.64-0.65h14.2
				c0.35,0,0.64,0.29,0.64,0.65l0,0C489.96,116.5,489.67,116.79,489.32,116.79z"/>
		</g>
		<g>
			<path class="st28" d="M720.04,95.77h-27.21c-0.35,0-0.64-0.29-0.64-0.65l0,0c0-0.36,0.28-0.65,0.64-0.65h27.21
				c0.35,0,0.64,0.29,0.64,0.65l0,0C720.67,95.48,720.39,95.77,720.04,95.77z"/>
			<path class="st28" d="M707.03,99.26h-14.2c-0.35,0-0.64-0.29-0.64-0.65l0,0c0-0.36,0.28-0.65,0.64-0.65h14.2
				c0.35,0,0.64,0.29,0.64,0.65l0,0C707.66,98.97,707.38,99.26,707.03,99.26z"/>
		</g>
		<g>
			<path class="st28" d="M410.54,171.26h-14.2c-0.35,0-0.64-0.29-0.64-0.65l0,0c0-0.36,0.28-0.65,0.64-0.65h14.2
				c0.35,0,0.64,0.29,0.64,0.65l0,0C411.17,170.97,410.89,171.26,410.54,171.26z"/>
			<path class="st28" d="M410.54,174.74h-14.2c-0.35,0-0.64-0.29-0.64-0.65l0,0c0-0.36,0.28-0.65,0.64-0.65h14.2
				c0.35,0,0.64,0.29,0.64,0.65l0,0C411.17,174.45,410.89,174.74,410.54,174.74z"/>
		</g>
		<g>
			<path class="st30" d="M720.04,120.41h-27.21c-0.35,0-0.64-0.29-0.64-0.65l0,0c0-0.36,0.28-0.65,0.64-0.65h27.21
				c0.35,0,0.64,0.29,0.64,0.65l0,0C720.67,120.12,720.39,120.41,720.04,120.41z"/>
			<path class="st30" d="M707.03,123.9h-14.2c-0.35,0-0.64-0.29-0.64-0.65l0,0c0-0.36,0.28-0.65,0.64-0.65h14.2
				c0.35,0,0.64,0.29,0.64,0.65l0,0C707.66,123.61,707.38,123.9,707.03,123.9z"/>
			<path class="st30" d="M707.03,127.38h-14.2c-0.35,0-0.64-0.29-0.64-0.65l0,0c0-0.36,0.28-0.65,0.64-0.65h14.2
				c0.35,0,0.64,0.29,0.64,0.65l0,0C707.66,127.09,707.38,127.38,707.03,127.38z"/>
		</g>
		<g>
			<path class="st30" d="M423.55,155.64h-27.21c-0.35,0-0.64-0.29-0.64-0.65l0,0c0-0.36,0.28-0.65,0.64-0.65h27.21
				c0.35,0,0.64,0.29,0.64,0.65l0,0C424.18,155.35,423.9,155.64,423.55,155.64z"/>
			<path class="st30" d="M423.55,152.49h-27.21c-0.35,0-0.64-0.29-0.64-0.65l0,0c0-0.36,0.28-0.65,0.64-0.65h27.21
				c0.35,0,0.64,0.29,0.64,0.65l0,0C424.18,152.2,423.9,152.49,423.55,152.49z"/>
			<path class="st30" d="M423.55,149.34h-27.21c-0.35,0-0.64-0.29-0.64-0.65l0,0c0-0.36,0.28-0.65,0.64-0.65h27.21
				c0.35,0,0.64,0.29,0.64,0.65l0,0C424.18,149.05,423.9,149.34,423.55,149.34z"/>
			<path class="st30" d="M410.54,158.79h-14.2c-0.35,0-0.64-0.29-0.64-0.65l0,0c0-0.36,0.28-0.65,0.64-0.65h14.2
				c0.35,0,0.64,0.29,0.64,0.65l0,0C411.17,158.5,410.89,158.79,410.54,158.79z"/>
		</g>
		<ellipse class="st31" cx="412.34" cy="98.18" rx="5.7" ry="5.8"/>
		<g>
			<g>
				<path class="st31" d="M475.71,73.44L475.71,73.44c-0.68,0-1.24,0.56-1.24,1.26v5.91c0,0.69,0.55,1.26,1.24,1.26h0
					c0.68,0,1.24-0.56,1.24-1.26V74.7C476.95,74,476.4,73.44,475.71,73.44z"/>
				<path class="st31" d="M480.05,73.44L480.05,73.44c-0.68,0-1.24,0.56-1.24,1.26v5.91c0,0.69,0.55,1.26,1.24,1.26h0
					c0.68,0,1.24-0.56,1.24-1.26V74.7C481.29,74,480.73,73.44,480.05,73.44z"/>
				<path class="st31" d="M484.38,73.44L484.38,73.44c-0.68,0-1.24,0.56-1.24,1.26v5.91c0,0.69,0.55,1.26,1.24,1.26h0
					c0.68,0,1.24-0.56,1.24-1.26V74.7C485.62,74,485.07,73.44,484.38,73.44z"/>
				<path class="st31" d="M488.72,73.44L488.72,73.44c-0.68,0-1.24,0.56-1.24,1.26v5.91c0,0.69,0.55,1.26,1.24,1.26h0
					c0.68,0,1.24-0.56,1.24-1.26V74.7C489.95,74,489.4,73.44,488.72,73.44z"/>
				<path class="st31" d="M493.05,73.44L493.05,73.44c-0.68,0-1.24,0.56-1.24,1.26v5.91c0,0.69,0.55,1.26,1.24,1.26h0
					c0.68,0,1.24-0.56,1.24-1.26V74.7C494.29,74,493.74,73.44,493.05,73.44z"/>
				<path class="st31" d="M497.39,73.44L497.39,73.44c-0.68,0-1.24,0.56-1.24,1.26v5.91c0,0.69,0.55,1.26,1.24,1.26h0
					c0.68,0,1.24-0.56,1.24-1.26V74.7C498.62,74,498.07,73.44,497.39,73.44z"/>
				<path class="st31" d="M501.72,73.44L501.72,73.44c-0.68,0-1.24,0.56-1.24,1.26v5.91c0,0.69,0.55,1.26,1.24,1.26h0
					c0.68,0,1.24-0.56,1.24-1.26V74.7C502.96,74,502.41,73.44,501.72,73.44z"/>
				<path class="st31" d="M506.06,73.44L506.06,73.44c-0.68,0-1.24,0.56-1.24,1.26v5.91c0,0.69,0.55,1.26,1.24,1.26h0
					c0.68,0,1.24-0.56,1.24-1.26V74.7C507.29,74,506.74,73.44,506.06,73.44z"/>
				<path class="st28" d="M510.39,73.44L510.39,73.44c-0.68,0-1.24,0.56-1.24,1.26v5.91c0,0.69,0.55,1.26,1.24,1.26h0
					c0.68,0,1.24-0.56,1.24-1.26V74.7C511.63,74,511.07,73.44,510.39,73.44z"/>
				<path class="st28" d="M514.73,73.44L514.73,73.44c-0.68,0-1.24,0.56-1.24,1.26v5.91c0,0.69,0.55,1.26,1.24,1.26h0
					c0.68,0,1.24-0.56,1.24-1.26V74.7C515.96,74,515.41,73.44,514.73,73.44z"/>
				<path class="st28" d="M519.06,73.44L519.06,73.44c-0.68,0-1.24,0.56-1.24,1.26v5.91c0,0.69,0.55,1.26,1.24,1.26h0
					c0.68,0,1.24-0.56,1.24-1.26V74.7C520.3,74,519.74,73.44,519.06,73.44z"/>
				<path class="st28" d="M523.4,73.44L523.4,73.44c-0.68,0-1.24,0.56-1.24,1.26v5.91c0,0.69,0.55,1.26,1.24,1.26h0
					c0.68,0,1.24-0.56,1.24-1.26V74.7C524.63,74,524.08,73.44,523.4,73.44z"/>
			</g>
			<rect x="470.36" y="70.2" class="st26" width="58.39" height="15.02"/>
		</g>
		<g>
			<g>
				<path class="st32" d="M660.42,147.48v-1.33c0-2.76,2.24-5,5-5h7.98c2.76,0,5,2.24,5,5v1.33c0,2.76-2.24,5-5,5h-7.98
					C662.66,152.49,660.42,150.25,660.42,147.48z"/>
				<path class="st28" d="M657.85,147.48v-1.33c0-2.76,2.24-5,5-5h7.98c2.76,0,5,2.24,5,5v1.33c0,2.76-2.24,5-5,5h-7.98
					C660.09,152.49,657.85,150.25,657.85,147.48z"/>
			</g>
			<path class="st33" d="M669.1,146.82c0,1.27-1.01,2.3-2.26,2.3c-1.25,0-2.26-1.03-2.26-2.3c0-1.27,1.01-2.3,2.26-2.3
				C668.09,144.52,669.1,145.55,669.1,146.82z"/>
			<path class="st29" d="M667.98,146.82c0,0.64-0.51,1.16-1.14,1.16c-0.63,0-1.14-0.52-1.14-1.16c0-0.64,0.51-1.16,1.14-1.16
				C667.47,145.66,667.98,146.18,667.98,146.82z"/>
		</g>
	</g>
	<g>
		<path class="st34" d="M732.38,395.91h-19.23v-75.39h19.23c8.17,0,14.82,6.71,14.82,14.96v45.46
			C747.21,389.2,740.56,395.91,732.38,395.91z M714.73,394.32h17.65c7.3,0,13.25-6,13.25-13.37v-45.46
			c0-7.37-5.94-13.37-13.25-13.37h-17.65V394.32z"/>
		<path class="st34" d="M737.12,395.91h-23.97v-59.45h23.97c8.17,0,14.82,6.71,14.82,14.96v29.52
			C751.95,389.2,745.3,395.91,737.12,395.91z M714.73,394.32h22.39c7.3,0,13.25-6,13.25-13.37v-29.52c0-7.37-5.94-13.37-13.25-13.37
			h-22.39V394.32z"/>
		<path class="st34" d="M707.4,277.62h-23.18v-1.59h23.18c7.3,0,13.25-6,13.25-13.37v-13.57c0-7.37-5.94-13.37-13.25-13.37h-23.18
			v-1.59h23.18c8.17,0,14.82,6.71,14.82,14.96v13.57C722.23,270.9,715.58,277.62,707.4,277.62z"/>
		<path class="st34" d="M572.75,277.62h-23.18v-1.59h23.18c7.3,0,13.24-6,13.24-13.37v-13.57c0-7.37-5.94-13.37-13.24-13.37h-23.18
			v-1.59h23.18c8.17,0,14.82,6.71,14.82,14.96v13.57C587.57,270.9,580.92,277.62,572.75,277.62z"/>
		<g>
			<path class="st34" d="M640.53,395.91h-15.75c-25.18,0-45.66-20.68-45.66-46.09v-72.66h1.58v72.66c0,24.54,19.78,44.5,44.08,44.5
				h15.75V395.91z"/>
			<path class="st34" d="M633.75,395.91h-15.75c-25.18,0-45.66-20.68-45.66-46.09v-72.66h1.58v72.66c0,24.54,19.78,44.5,44.08,44.5
				h15.75V395.91z"/>
			<path class="st34" d="M643.53,395.91h-15.75c-25.18,0-45.66-20.68-45.66-46.09v-72.66h1.58v72.66c0,24.54,19.78,44.5,44.08,44.5
				h15.75V395.91z"/>
			<path class="st34" d="M621.07,395.91h-15.75c-25.18,0-45.66-20.68-45.66-46.09v-72.66h1.58v72.66c0,24.54,19.78,44.5,44.08,44.5
				h15.75V395.91z"/>
		</g>
		<g>
			<g>
				
					<rect x="517.43" y="159.58" transform="matrix(-1.836970e-16 1 -1 -1.836970e-16 767.1552 -336.3615)" class="st35" width="68.65" height="111.64"/>
				
					<rect x="515.23" y="159.58" transform="matrix(-1.836970e-16 1 -1 -1.836970e-16 764.9552 -334.1616)" class="st34" width="68.65" height="111.64"/>
				<rect x="500.17" y="187.57" class="st29" width="98.77" height="55.66"/>
				<polygon class="st30" points="500.17,243.23 500.17,187.57 598.94,187.57 				"/>
				<rect x="537.64" y="249.72" class="st35" width="29.7" height="17.07"/>
				<rect x="528.97" y="266.79" class="st36" width="47.04" height="2.64"/>
			</g>
			<g>
				
					<rect x="633.62" y="179.35" transform="matrix(-1.836970e-16 1 -1 -1.836970e-16 889.73 -437.5054)" class="st35" width="60" height="93.52"/>
				
					<rect x="631.69" y="179.35" transform="matrix(-1.836970e-16 1 -1 -1.836970e-16 887.8071 -435.5824)" class="st34" width="60" height="93.52"/>
				<rect x="620.56" y="201.79" class="st29" width="82.27" height="48.65"/>
				<polygon class="st30" points="620.56,250.44 620.56,201.79 702.83,201.79 				"/>
				<rect x="651.28" y="256.11" class="st35" width="25.96" height="11.01"/>
				<rect x="643.7" y="267.12" class="st36" width="41.11" height="2.3"/>
			</g>
			<g>
				
					<rect x="409.62" y="179.35" transform="matrix(-1.836970e-16 1 -1 -1.836970e-16 665.7342 -213.5096)" class="st35" width="60" height="93.52"/>
				
					<rect x="407.7" y="179.35" transform="matrix(-1.836970e-16 1 -1 -1.836970e-16 663.8113 -211.5867)" class="st34" width="60" height="93.52"/>
				<rect x="396.56" y="201.79" class="st29" width="82.27" height="48.65"/>
				<polygon class="st30" points="396.56,250.44 396.56,201.79 478.83,201.79 				"/>
				<rect x="427.28" y="256.11" class="st35" width="25.96" height="11.01"/>
				<rect x="419.7" y="267.12" class="st36" width="41.11" height="2.3"/>
			</g>
		</g>
		<g>
			<rect x="623.46" y="295.93" class="st37" width="65.5" height="99.99"/>
			<rect x="595.15" y="295.93" class="st38" width="45.21" height="99.99"/>
			<g>
				<path class="st36" d="M689.44,295.93h-53.89c-1.61,0-2.92-1.32-2.92-2.94l0,0c0-1.63,1.31-2.94,2.92-2.94h53.89
					c1.61,0,2.92,1.32,2.92,2.94l0,0C692.36,294.61,691.05,295.93,689.44,295.93z"/>
				<path class="st37" d="M640.03,295.93h-45.24c-1.61,0-2.92-1.32-2.92-2.94l0,0c0-1.63,1.31-2.94,2.92-2.94h45.24
					c1.61,0,2.92,1.32,2.92,2.94l0,0C642.94,294.61,641.64,295.93,640.03,295.93z"/>
			</g>
			<g>
				<g>
					<rect x="595.15" y="295.93" class="st39" width="45.21" height="0.81"/>
					<polygon class="st39" points="624.41,299.47 611.1,299.47 609.11,296.74 626.4,296.74 					"/>
				</g>
				<g>
					<rect x="595.15" y="316.22" class="st39" width="45.21" height="0.81"/>
					<polygon class="st39" points="624.41,319.76 611.1,319.76 609.11,317.03 626.4,317.03 					"/>
				</g>
				<g>
					<rect x="595.15" y="336.52" class="st39" width="45.21" height="0.81"/>
					<polygon class="st39" points="624.41,340.05 611.1,340.05 609.11,337.33 626.4,337.33 					"/>
				</g>
				<g>
					<rect x="595.15" y="356.81" class="st39" width="45.21" height="0.81"/>
					<polygon class="st39" points="624.41,360.35 611.1,360.35 609.11,357.62 626.4,357.62 					"/>
				</g>
				<g>
					<rect x="595.15" y="377.1" class="st39" width="45.21" height="0.81"/>
					<polygon class="st39" points="624.41,380.64 611.1,380.64 609.11,377.92 626.4,377.92 					"/>
				</g>
			</g>
		</g>
		<g>
			<path class="st32" d="M715.72,277.81H489.33c-2.29,0-4.15-1.88-4.15-4.19l0,0c0-2.32,1.86-4.19,4.15-4.19h226.39
				c2.29,0,4.15,1.88,4.15,4.19l0,0C719.87,275.93,718.01,277.81,715.72,277.81z"/>
			<path class="st28" d="M619.46,277.81H377.27c-2.29,0-4.15-1.88-4.15-4.19l0,0c0-2.32,1.86-4.19,4.15-4.19h242.19
				c2.29,0,4.15,1.88,4.15,4.19l0,0C623.61,275.93,621.75,277.81,619.46,277.81z"/>
			<path class="st31" d="M616.25,395.91c-0.08,0-0.16,0-0.24-0.01c-1.3-0.13-2.25-1.3-2.13-2.61l11.06-113.32
				c0.12-1.22,1.14-2.16,2.36-2.16h85.84c1.31,0,2.37,1.07,2.37,2.39v113.32c0,1.32-1.06,2.39-2.37,2.39
				c-1.31,0-2.37-1.07-2.37-2.39V282.59h-81.33l-10.85,111.16C618.49,394.99,617.46,395.91,616.25,395.91z"/>
			<path class="st32" d="M371.06,395.91c-0.08,0-0.16,0-0.24-0.01c-1.3-0.13-2.25-1.3-2.13-2.61l11.06-113.32
				c0.12-1.22,1.14-2.16,2.36-2.16h85.84c1.31,0,2.37,1.07,2.37,2.39v113.32c0,1.32-1.06,2.39-2.37,2.39s-2.37-1.07-2.37-2.39
				V282.59h-81.33l-10.85,111.16C373.29,394.99,372.26,395.91,371.06,395.91z"/>
		</g>
		<g>
			<rect x="678.84" y="315.22" class="st38" width="52.86" height="80.69"/>
			
				<rect x="676.02" y="340.19" transform="matrix(-1.836970e-16 1 -1 -1.836970e-16 1067.9492 -356.8145)" class="st39" width="72.72" height="30.75"/>
			
				<rect x="677.62" y="341.77" transform="matrix(-1.836970e-16 1 -1 -1.836970e-16 1067.9491 -356.8145)" class="st38" width="69.53" height="27.59"/>
			<rect x="656" y="315.22" class="st35" width="36.49" height="80.69"/>
			
				<rect x="637.88" y="341.27" transform="matrix(-1.836970e-16 1 -1 -1.836970e-16 1029.8088 -318.6742)" class="st37" width="72.72" height="28.59"/>
			
				<rect x="673.55" y="315.42" transform="matrix(-1.836970e-16 1 -1 -1.836970e-16 1001.1562 -347.3269)" class="st29" width="1.39" height="23"/>
			
				<rect x="673.55" y="320.65" transform="matrix(-1.836970e-16 1 -1 -1.836970e-16 1006.3936 -342.0895)" class="st29" width="1.39" height="23"/>
			<path class="st39" d="M677.76,344.41c0,1.96-1.57,3.55-3.52,3.55c-1.94,0-3.52-1.59-3.52-3.55c0-1.96,1.57-3.55,3.52-3.55
				C676.18,340.86,677.76,342.45,677.76,344.41z"/>
			<ellipse class="st29" cx="674.24" cy="344.41" rx="1.78" ry="1.79"/>
		</g>
		<g>
			<g>
				<path class="st30" d="M717.98,357.05c4.36,5.11,3.98,12.65,3.98,12.65s-7.45-0.74-11.8-5.85c-4.36-5.11-3.98-12.65-3.98-12.65
					S713.62,351.94,717.98,357.05z"/>
				<path class="st29" d="M736.02,365.29c-4.18,7.65-13.43,10.58-13.43,10.58s-2.47-9.46,1.71-17.11
					c4.18-7.65,13.43-10.58,13.43-10.58S740.2,357.64,736.02,365.29z"/>
			</g>
			<g>
				<polygon class="st32" points="732.65,395.91 715.07,395.91 713.25,372.86 734.46,372.86 				"/>
				<path class="st31" d="M735.37,372.86h-23.02c-0.55,0-1-0.45-1-1.01l0,0c0-0.56,0.45-1.01,1-1.01h23.02c0.55,0,1,0.45,1,1.01l0,0
					C736.36,372.41,735.92,372.86,735.37,372.86z"/>
			</g>
		</g>
		<g>
			<rect x="392.44" y="315.43" class="st38" width="42.28" height="80.49"/>
			
				<rect x="383.49" y="344.64" transform="matrix(-1.836970e-16 1 -1 -1.836970e-16 774.9389 -63.5996)" class="st38" width="71.56" height="22.07"/>
			<rect x="374.17" y="315.43" class="st35" width="29.18" height="80.49"/>
			
				<rect x="351.71" y="344.24" transform="matrix(-1.836970e-16 1 -1 -1.836970e-16 744.4315 -33.0922)" class="st37" width="74.11" height="22.87"/>
			<path class="st29" d="M379.56,318.61L379.56,318.61h18.39l0,0c0,1.94-1.55,3.51-3.47,3.51h-11.45
				C381.12,322.12,379.56,320.55,379.56,318.61z"/>
		</g>
		<g>
			<g>
				<defs>
					<polygon id="SVGID_00000096739865644354771540000014322916492235242431_" points="356.95,392.02 322.9,392.02 319.39,347.37 
						360.46,347.37 					"/>
				</defs>
				<clipPath id="SVGID_00000070099491429418365430000012848635700537740677_">
					<use xlink:href="#SVGID_00000096739865644354771540000014322916492235242431_"  style="overflow:visible;"/>
				</clipPath>
				<path style="clip-path:url(#SVGID_00000070099491429418365430000012848635700537740677_);fill:#193BA5;" d="M358.36,385.04
					l3.13-3.16v-1.6l-3.13-3.16l3.13-3.16v-1.6l-3.13-3.16l3.13-3.16v-1.6l-3.13-3.16l3.13-3.16v-1.6l-3.13-3.16l3.13-3.16v-1.6
					l-3.13-3.16l3.13-3.16v-1.6l-3.13-3.16l1.59-1.61h-1.58l-0.8,0.81l-0.8-0.81h-1.58l1.59,1.61l-3.13,3.16l-3.13-3.16l1.59-1.61
					h-1.58l-0.8,0.81l-0.8-0.81h-1.58l1.59,1.61l-3.13,3.16l-3.13-3.16l1.59-1.61h-1.58l-0.8,0.81l-0.8-0.81h-1.58l1.59,1.61
					l-3.13,3.16l-3.13-3.16l1.59-1.61h-1.58l-0.8,0.81l-0.8-0.81h-1.58l1.59,1.61l-3.13,3.16l-3.13-3.16l1.59-1.61h-1.58l-0.8,0.81
					l-0.8-0.81h-1.58l1.59,1.61l-3.13,3.16l-3.92-3.96v1.6l3.13,3.16l-3.13,3.16v1.6l3.13,3.16l-3.13,3.16v1.6l3.13,3.16l-3.13,3.16
					v1.6l3.13,3.16l-3.13,3.16v1.6l3.13,3.16l-3.13,3.16v1.6l3.13,3.16l-3.13,3.16v1.6l3.13,3.16l-3.13,3.16v1.6l0.04,0.04h0.93
					l0.33-0.33l-0.5-0.51l3.13-3.16l3.13,3.16l-0.5,0.51l0.33,0.33h0.93l0.04-0.04l0.04,0.04h0.93l0.33-0.33l-0.5-0.51l3.13-3.16
					l3.13,3.16l-0.5,0.51l0.33,0.33h0.93l0.04-0.04l0.04,0.04h0.93l0.33-0.33l-0.5-0.51l3.13-3.16l3.13,3.16l-0.5,0.51l0.33,0.33
					h0.93l0.04-0.04l0.04,0.04h0.93l0.33-0.33l-0.5-0.51l3.13-3.16l3.13,3.16l-0.5,0.51l0.33,0.33h0.93l0.04-0.04l0.04,0.04h0.93
					l0.33-0.33l-0.5-0.51l3.13-3.16l3.13,3.16l-0.5,0.51l0.33,0.33h0.93l0.04-0.04l0.04,0.04h0.93l0.33-0.33l-0.5-0.51l3.13-3.16
					v-1.6L358.36,385.04z M360.7,381.08l-3.13,3.16l-3.13-3.16l3.13-3.16L360.7,381.08z M346.6,357.33l3.13-3.16l3.13,3.16
					l-3.13,3.16L346.6,357.33z M352.86,365.25l-3.13,3.16l-3.13-3.16l3.13-3.16L352.86,365.25z M348.94,361.29l-3.13,3.16
					l-3.13-3.16l3.13-3.16L348.94,361.29z M345.02,365.25l-3.13,3.16l-3.13-3.16l3.13-3.16L345.02,365.25z M341.89,360.49
					l-3.13-3.16l3.13-3.16l3.13,3.16L341.89,360.49z M341.1,361.29l-3.13,3.16l-3.13-3.16l3.13-3.16L341.1,361.29z M337.18,365.25
					l-3.13,3.16l-3.13-3.16l3.13-3.16L337.18,365.25z M334.05,360.49l-3.13-3.16l3.13-3.16l3.13,3.16L334.05,360.49z M333.26,361.29
					l-3.13,3.16l-3.13-3.16l3.13-3.16L333.26,361.29z M333.26,369.21l-3.13,3.16l-3.13-3.16l3.13-3.16L333.26,369.21z M334.05,370
					l3.13,3.16l-3.13,3.16l-3.13-3.16L334.05,370z M334.84,369.21l3.13-3.16l3.13,3.16l-3.13,3.16L334.84,369.21z M341.89,370
					l3.13,3.16l-3.13,3.16l-3.13-3.16L341.89,370z M342.68,369.21l3.13-3.16l3.13,3.16l-3.13,3.16L342.68,369.21z M349.73,370
					l3.13,3.16l-3.13,3.16l-3.13-3.16L349.73,370z M350.52,369.21l3.13-3.16l3.13,3.16l-3.13,3.16L350.52,369.21z M353.65,364.45
					l-3.13-3.16l3.13-3.16l3.13,3.16L353.65,364.45z M350.52,353.38l3.13-3.16l3.13,3.16l-3.13,3.16L350.52,353.38z M349.73,352.58
					l-3.13-3.16l3.13-3.16l3.13,3.16L349.73,352.58z M348.94,353.38l-3.13,3.16l-3.13-3.16l3.13-3.16L348.94,353.38z M341.89,352.58
					l-3.13-3.16l3.13-3.16l3.13,3.16L341.89,352.58z M341.1,353.38l-3.13,3.16l-3.13-3.16l3.13-3.16L341.1,353.38z M334.05,352.58
					l-3.13-3.16l3.13-3.16l3.13,3.16L334.05,352.58z M333.26,353.38l-3.13,3.16l-3.13-3.16l3.13-3.16L333.26,353.38z M326.21,352.58
					l-3.13-3.16l3.13-3.16l3.13,3.16L326.21,352.58z M329.34,357.33l-3.13,3.16l-3.13-3.16l3.13-3.16L329.34,357.33z M329.34,365.25
					l-3.13,3.16l-3.13-3.16l3.13-3.16L329.34,365.25z M329.34,373.16l-3.13,3.16l-3.13-3.16l3.13-3.16L329.34,373.16z
					 M329.34,381.08l-3.13,3.16l-3.13-3.16l3.13-3.16L329.34,381.08z M327,377.12l3.13-3.16l3.13,3.16l-3.13,3.16L327,377.12z
					 M334.05,377.92l3.13,3.16l-3.13,3.16l-3.13-3.16L334.05,377.92z M334.84,377.12l3.13-3.16l3.13,3.16l-3.13,3.16L334.84,377.12z
					 M341.89,377.92l3.13,3.16l-3.13,3.16l-3.13-3.16L341.89,377.92z M342.68,377.12l3.13-3.16l3.13,3.16l-3.13,3.16L342.68,377.12z
					 M349.73,377.92l3.13,3.16l-3.13,3.16l-3.13-3.16L349.73,377.92z M350.52,377.12l3.13-3.16l3.13,3.16l-3.13,3.16L350.52,377.12z
					 M360.7,373.16l-3.13,3.16l-3.13-3.16l3.13-3.16L360.7,373.16z M360.7,365.25l-3.13,3.16l-3.13-3.16l3.13-3.16L360.7,365.25z
					 M360.7,357.33l-3.13,3.16l-3.13-3.16l3.13-3.16L360.7,357.33z M360.7,349.42l-3.13,3.16l-3.13-3.16l3.13-3.16L360.7,349.42z
					 M357.57,338.35l3.13,3.16l-3.13,3.16l-3.13-3.16L357.57,338.35z M353.65,342.3l3.13,3.16l-3.13,3.16l-3.13-3.16L353.65,342.3z
					 M349.73,338.35l3.13,3.16l-3.13,3.16l-3.13-3.16L349.73,338.35z M348.94,345.46l-3.13,3.16l-3.13-3.16l3.13-3.16L348.94,345.46
					z M341.89,338.35l3.13,3.16l-3.13,3.16l-3.13-3.16L341.89,338.35z M341.1,345.46l-3.13,3.16l-3.13-3.16l3.13-3.16L341.1,345.46z
					 M334.05,338.35l3.13,3.16l-3.13,3.16l-3.13-3.16L334.05,338.35z M333.26,345.46l-3.13,3.16l-3.13-3.16l3.13-3.16L333.26,345.46
					z M326.21,338.35l3.13,3.16l-3.13,3.16l-3.13-3.16L326.21,338.35z M319.16,345.46l3.13-3.16l3.13,3.16l-3.13,3.16L319.16,345.46
					z M319.16,353.38l3.13-3.16l3.13,3.16l-3.13,3.16L319.16,353.38z M319.16,361.29l3.13-3.16l3.13,3.16l-3.13,3.16L319.16,361.29z
					 M319.16,369.21l3.13-3.16l3.13,3.16l-3.13,3.16L319.16,369.21z M319.16,377.12l3.13-3.16l3.13,3.16l-3.13,3.16L319.16,377.12z
					 M319.16,385.04l3.13-3.16l3.13,3.16l-3.13,3.16L319.16,385.04z M326.21,392.15l-3.13-3.16l3.13-3.16l3.13,3.16L326.21,392.15z
					 M327,385.04l3.13-3.16l3.13,3.16l-3.13,3.16L327,385.04z M334.05,392.15l-3.13-3.16l3.13-3.16l3.13,3.16L334.05,392.15z
					 M334.84,385.04l3.13-3.16l3.13,3.16l-3.13,3.16L334.84,385.04z M341.89,392.15l-3.13-3.16l3.13-3.16l3.13,3.16L341.89,392.15z
					 M342.68,385.04l3.13-3.16l3.13,3.16l-3.13,3.16L342.68,385.04z M349.73,392.15l-3.13-3.16l3.13-3.16l3.13,3.16L349.73,392.15z
					 M350.52,385.04l3.13-3.16l3.13,3.16l-3.13,3.16L350.52,385.04z M357.57,392.15l-3.13-3.16l3.13-3.16l3.13,3.16L357.57,392.15z"
					/>
			</g>
			<g>
				<path class="st37" d="M362.22,347.37h-44.58c-1.07,0-1.93-0.87-1.93-1.95l0,0c0-1.08,0.86-1.95,1.93-1.95h44.58
					c1.07,0,1.93,0.87,1.93,1.95l0,0C364.15,346.5,363.28,347.37,362.22,347.37z"/>
				<path class="st37" d="M357.49,395.91h-35.13c-1.07,0-1.93-0.87-1.93-1.95l0,0c0-1.08,0.86-1.95,1.93-1.95h35.13
					c1.07,0,1.93,0.87,1.93,1.95l0,0C359.42,395.04,358.56,395.91,357.49,395.91z"/>
			</g>
		</g>
	</g>
	<g>
		<g>
			<g>
				<g>
					<path class="st41" d="M548.44,381.17h-5.21c-4.05,0-7.75-2.27-9.57-5.87l0,0h-9.18l2.97,15.1h30.25
						C557.7,385.3,553.56,381.17,548.44,381.17z"/>
					<rect x="527.46" y="390.4" class="st30" width="30.25" height="1.64"/>
				</g>
				<g>
					<path class="st32" d="M508.33,335.69h-27.52c-8.51,0-15.4-6.9-15.4-15.4v0c0-8.51,6.9-15.4,15.4-15.4h27.52
						c8.51,0,15.4,6.9,15.4,15.4v0C523.73,328.79,516.83,335.69,508.33,335.69z"/>
					<path class="st28" d="M522.97,315.23c-2.32-6.35-9.37-9.62-15.74-7.31l0,0c-6.37,2.31-9.65,9.33-7.33,15.68l22.92,61.63
						l19.43-7.05L522.97,315.23z"/>
				</g>
			</g>
			<g>
				<polygon class="st21" points="495.94,242.12 481.42,245.65 476,223.48 490.51,219.95 				"/>
				<g>
					<path class="st21" d="M491.11,233.02l-2.99,0.73c-7.72,1.88-15.51-2.84-17.39-10.54l-2.72-11.13
						c-1.88-7.7,2.85-15.45,10.58-17.33l2.99-0.73c7.72-1.88,15.51,2.84,17.39,10.54l2.72,11.13
						C503.57,223.38,498.83,231.14,491.11,233.02z"/>
					<g>
						<path class="st28" d="M498.64,185.23c-2.57-1.98-6.95,2.26-12.2,4.52c-5.26,2.26-16.9-0.47-20.44,5.73
							c-1.19,2.08,0.23,4.97,0.23,4.97s-5.36,2.63-5.37,4.87c-0.01,3.39,1.77,8.78,3.54,11.39c2.94,4.34,14.59,11.18,20.25,11.18
							c9.04,0,1.21-19.71,3.39-24.19c1.57-3.21,4.32-3.71,7.15-5.17c2.19-1.13,4.49-3.19,5.14-6.3
							C501.12,188.47,500.17,186.41,498.64,185.23z"/>
						<path class="st28" d="M463.22,214.57l6.46,14.77c1.13,2.27,3.52,3.62,6.05,3.44l9.46-1.21c3.53-0.26,6-3.58,5.24-7.02
							l-2.49-11.11L463.22,214.57z"/>
					</g>
					<path class="st21" d="M490.13,215.01c0.92,2.76-0.24,5.63-2.59,6.41c-2.35,0.77-5-0.84-5.92-3.6
						c-0.92-2.76,0.24-5.63,2.59-6.41C486.56,210.63,489.21,212.24,490.13,215.01z"/>
				</g>
			</g>
			<g>
				<path class="st21" d="M567.4,262.77c-4.9,0-8.87,3.96-8.87,8.84h17.74C576.27,266.73,572.3,262.77,567.4,262.77z"/>
				<rect x="558.53" y="271.61" class="st29" width="19.35" height="2.22"/>
			</g>
			<g>
				<g>
					<path class="st29" d="M585.22,381.17h-5.21c-4.05,0-7.75-2.27-9.57-5.87l0,0h-9.18l2.97,15.1h30.25
						C594.48,385.3,590.34,381.17,585.22,381.17z"/>
					<rect x="564.24" y="390.4" class="st30" width="30.25" height="1.64"/>
				</g>
				<g>
					<path class="st32" d="M545.11,335.69h-42.47c-8.51,0-15.4-6.9-15.4-15.4v0c0-8.51,6.9-15.4,15.4-15.4h42.47
						c8.51,0,15.4,6.9,15.4,15.4v0C560.51,328.79,553.61,335.69,545.11,335.69z"/>
					<path class="st32" d="M559.75,315.23c-2.32-6.35-9.37-9.62-15.74-7.31l0,0c-6.37,2.31-9.65,9.33-7.33,15.68l22.92,61.63
						l19.43-7.05L559.75,315.23z"/>
				</g>
			</g>
			<g>
				<path class="st34" d="M507.13,320.87l-3.84,0.68c-18.36,3.27-35.98-8.65-39.7-26.86l-10.63-52l38.3-4.75
					c7.5-0.93,14.47,4,16.07,11.36l16,47.81c1.11,3.18,0.51,6.71-1.59,9.35l-8.6,10.83C511.64,319.18,509.5,320.45,507.13,320.87z"
					/>
				<g>
					<path class="st34" d="M563.15,268.23L563.15,268.23c0.36,4.74-3.41,8.89-8.43,9.27l-27.34,2.13c-5.02,0.38-9.37-3.16-9.73-7.9
						v0c-0.36-4.74,3.41-8.89,8.43-9.27l27.34-2.13C558.43,259.96,562.79,263.49,563.15,268.23z"/>
					<path class="st34" d="M532,277.4L532,277.4c-3.47,3.27-9.08,2.96-12.54-0.68l-24.02-25.22c-3.46-3.64-3.45-9.24,0.02-12.51l0,0
						c3.47-3.27,9.08-2.96,12.54,0.68l24.02,25.22C535.47,268.53,535.47,274.13,532,277.4z"/>
				</g>
			</g>
			<g>
				<path class="st34" d="M495.32,228.03c-0.36,0-0.71-0.17-0.93-0.48l-7.76-9.15c-0.35-0.51-0.22-1.2,0.28-1.55
					c0.51-0.35,1.21-0.22,1.56,0.28l7.14,8.25l8.37-5.45c0.52-0.34,1.21-0.19,1.55,0.32c0.34,0.52,0.19,1.21-0.32,1.55l-9.29,6.04
					C495.74,227.97,495.53,228.03,495.32,228.03z"/>
				<g>
					<path class="st35" d="M464.59,196.63l-0.4,3.13c-0.11,0.83,0.55,1.57,1.39,1.56c3.81-0.07,13.66,0.77,14.7,10.53l5.88-2.67
						c-0.19-13.2-15.83-13.85-20.23-13.76C465.25,195.43,464.68,195.95,464.59,196.63z"/>
					<path class="st34" d="M465.32,200.07c-0.44,0.01-0.83-0.17-1.11-0.46l-0.02,0.15c-0.11,0.83,0.55,1.57,1.39,1.56
						c3.81-0.07,13.66,0.77,14.7,10.53l1.12-0.51C480.11,200.9,469.46,199.99,465.32,200.07z"/>
					<path class="st36" d="M491.93,214.06c1.23,3.7-0.69,7.66-4.29,8.85c-3.6,1.19-7.51-0.85-8.74-4.55
						c-1.23-3.7,0.69-7.66,4.29-8.85S490.7,210.36,491.93,214.06z"/>
					<path class="st34" d="M485.54,221.01c-2.03,0-3.85-1.35-4.51-3.36c-0.84-2.52,0.45-5.23,2.87-6.02
						c0.45-0.15,0.92-0.22,1.39-0.22c2.03,0,3.85,1.35,4.51,3.36c0.41,1.23,0.33,2.55-0.23,3.69c-0.54,1.12-1.48,1.95-2.64,2.33
						C486.48,220.94,486.01,221.01,485.54,221.01z"/>
				</g>
			</g>
		</g>
		<g>
			<g>
				<path class="st38" d="M495.15,319.59l-0.75-5.18l0,0l-14.37-99.53h-35.01c-5.45,0-9.64,4.81-8.86,10.19l13.65,94.52
					c1.33,9.24,9.28,16.1,18.65,16.1h45.34C504.43,335.69,496.48,328.83,495.15,319.59z"/>
				<path class="st37" d="M507.26,295.33c-15.89-15.11-18.11-54.07-18.28-71.63c-0.05-4.89-4.05-8.82-8.95-8.82l0,0l14.37,99.53
					l0.75,5.18c1.33,9.24,9.28,16.1,18.65,16.1h9.02C522.81,335.69,528.06,315.11,507.26,295.33z"/>
				<path class="st36" d="M513.79,335.69h35.99c3.74,0,6.77-3.02,6.77-6.75v-3.45c0-4.3-7.78-14.36-21.38-15.33
					c-13.59-0.97-29.16,5.31-31.62,11.7C501.09,328.26,513.79,335.69,513.79,335.69z"/>
			</g>
			<g>
				<rect x="467.03" y="335.69" class="st35" width="77" height="5"/>
				<g>
					<g>
						<g>
							<ellipse class="st35" cx="478.09" cy="385.59" rx="6.47" ry="6.45"/>
							<ellipse class="st37" cx="478.09" cy="385.59" rx="3.43" ry="3.42"/>
						</g>
						<g>
							<ellipse class="st35" cx="532.97" cy="385.59" rx="6.47" ry="6.45"/>
							<ellipse class="st37" cx="532.97" cy="385.59" rx="3.43" ry="3.42"/>
						</g>
					</g>
					<g>
						<path class="st37" d="M509.03,388.88h-7c-0.84,0-1.52-0.68-1.52-1.52v-2.72c0-0.84,0.68-1.52,1.52-1.52h7
							c0.84,0,1.52,0.68,1.52,1.52v2.72C510.55,388.2,509.87,388.88,509.03,388.88z"/>
						<path class="st35" d="M506.86,392.04h-2.66c-1.39,0-2.52-1.13-2.52-2.52v-7.85c0-1.39,1.13-2.52,2.52-2.52h2.66
							c1.39,0,2.52,1.13,2.52,2.52v7.85C509.39,390.91,508.26,392.04,506.86,392.04z"/>
					</g>
					<path class="st36" d="M505.53,387.7L505.53,387.7c-1.18,0-2.13-0.95-2.13-2.12v-44.89h4.26v44.89
						C507.66,386.75,506.71,387.7,505.53,387.7z"/>
					<rect x="502.76" y="359.57" class="st38" width="5.55" height="6.22"/>
					<path class="st36" d="M534.3,383.47l-13.67-13.61c-0.47-0.46-1.1-0.72-1.76-0.72h-13.35h-13.35c-0.66,0-1.29,0.26-1.76,0.72
						l-13.67,13.61c-0.97,0.97-0.97,2.53,0,3.5c0.48,0.48,1.12,0.72,1.76,0.72c0.64,0,1.27-0.24,1.76-0.72l12.94-12.89h12.32h12.32
						l12.94,12.89c0.48,0.48,1.12,0.72,1.76,0.72c0.64,0,1.27-0.24,1.76-0.72C535.27,386.01,535.27,384.44,534.3,383.47z"/>
					<rect x="500.16" y="365.79" class="st35" width="10.75" height="3.35"/>
					<rect x="503.4" y="374.08" class="st37" width="4.26" height="2.56"/>
				</g>
			</g>
		</g>
	</g>
</g>
</svg>
