<?xml version="1.0" encoding="utf-8"?>
<!-- Generator: Adobe Illustrator 27.0.0, SVG Export Plug-In . SVG Version: 6.00 Build 0)  -->
<svg version="1.1" xmlns="http://www.w3.org/2000/svg" xmlns:xlink="http://www.w3.org/1999/xlink" x="0px" y="0px"
	 viewBox="0 0 750 500" style="enable-background:new 0 0 750 500;" xml:space="preserve">
<style type="text/css">
	.st0{fill:#1F1E69;}
	.st1{opacity:0.8;fill:url(#SVGID_1_);}
	.st2{opacity:0.1;fill:#42E8E0;}
	.st3{fill:#42E8E0;}
	.st4{opacity:0.11;}
	.st5{fill:url(#SVGID_00000113346841511674464790000007113502615514280365_);}
	.st6{fill:url(#SVGID_00000107577582251260494370000014791205849200154505_);}
	.st7{fill:url(#SVGID_00000000935911355497140900000012867224949237525394_);}
	.st8{fill:url(#SVGID_00000099638166096632052180000006801557936691392143_);}
	.st9{opacity:0.5;fill:url(#SVGID_00000087382100004806531770000018098629026093598880_);}
	.st10{fill:url(#SVGID_00000034056802537406455070000017358269506907097530_);}
	.st11{fill:url(#SVGID_00000062873376591675925380000000236938570497713549_);}
	.st12{opacity:0.7;fill:#42E8E0;}
	.st13{opacity:0.3;}
	.st14{fill:url(#SVGID_00000108310060799164835920000017414185671407409581_);}
	.st15{opacity:0.3;fill:#0F054C;}
	.st16{fill:url(#SVGID_00000054254435254054543650000012915214152005105312_);}
	.st17{fill:#0F054C;}
	.st18{opacity:0.4;fill:#42E8E0;}
	.st19{fill:url(#SVGID_00000048498105177808009660000014026739146524596109_);}
	.st20{fill:url(#SVGID_00000109016588641032432540000012066216258437252775_);}
	.st21{fill:#FFFFFF;}
	.st22{opacity:0.3;fill:#7945DC;}
	.st23{opacity:0.2;fill:#7945DC;}
	.st24{opacity:0.6;fill:none;stroke:#7945DC;stroke-miterlimit:10;}
	.st25{fill:none;stroke:#70DBC8;stroke-miterlimit:10;}
	.st26{opacity:0.3;fill:none;stroke:#7945DC;stroke-miterlimit:10;}
	.st27{opacity:0.6;}
	.st28{fill:#7945DC;}
	.st29{fill:#70DBC8;}
	.st30{fill:#9EF3D2;}
	.st31{fill:#A28FFF;}
	.st32{fill:#9071F4;}
	.st33{fill:#582EBF;}
	.st34{fill:#1E0049;}
	.st35{fill:#193BA5;}
	.st36{fill:#347FF4;}
	.st37{fill:#3467DB;}
	.st38{fill:#2343BC;}
	.st39{fill:#1E308B;}
	.st40{clip-path:url(#SVGID_00000116917228707927467800000009266722265054177205_);fill:#193BA5;}
	.st41{fill:#5BCFC3;}
</style>
<g id="BACKGROUND">
	<rect x="0.14" y="-1.29" class="st0" width="749.86" height="501.29"/>
	
		<radialGradient id="SVGID_1_" cx="-3681.2153" cy="-38.4956" r="439.3419" gradientTransform="matrix(-1.2498 0 0 1.5396 -3834.7148 87.535)" gradientUnits="userSpaceOnUse">
		<stop  offset="0" style="stop-color:#FF2C9C"/>
		<stop  offset="0.0301" style="stop-color:#F62F9F"/>
		<stop  offset="0.2023" style="stop-color:#C63EB0"/>
		<stop  offset="0.3737" style="stop-color:#9E4BBE"/>
		<stop  offset="0.5413" style="stop-color:#7F54C9"/>
		<stop  offset="0.7039" style="stop-color:#695BD1"/>
		<stop  offset="0.8594" style="stop-color:#5C60D5"/>
		<stop  offset="1" style="stop-color:#5761D7"/>
	</radialGradient>
	<path class="st1" d="M728.92-54.67c-1.55-1.1-4.06-1.1-5.61,0c-1.16,0.83-1.45,2.04-0.87,3.06l-86.89,61.8l0,78.01l-21.17,15.05
		l0,84.85l-72.51,51.57l-11.3-8.04l55.91-39.77l0-46.51l-0.22-0.16l-63.57-45.21V84.22l35.95-25.57c1.55,0.8,3.73,0.71,5.12-0.28
		c1.55-1.1,1.55-2.89,0-3.99c-1.55-1.1-4.06-1.1-5.61,0c-1.4,0.99-1.52,2.54-0.4,3.64l-35.95,25.57v17.04l0.22,0.16L585.6,146
		l0,45.25l-42.25,30.05l0-19.38l19.37-13.77c1.55,0.8,3.73,0.71,5.12-0.28c1.55-1.1,1.55-2.89,0-3.99c-1.55-1.1-4.06-1.1-5.61,0
		c-1.4,0.99-1.52,2.54-0.4,3.64l-19.37,13.78l0,20.64l-12.78,9.09l-15.11-10.75l0-33.75l28.5-20.27l0-23.33l-0.22-0.16l-60-42.67
		c1.12-1.1,1-2.65-0.4-3.64c-1.55-1.1-4.06-1.1-5.61,0c-1.55,1.1-1.55,2.89,0,3.99c1.4,0.99,3.57,1.08,5.12,0.28l60.22,42.83
		l0,22.07l-27.61,19.64l0-23.26l-0.22-0.16l-36.71-26.11c1.12-1.1,1-2.65-0.4-3.64c-1.55-1.1-4.06-1.1-5.61,0
		c-1.55,1.1-1.55,2.89,0,3.99c1.4,0.99,3.57,1.08,5.12,0.28l36.93,26.26l0,57.01l-10.61-7.55l-17.49,12.44l-15.84-11.26l0-27.37
		l-0.22-0.16l-41.87-29.78l0-25.8c0.86-0.07,1.7-0.33,2.36-0.8c1.55-1.1,1.55-2.89,0-3.99c-1.55-1.1-4.06-1.1-5.61,0
		c-1.55,1.1-1.55,2.89,0,3.99c0.66,0.47,1.5,0.73,2.36,0.8l0,26.43l0.22,0.16l41.87,29.78l0,26.11l-68.14-48.47l0-51.37l36.96-26.28
		l33.92,0l0.1-0.07l58.2-41.39c1.55,0.8,3.73,0.71,5.12-0.28c1.55-1.1,1.55-2.89,0-3.99c-1.55-1.1-4.06-1.1-5.61,0
		c-1.4,0.99-1.52,2.54-0.4,3.64l-57.65,41l-32.14,0L546.13,9.37c1.55,0.8,3.73,0.71,5.12-0.28c1.55-1.1,1.55-2.89,0-3.99
		c-1.55-1.1-4.06-1.1-5.61,0c-1.4,0.99-1.52,2.54-0.4,3.64L399.83,112.16l0,52.64l0.22,0.16l84.65,60.2l-17.04,12.12L323.14,134.49
		l0-61.33L322.92,73l-49.15-34.95c1.12-1.1,1-2.65-0.4-3.64c-1.55-1.1-4.06-1.1-5.61,0c-1.55,1.1-1.55,2.89,0,3.99
		c1.4,0.99,3.57,1.08,5.12,0.28l49.37,35.11l0,61.33l0.22,0.16l144.3,102.63l-16.22,11.54L307.63,147.79l-85.23,0l-53.27-37.89
		l0-58.22c0.56-0.13,1.09-0.35,1.54-0.67c1.55-1.1,1.55-2.89,0-3.99c-1.55-1.1-4.06-1.1-5.61,0c-1.55,1.1-1.55,2.89,0,3.99
		c0.87,0.62,2.05,0.88,3.18,0.8l0,58.72l0.22,0.16l53.7,38.19l85.23,0l120.65,85.81l-24.27,0l-41.18-29.29h-31.72l-0.1,0.07
		l-43.99,31.29c-1.55-0.8-3.73-0.71-5.12,0.28c-1.55,1.1-1.55,2.89,0,3.99c1.55,1.1,4.06,1.1,5.61,0c1.4-0.99,1.52-2.54,0.4-3.64
		l43.44-30.9h31.24l41.18,29.29l26.04,0l20.08,14.28l-43.29,30.79l-12.31-8.76v-22.98l-31.27-22.24c1.12-1.1,1-2.65-0.4-3.64
		c-1.55-1.1-4.06-1.1-5.61,0c-1.55,1.1-1.55,2.89,0,3.99c1.4,0.99,3.57,1.08,5.12,0.28l31.27,22.24v21.72l-33.35-23.72h-15.79
		l-0.1,0.07l-18.83,13.39c-1.55-0.8-3.73-0.71-5.12,0.28c-1.55,1.1-1.55,2.89,0,3.99c1.55,1.1,4.06,1.1,5.61,0
		c1.4-0.99,1.52-2.54,0.4-3.64l18.28-13h15.32l45.9,32.65l-8.34,5.93l26.61,18.93l-12.46,8.86h-18.84l-13.48-9.59
		c1.07-1.1,0.93-2.62-0.45-3.6c-1.55-1.1-4.06-1.1-5.61,0c-1.55,1.1-1.55,2.89,0,3.99c1.42,1.01,3.63,1.08,5.18,0.25l14.12,10.04
		h17.54l-31.78,22.6l-74.76-53.17l-53.8,0l-0.1,0.07l-30.29,21.54c-1.55-0.8-3.73-0.71-5.12,0.28c-1.55,1.1-1.55,2.89,0,3.99
		c1.55,1.1,4.06,1.1,5.61,0c1.4-0.99,1.52-2.54,0.4-3.64l29.74-21.15l53.32,0l57.66,41.01h-24.68l-24.13-17.16
		c1.12-1.1,1-2.65-0.4-3.64c-1.55-1.1-4.06-1.1-5.61,0c-1.55,1.1-1.55,2.89,0,3.99c1.4,0.99,3.57,1.08,5.12,0.28l24.78,17.62h26.46
		l14.91,10.61l-37.96,27l-121.31,0l-94.24-67.03c1.12-1.1,1-2.65-0.4-3.64c-1.55-1.1-4.06-1.1-5.61,0c-1.55,1.1-1.55,2.89,0,3.99
		c1.4,0.99,3.57,1.08,5.12,0.28l94.89,67.49l120.01,0l-15.06,10.71l-89.8,0l-0.1,0.07l-44.28,31.5c-1.55-0.8-3.73-0.71-5.12,0.28
		c-1.55,1.1-1.55,2.89,0,3.99c1.55,1.1,4.06,1.1,5.61,0c1.4-0.99,1.52-2.54,0.4-3.64l43.74-31.11l89.8,0l0.1-0.07l101.76-72.38
		l11.3,8.04l-106.99,76.09h-78.24l-0.1,0.07l-94.51,67.22l-130.93,0l-25.31-18v1.26l25.07,17.83l131.41,0l0.1-0.07l59.31-42.18
		l0,24.97l-39.09,27.81c-1.55-0.8-3.73-0.71-5.12,0.28c-1.55,1.1-1.55,2.89,0,3.99c1.55,1.1,4.06,1.1,5.61,0
		c1.4-0.99,1.52-2.54,0.4-3.64l39.09-27.81l0-26.09h-0.2l34.52-24.55h78.24l0.1-0.07l107.54-76.48l12.83,9.13L241,473.19l0,26.81
		h0.89l0-26.18l208.66-148.4l15.86,11.28l-107.63,76.55l0,13.69l-19.08,13.57v31.48l-37.01,26.32c-1.55-0.8-3.73-0.71-5.12,0.28
		c-0.57,0.4-0.92,0.9-1.07,1.42h7.74c-0.11-0.38-0.32-0.74-0.65-1.07l37.01-26.32v-31.48l18.19-12.94l0,50.41l10.74,7.64L350.16,500
		h1.78l18.46-13.13L388.86,500h1.78l-30.98-22.03l0-64.09l107.63-76.55l14.44,10.27l-76.17,54.17c-1.55-0.8-3.73-0.71-5.12,0.28
		c-1.55,1.1-1.55,2.89,0,3.99c1.55,1.1,4.06,1.1,5.61,0c1.4-0.99,1.52-2.54,0.4-3.64l76.17-54.17l13.94,9.91l-91.11,64.8h-24.76
		c-0.15-0.53-0.51-1.04-1.09-1.45c-1.55-1.1-4.06-1.1-5.61,0c-1.55,1.1-1.55,2.89,0,3.99c1.55,1.1,4.06,1.1,5.61,0
		c0.58-0.41,0.94-0.92,1.09-1.45h25l0.1-0.07l91.66-65.19l5.63,4l4.33-3.08l21.83,15.53l0,21.61l-18.04,12.83v-0.06h-28.3l-0.1,0.07
		l-31.06,22.09c-1.55-0.8-3.73-0.71-5.12,0.28c-1.55,1.1-1.55,2.89,0,3.99c1.55,1.1,4.06,1.1,5.61,0c1.4-0.99,1.52-2.54,0.4-3.64
		l30.51-21.7h26.61l-53.02,37.71c-1.56-0.86-3.8-0.8-5.23,0.22c-1.55,1.1-1.55,2.89,0,3.99c1.55,1.1,4.06,1.1,5.61,0
		c1.36-0.97,1.52-2.47,0.49-3.57L523.72,402l0,10.4l-39.35,27.99v19.76l-32.04,22.78c-1.55-0.8-3.73-0.71-5.12,0.28
		c-1.55,1.1-1.55,2.89,0,3.99c1.55,1.1,4.06,1.1,5.61,0c1.4-0.99,1.52-2.54,0.4-3.64l32.04-22.78v-19.76l39.35-27.99l0-11.66
		l5.51-3.92l0-22.87l-21.83-15.53l14.35-10.2l44.92,31.95l0,36.32l-30.5,21.69c-1.56-0.86-3.8-0.8-5.23,0.22
		c-1.55,1.1-1.55,2.89,0,3.99c1.55,1.1,4.06,1.1,5.61,0c1.36-0.97,1.52-2.47,0.49-3.57l29.63-21.08l0,29.34l-23.41,16.65l0,35.62
		h0.89l0-34.99l22.52-16.02l0,51.01h0.89l0-119.83l-44.92-31.95l16.11-11.46l58.71,41.76l0,99.45l28.22,20.07l0,1.96h0.89v-2.59
		l-28.22-20.07l0-99.45l-58.71-41.76l11.94-8.49l79.24,56.35l0,84.85L675.5,500h1.78l-44.69-31.79l0-84.85l-79.24-56.35l19.35-13.76
		l131.83,93.76l0,42.22l45.18,32.13v-1.26l-44.29-31.5l0-42.22l-74.15-52.74h58.64l59.8,42.53v-1.26l-59.56-42.36h-60.42
		l-56.14-39.93l22.49-16l48.26,34.32l77.49,0l27.89,19.84v-1.26l-6.11-4.35l6.11,0v-1.09l-7.65,0l-20-14.22l-77.49,0l-13.5-9.6
		h32.94l0.1-0.07l16.52-11.75l68.84,0l0.23,0.16v-1.26l-67.53,0l18.6-13.23c1.55,0.8,3.73,0.71,5.12-0.28c1.55-1.1,1.55-2.89,0-3.99
		c-1.55-1.1-4.06-1.1-5.61,0c-1.4,0.99-1.52,2.54-0.4,3.64l-36.12,25.69h-34.24l-32.57-23.16l12.03-8.56l-7.74-5.51h22.51
		l29.42,20.93c-1.12,1.1-1,2.65,0.4,3.64c1.55,1.1,4.06,1.1,5.61,0c1.55-1.1,1.55-2.89,0-3.99c-1.4-0.99-3.57-1.08-5.12-0.28
		L624,280.82h-24.29l-16.47-11.71l10.13-7.2h17.96l15.79-11.23h11.79l26.62,18.93c-1.19,1.11-1.1,2.69,0.33,3.71
		c1.55,1.1,4.06,1.1,5.61,0c1.55-1.1,1.55-2.89,0-3.99c-1.37-0.98-3.49-1.08-5.04-0.33l-27.28-19.4H626.9l-15.79,11.23h-16.19
		l32.38-23.03h17.48l36.44,25.92l68.5,0v-1.09l-68.26,0l-36.44-25.92h-17.96l-0.1,0.07l-44.59,31.71l-11.7-8.32l50.39-35.84l35.54,0
		l29.32,20.85l63.81,0v-1.09l-63.57,0l-27.78-19.76l91.35,0v-1.09l-128.9,0l-0.1,0.07l-50.93,36.22l-13.29-9.45l70.26-49.97
		l122.97,0v-1.09l-89.61,0l89.61-63.73v-1.26l-91.39,65l-30.94,0l66.62-47.38v-10.44l31.88-22.67c1.55,0.8,3.73,0.71,5.12-0.28
		c1.55-1.1,1.55-2.89,0-3.99c-1.55-1.1-4.06-1.1-5.61,0c-1.4,0.99-1.52,2.54-0.4,3.64l-17.36,12.34l0-28.62l42.07-29.92v-1.26
		l-42.96,30.56l0,29.88l-13.63,9.69V151l-67.16,47.77l0.22,0.48l-70.59,50.2l-12.83-9.13l72.51-51.57l0-84.85L749.71,8.28V7.01
		L636.44,87.57l0-76.75l86.69-61.66c0.06,0.05,0.11,0.11,0.18,0.15c1.55,1.1,4.06,1.1,5.61,0
		C730.47-51.78,730.47-53.56,728.92-54.67z M607.22,287.43L503.07,361.5l-104.15-74.07l104.15-74.08L607.22,287.43z"/>
	<path class="st2" d="M602.76-3.13L583.2,8.96l0,38.96l-173.73,107.4l-13.2-8.16l89.62-55.4l0-9.9l15.89-9.82l0-22.78l30.81-19.05
		c1.29,0.58,3.1,0.51,4.27-0.21c1.29-0.8,1.29-2.09,0-2.89c-1.29-0.8-3.38-0.8-4.67,0c-1.16,0.72-1.27,1.84-0.33,2.64l-30.81,19.05
		l0,22.78l-15.15,9.36l0-36.48l-0.18-0.11l-8.76-5.41l52.53-32.48l0-36.52l37.32-23.07c1.29,0.58,3.1,0.51,4.27-0.21
		c1.29-0.8,1.29-2.09,0-2.89c-1.29-0.8-3.38-0.8-4.67,0c-1.16,0.72-1.27,1.84-0.33,2.64l-37.32,23.07l0,36.52L476.2,38.47
		l-85.41-52.8l0-40.86c0.72-0.05,1.42-0.24,1.97-0.58c1.29-0.8,1.29-2.09,0-2.89c-1.29-0.8-3.38-0.8-4.67,0
		c-1.29,0.8-1.29,2.09,0,2.89c0.55,0.34,1.25,0.53,1.97,0.58l0,41.31l0.19,0.11L441.61,18l-37.44,0L373.9-0.71
		c0.93-0.8,0.83-1.92-0.33-2.64c-1.29-0.8-3.38-0.8-4.67,0c-1.29,0.8-1.29,2.09,0,2.89c1.16,0.72,2.97,0.78,4.27,0.21l30.81,19.05
		l38.9,0v-0.01l42.27,26.13l0,46.38l-89.62,55.4l-12.02-7.43l63.42-39.21c1.29,0.58,3.1,0.51,4.27-0.21c1.29-0.8,1.29-2.09,0-2.89
		c-1.29-0.8-3.38-0.8-4.67,0c-1.16,0.72-1.27,1.84-0.33,2.64l-63.42,39.21l-11.6-7.17l75.86-46.9l20.62,0
		c0.12,0.38,0.42,0.75,0.9,1.05c1.29,0.8,3.38,0.8,4.67,0c1.29-0.8,1.29-2.09,0-2.89c-1.29-0.8-3.38-0.8-4.67,0
		c-0.48,0.3-0.78,0.66-0.9,1.05l-20.82,0L446.74,84l-76.32,47.18l-4.68-2.89l-0.18,0.11l-3.42,2.11l-18.18-11.24l0-15.64l15.02-9.28
		v0.04l23.56,0l25.94-16.04c1.29,0.58,3.1,0.51,4.27-0.21c1.29-0.8,1.29-2.09,0-2.89c-1.29-0.8-3.38-0.8-4.67,0
		c-1.16,0.72-1.27,1.84-0.33,2.64l-25.4,15.7l-22.15,0l44.14-27.29c1.3,0.63,3.17,0.58,4.36-0.16c1.29-0.8,1.29-2.09,0-2.89
		c-1.29-0.8-3.38-0.8-4.67,0c-1.13,0.7-1.27,1.79-0.41,2.58l-55.06,34.04v-7.53l32.76-20.25v-14.3l26.67-16.49
		c1.29,0.58,3.1,0.51,4.27-0.21c1.29-0.8,1.29-2.09,0-2.89c-1.29-0.8-3.38-0.8-4.67,0c-1.16,0.72-1.27,1.84-0.33,2.64l-26.67,16.49
		v14.3l-32.76,20.25v8.44l-4.59,2.84l0,16.55l18.17,11.24l-11.94,7.38l-37.4-23.12l0-26.28l25.4-15.7c1.3,0.63,3.17,0.58,4.36-0.16
		c1.29-0.8,1.29-2.09,0-2.89c-1.29-0.8-3.38-0.8-4.67,0c-1.13,0.7-1.27,1.79-0.41,2.58l-24.67,15.25l0-21.23l19.49-12.05l0-39.94
		c0.72-0.05,1.42-0.24,1.97-0.58c1.29-0.8,1.29-2.09,0-2.89c-1.29-0.8-3.38-0.8-4.67,0c-1.29,0.8-1.29,2.09,0,2.89
		c0.55,0.34,1.25,0.53,1.97,0.58l0,39.49l-18.75,11.59l0-70.43h-0.74l0,120.24l37.4,23.12l-13.41,8.29l-48.88-30.22l0-71.97
		l-23.5-14.53l0-27.07L242.18-9.51c0.94-0.8,0.83-1.92-0.33-2.64c-1.29-0.8-3.38-0.8-4.67,0c-1.29,0.8-1.29,2.09,0,2.89
		c1.16,0.72,2.97,0.78,4.27,0.21l20.75,12.83l0,27.07l23.5,14.53l0,71.97l48.88,30.22l-9.94,6.15l-65.97-40.79l0-61.41l-0.19-0.11
		l-58.4-36.1c0.94-0.8,0.83-1.92-0.33-2.64c-1.29-0.8-3.38-0.8-4.67,0c-1.29,0.8-1.29,2.09,0,2.89c1.16,0.72,2.97,0.78,4.27,0.21
		l58.58,36.21l0,61.41l0.19,0.11l65.78,40.67l-16.11,9.96L198.01,96.27V65.71l-0.19-0.11L105.93,8.79c0.94-0.8,0.83-1.92-0.33-2.64
		c-1.29-0.8-3.38-0.8-4.67,0c-1.29,0.8-1.29,2.09,0,2.89c1.16,0.72,2.97,0.78,4.27,0.21l92.08,56.92v30.56l0.19,0.11l61.55,38.05
		l-48.82,0l-56.52-34.94c0.94-0.8,0.83-1.92-0.33-2.64c-1.29-0.8-3.38-0.8-4.67,0c-1.29,0.8-1.29,2.09,0,2.89
		c1.16,0.72,2.97,0.78,4.27,0.21l57.06,35.28l50.3,0l46.74,28.9l-18.72,11.58l-40.18-24.84h-64.51l-73.38-45.36l-40.71,0L52.94,95.7
		c0.94-0.8,0.83-1.92-0.33-2.64c-1.29-0.8-3.38-0.8-4.67,0c-1.29,0.8-1.29,2.09,0,2.89c1.16,0.72,2.97,0.78,4.27,0.21l17.14,10.59
		l40.71,0l55.45,34.28H117.6l-23.06-14.26c0.94-0.8,0.83-1.92-0.33-2.64c-1.29-0.8-3.38-0.8-4.67,0c-1.29,0.8-1.29,2.09,0,2.89
		c1.16,0.72,2.97,0.78,4.26,0.21l23.61,14.59h49.37l16.65,10.29h64.51l11.24,6.95h-27.43l-0.09,0.05l-13.76,8.51l-57.32,0l-16.17-10
		h-32.42c-0.12-0.38-0.42-0.75-0.9-1.05c-1.29-0.8-3.38-0.8-4.67,0c-1.29,0.8-1.29,2.09,0,2.89s3.38,0.8,4.67,0
		c0.48-0.3,0.78-0.66,0.9-1.05h32.22l16.17,10l56.24,0l-15.49,9.58c-1.29-0.58-3.1-0.51-4.27,0.21c-1.29,0.8-1.29,2.09,0,2.89
		c1.29,0.8,3.38,0.8,4.67,0c1.16-0.72,1.27-1.84,0.33-2.64l30.07-18.59h28.51l27.11,16.76l-10.02,6.19l0.56,0.34l5.89,3.64l-18.74,0
		l-24.5-15.15c0.93-0.8,0.83-1.92-0.33-2.64c-1.29-0.8-3.38-0.8-4.67,0c-1.29,0.8-1.29,2.09,0,2.89c1.16,0.72,2.97,0.78,4.26,0.21
		l25.04,15.48l20.22,0l13.71,8.48l-8.43,5.21H275.6l-0.09,0.05l-13.06,8.08h-9.81l-22.16-13.7c0.99-0.8,0.91-1.95-0.27-2.68
		c-1.29-0.8-3.38-0.8-4.67,0c-1.29,0.8-1.29,2.09,0,2.89c1.14,0.71,2.91,0.78,4.19,0.24l22.72,14.04h10.21l0.09-0.05l13.06-8.08
		h13.48l-26.95,16.66h-14.55l-30.34-18.76h-91.49L69.18,164.9c0.98-0.8,0.9-1.94-0.29-2.67c-1.29-0.8-3.38-0.8-4.67,0
		c-1.29,0.8-1.29,2.09,0,2.89c1.15,0.71,2.92,0.78,4.21,0.24l57.3,35.42h91.49l30.34,18.76h14.95l0.09-0.05l37.13-22.95l9.74,6.02
		l-41.95,25.94h-29.59l-24.41-15.09l-62.65,0c-0.12-0.38-0.42-0.75-0.9-1.05c-1.29-0.8-3.38-0.8-4.67,0s-1.29,2.09,0,2.89
		c1.29,0.8,3.38,0.8,4.67,0c0.48-0.3,0.78-0.66,0.9-1.05l62.45,0l23.13,14.3h-88.28l-0.09,0.05l-84.13,52.01
		c-1.29-0.58-3.1-0.51-4.27,0.21c-1.29,0.8-1.29,2.09,0,2.89c1.29,0.8,3.38,0.8,4.67,0c1.16-0.72,1.27-1.84,0.33-2.64l83.67-51.73
		h119.35l0.09-0.05L310.21,203l11.07,6.84l-58.5,36.17H159.77l-0.09,0.05l-90.2,55.76l-105.1,0l-61.29-37.89
		c0.93-0.8,0.83-1.92-0.33-2.64c-1.29-0.8-3.38-0.8-4.67,0c-1.29,0.8-1.29,2.09,0,2.89c1.16,0.72,2.97,0.78,4.27,0.21l61.83,38.23
		l105.49,0l0.09-0.05l90.2-55.76H235l-110.17,68.11l0,17.93l-43.95,27.17c-1.29-0.58-3.1-0.51-4.26,0.21c-1.29,0.8-1.29,2.09,0,2.89
		c1.29,0.8,3.38,0.8,4.67,0c1.16-0.72,1.27-1.84,0.33-2.64l43.95-27.17l0-17.93l110.91-68.57h25.75l-55.46,34.29v7.56l-26.54,16.41
		c-1.29-0.58-3.1-0.51-4.27,0.21c-1.29,0.8-1.29,2.09,0,2.89c1.29,0.8,3.38,0.8,4.67,0c1.16-0.72,1.27-1.84,0.33-2.64l14.45-8.93
		v20.71l-83.48,51.61c-1.29-0.58-3.1-0.51-4.27,0.21c-1.29,0.8-1.29,2.09,0,2.89c1.29,0.8,3.38,0.8,4.67,0
		c1.16-0.72,1.27-1.84,0.33-2.64l83.48-51.61v-21.62l11.35-7.02v-7.56l55.92-34.57l-0.19-0.34l58.77-36.33l10.68,6.6l-60.37,37.32
		l0,61.41l-111.04,68.64h1.48l91.93-56.83l0,55.54l-2.09,1.3h1.48l1.35-0.84l0-56.45l17.62-10.9l0-61.41l60.37-37.32l9.41,5.82
		l-46.55,28.78l0,33.66l0.19,0.11l52.93,32.72l0,11.42l-29.93,18.51c-1.29-0.58-3.1-0.51-4.26,0.21c-1.29,0.8-1.29,2.09,0,2.89
		c1.29,0.8,3.38,0.8,4.67,0c1.16-0.72,1.27-1.84,0.33-2.64l29.93-18.5l0-12.33l-0.18-0.11l-52.93-32.72l0-32.75l35.17-21.74l0,14.02
		l-16.13,9.97c-1.29-0.58-3.1-0.51-4.27,0.21c-1.29,0.8-1.29,2.09,0,2.89c1.29,0.8,3.38,0.8,4.67,0c1.16-0.72,1.27-1.84,0.33-2.64
		l16.12-9.97l0-14.94l10.64-6.58l12.58,7.78l0,24.42l-23.73,14.67v16.89l0.19,0.11l49.95,30.88c-0.93,0.8-0.83,1.92,0.33,2.64
		c1.29,0.8,3.38,0.8,4.67,0c1.29-0.8,1.29-2.09,0-2.89c-1.16-0.72-2.97-0.78-4.26-0.21l-50.14-31v-15.97l22.99-14.21l0,16.83
		l30.75,19.01c-0.93,0.8-0.83,1.92,0.33,2.64c1.29,0.8,3.38,0.8,4.67,0c1.29-0.8,1.29-2.09,0-2.89c-1.16-0.72-2.97-0.78-4.27-0.21
		l-30.75-19.01l0-41.26l8.84,5.46l0.19-0.11l14.37-8.89l13.19,8.15l0,19.81l35.05,21.67l0,18.67c-0.72,0.05-1.42,0.24-1.97,0.58
		c-1.29,0.8-1.29,2.09,0,2.89c1.29,0.8,3.38,0.8,4.67,0c1.29-0.8,1.29-2.09,0-2.89c-0.55-0.34-1.25-0.53-1.97-0.58l0-19.13
		l-35.05-21.67l0-18.89l56.73,35.07l0,37.18l-30.77,19.02h-28.24l-0.09,0.05l-48.45,29.96c-1.29-0.58-3.1-0.51-4.27,0.21
		c-1.29,0.8-1.29,2.09,0,2.89c1.29,0.8,3.38,0.8,4.67,0c1.16-0.72,1.27-1.84,0.33-2.64l48-29.67h26.76l-89.01,55.03
		c-1.29-0.58-3.1-0.51-4.27,0.21c-0.02,0.01-0.03,0.02-0.05,0.03h5.4l120.71-74.63l0-38.1l-0.18-0.11l-70.48-43.57l14.18-8.77
		l120.33,74.39l0,44.39l41.1,25.41c-0.93,0.8-0.83,1.92,0.33,2.64c1.29,0.8,3.38,0.8,4.67,0c1.29-0.8,1.29-2.09,0-2.89
		c-1.16-0.72-2.97-0.78-4.27-0.21l-41.1-25.41l0-44.39l-0.18-0.11l-120.14-74.27l13.5-8.35l118.99,73.56h70.96l3.33,2.06v-0.91
		l-3.13-1.94h-70.96l-100.45-62.1h20.2l34.28,21.19l26.41,0l0.09-0.05l36.63-22.64c1.29,0.58,3.1,0.51,4.27-0.21
		c1.29-0.8,1.29-2.09,0-2.89c-1.29-0.8-3.38-0.8-4.67,0c-1.16,0.72-1.27,1.84-0.33,2.64l-36.17,22.36l-26.01,0l-34.28-21.19h-21.68
		l-16.72-10.34l36.04-22.28l10.25,6.34l0,16.63l26.04,16.1c-0.93,0.8-0.83,1.92,0.33,2.64c1.29,0.8,3.38,0.8,4.67,0
		c1.29-0.8,1.29-2.09,0-2.89c-1.16-0.72-2.97-0.78-4.27-0.21l-26.04-16.1l0-15.72l27.77,17.17h13.15l0.09-0.05l15.68-9.69
		c1.29,0.58,3.1,0.51,4.26-0.21c1.29-0.8,1.29-2.09,0-2.89c-1.29-0.8-3.38-0.8-4.67,0c-1.16,0.72-1.27,1.84-0.33,2.64l-15.22,9.41
		h-12.75l-38.21-23.63l6.94-4.29l-0.55-0.34l-21.6-13.35l10.37-6.41h15.69l11.23,6.94c-0.89,0.8-0.77,1.9,0.37,2.61
		c1.29,0.8,3.38,0.8,4.67,0c1.29-0.8,1.29-2.09,0-2.89c-1.18-0.73-3.02-0.78-4.32-0.18l-11.76-7.27h-14.6l26.45-16.35l62.25,38.48
		h44.79l0.09-0.05l25.22-15.59c0.16,0.07,0.35,0.1,0.52,0.16v-3.65c-0.33,0.1-0.65,0.22-0.93,0.4c-1.16,0.72-1.27,1.84-0.33,2.64
		l-24.76,15.31h-44.39l-48.01-29.68l20.55,0l20.09,12.42c-0.93,0.8-0.83,1.92,0.33,2.64c1.29,0.8,3.38,0.8,4.67,0
		c1.29-0.8,1.29-2.09,0-2.89c-1.16-0.72-2.97-0.78-4.26-0.21l-20.63-12.75l-22.03,0l-12.42-7.68l31.6-19.54l100.52,0v-0.79l-99.24,0
		l12.54-7.75l74.76,0l0.09-0.05l11.85-7.33v-0.92l-12.14,7.5l-74.76,0l-0.09,0.05l-84.73,52.38l-9.41-5.81l89.08-55.07l65.15,0
		l0.09-0.05l26.81-16.58v-0.92l-27.1,16.75l-65.15,0l-0.09,0.05l-89.53,55.35l-10.68-6.6l173.73-107.4l0-38.96l18.82-11.63V-3.13z
		 M452.46,182.81l-86.72,53.61l-86.71-53.61l86.72-53.61L452.46,182.81z"/>
	<g>
		<g>
			<g>
				<g>
					<path class="st3" d="M81.88,319.53c-1.44,0-2.89-0.37-4.17-1.11l-22.38-12.87c-0.51-0.29-0.81-0.81-0.81-1.4
						c0-0.58,0.3-1.11,0.81-1.4l21.06-11.98c2.9-1.67,6.51-1.67,9.41,0.01l21.85,12.56c0.51,0.29,0.81,0.81,0.81,1.4
						c0,0.58-0.3,1.11-0.81,1.4l-21.59,12.28C84.77,319.16,83.33,319.53,81.88,319.53z M81.09,290.19c-1.51,0-3.02,0.39-4.37,1.16
						l-21.06,11.98c-0.29,0.17-0.47,0.47-0.47,0.81c0,0.34,0.18,0.65,0.47,0.82l22.38,12.87c2.37,1.37,5.31,1.37,7.67,0l21.59-12.28
						c0.29-0.17,0.47-0.47,0.47-0.81c0-0.34-0.18-0.65-0.47-0.82l-21.85-12.56h0C84.12,290.58,82.6,290.19,81.09,290.19z"/>
				</g>
				<g class="st4">
					
						<linearGradient id="SVGID_00000049910705161552964530000002999612842583408769_" gradientUnits="userSpaceOnUse" x1="54.8602" y1="291.9593" x2="108.1183" y2="291.9593">
						<stop  offset="0" style="stop-color:#5761D7"/>
						<stop  offset="0.0726" style="stop-color:#5472D8"/>
						<stop  offset="0.2791" style="stop-color:#4E9CDB"/>
						<stop  offset="0.4801" style="stop-color:#49BDDD"/>
						<stop  offset="0.6715" style="stop-color:#45D5DF"/>
						<stop  offset="0.8493" style="stop-color:#43E3E0"/>
						<stop  offset="1" style="stop-color:#42E8E0"/>
					</linearGradient>
					<path style="fill:url(#SVGID_00000049910705161552964530000002999612842583408769_);" d="M85.63,278.5
						c-2.81-1.62-6.27-1.62-9.08,0L55.5,290.48c-0.85,0.49-0.85,1.72,0,2.21l22.38,12.87c2.48,1.43,5.53,1.43,8.01,0l21.59-12.28
						c0.85-0.49,0.85-1.72,0-2.21L85.63,278.5z"/>
				</g>
				<g class="st4">
					
						<linearGradient id="SVGID_00000031194426558065796740000014218526475352536480_" gradientUnits="userSpaceOnUse" x1="54.8602" y1="282.8461" x2="108.1183" y2="282.8461">
						<stop  offset="0" style="stop-color:#5761D7"/>
						<stop  offset="0.0726" style="stop-color:#5472D8"/>
						<stop  offset="0.2791" style="stop-color:#4E9CDB"/>
						<stop  offset="0.4801" style="stop-color:#49BDDD"/>
						<stop  offset="0.6715" style="stop-color:#45D5DF"/>
						<stop  offset="0.8493" style="stop-color:#43E3E0"/>
						<stop  offset="1" style="stop-color:#42E8E0"/>
					</linearGradient>
					<path style="fill:url(#SVGID_00000031194426558065796740000014218526475352536480_);" d="M85.63,269.39
						c-2.81-1.62-6.27-1.62-9.08,0L55.5,281.36c-0.85,0.49-0.85,1.72,0,2.21l22.38,12.87c2.48,1.43,5.53,1.43,8.01,0l21.59-12.28
						c0.85-0.49,0.85-1.72,0-2.21L85.63,269.39z"/>
				</g>
				<g class="st4">
					
						<linearGradient id="SVGID_00000116933194871181527710000009971122595147909043_" gradientUnits="userSpaceOnUse" x1="54.8602" y1="273.733" x2="108.1183" y2="273.733">
						<stop  offset="0" style="stop-color:#5761D7"/>
						<stop  offset="0.0726" style="stop-color:#5472D8"/>
						<stop  offset="0.2791" style="stop-color:#4E9CDB"/>
						<stop  offset="0.4801" style="stop-color:#49BDDD"/>
						<stop  offset="0.6715" style="stop-color:#45D5DF"/>
						<stop  offset="0.8493" style="stop-color:#43E3E0"/>
						<stop  offset="1" style="stop-color:#42E8E0"/>
					</linearGradient>
					<path style="fill:url(#SVGID_00000116933194871181527710000009971122595147909043_);" d="M85.63,260.28
						c-2.81-1.62-6.27-1.62-9.08,0L55.5,272.25c-0.85,0.49-0.85,1.72,0,2.21l22.38,12.87c2.48,1.43,5.53,1.43,8.01,0l21.59-12.28
						c0.85-0.49,0.85-1.72,0-2.21L85.63,260.28z"/>
				</g>
				<g class="st4">
					
						<linearGradient id="SVGID_00000045588535080216992790000010130461339380441005_" gradientUnits="userSpaceOnUse" x1="54.8602" y1="264.6198" x2="108.1183" y2="264.6198">
						<stop  offset="0" style="stop-color:#5761D7"/>
						<stop  offset="0.0726" style="stop-color:#5472D8"/>
						<stop  offset="0.2791" style="stop-color:#4E9CDB"/>
						<stop  offset="0.4801" style="stop-color:#49BDDD"/>
						<stop  offset="0.6715" style="stop-color:#45D5DF"/>
						<stop  offset="0.8493" style="stop-color:#43E3E0"/>
						<stop  offset="1" style="stop-color:#42E8E0"/>
					</linearGradient>
					<path style="fill:url(#SVGID_00000045588535080216992790000010130461339380441005_);" d="M85.63,251.17
						c-2.81-1.62-6.27-1.62-9.08,0L55.5,263.14c-0.85,0.49-0.85,1.72,0,2.21l22.38,12.87c2.48,1.43,5.53,1.43,8.01,0l21.59-12.28
						c0.85-0.49,0.85-1.72,0-2.21L85.63,251.17z"/>
				</g>
				
					<linearGradient id="SVGID_00000153696174261011949870000014283636011190760075_" gradientUnits="userSpaceOnUse" x1="54.8602" y1="278.2895" x2="108.1183" y2="278.2895">
					<stop  offset="0" style="stop-color:#5761D7"/>
					<stop  offset="0.0726" style="stop-color:#5472D8"/>
					<stop  offset="0.2791" style="stop-color:#4E9CDB"/>
					<stop  offset="0.4801" style="stop-color:#49BDDD"/>
					<stop  offset="0.6715" style="stop-color:#45D5DF"/>
					<stop  offset="0.8493" style="stop-color:#43E3E0"/>
					<stop  offset="1" style="stop-color:#42E8E0"/>
				</linearGradient>
				<path style="opacity:0.5;fill:url(#SVGID_00000153696174261011949870000014283636011190760075_);" d="M107.48,263.73
					l-21.85-12.56c-2.81-1.62-6.27-1.62-9.08,0L55.5,263.14c-0.43,0.25-0.64,0.68-0.64,1.11v27.34c0,0.43,0.21,0.86,0.64,1.11
					l22.38,12.87c2.48,1.43,5.53,1.43,8.01,0l21.59-12.28c0.43-0.25,0.64-0.68,0.64-1.11v-27.34l0,0
					C108.12,264.4,107.91,263.97,107.48,263.73z"/>
				<g class="st4">
					
						<linearGradient id="SVGID_00000052782662975305992780000008427997035037981067_" gradientUnits="userSpaceOnUse" x1="54.8602" y1="264.6198" x2="108.1183" y2="264.6198">
						<stop  offset="0" style="stop-color:#5761D7"/>
						<stop  offset="0.0726" style="stop-color:#5472D8"/>
						<stop  offset="0.2791" style="stop-color:#4E9CDB"/>
						<stop  offset="0.4801" style="stop-color:#49BDDD"/>
						<stop  offset="0.6715" style="stop-color:#45D5DF"/>
						<stop  offset="0.8493" style="stop-color:#43E3E0"/>
						<stop  offset="1" style="stop-color:#42E8E0"/>
					</linearGradient>
					<path style="fill:url(#SVGID_00000052782662975305992780000008427997035037981067_);" d="M85.63,251.17
						c-2.81-1.62-6.27-1.62-9.08,0L55.5,263.14c-0.85,0.49-0.85,1.72,0,2.21l22.38,12.87c2.48,1.43,5.53,1.43,8.01,0l21.59-12.28
						c0.85-0.49,0.85-1.72,0-2.21L85.63,251.17z"/>
				</g>
				
					<linearGradient id="SVGID_00000065784536485811942090000007398681789281060007_" gradientUnits="userSpaceOnUse" x1="54.8609" y1="271.4533" x2="108.1175" y2="271.4533">
					<stop  offset="0" style="stop-color:#5761D7"/>
					<stop  offset="0.0726" style="stop-color:#5472D8"/>
					<stop  offset="0.2791" style="stop-color:#4E9CDB"/>
					<stop  offset="0.4801" style="stop-color:#49BDDD"/>
					<stop  offset="0.6715" style="stop-color:#45D5DF"/>
					<stop  offset="0.8493" style="stop-color:#43E3E0"/>
					<stop  offset="1" style="stop-color:#42E8E0"/>
				</linearGradient>
				<path style="fill:url(#SVGID_00000065784536485811942090000007398681789281060007_);" d="M107.48,264.68l-21.59,12.28
					c-2.48,1.43-5.53,1.43-8.01,0L55.5,264.09c-0.21-0.12-0.37-0.29-0.47-0.48c-0.33,0.58-0.17,1.37,0.47,1.74l22.38,12.87
					c2.48,1.43,5.53,1.43,8.01,0l21.59-12.28c0.64-0.37,0.8-1.16,0.47-1.74C107.85,264.39,107.69,264.56,107.48,264.68z"/>
			</g>
		</g>
		<g>
			<polygon class="st12" points="81.49,272.03 67.86,264.16 81.49,256.29 95.12,264.16 			"/>
			<path class="st3" d="M81.49,272.77c-0.13,0-0.25-0.03-0.37-0.1l-13.63-7.87c-0.23-0.13-0.37-0.38-0.37-0.64s0.14-0.51,0.37-0.64
				l13.63-7.87c0.23-0.13,0.51-0.13,0.74,0l13.63,7.87c0.23,0.13,0.37,0.38,0.37,0.64s-0.14,0.51-0.37,0.64l-13.63,7.87
				C81.74,272.74,81.62,272.77,81.49,272.77z M69.33,264.16l12.16,7.02l12.16-7.02l-12.16-7.02L69.33,264.16z"/>
		</g>
	</g>
	<g>
		<g class="st13">
			
				<linearGradient id="SVGID_00000043419944549848837140000001335891723642813079_" gradientUnits="userSpaceOnUse" x1="55.4868" y1="328.6737" x2="106.9967" y2="358.4129">
				<stop  offset="0" style="stop-color:#BCBEFF"/>
				<stop  offset="0.2271" style="stop-color:#AAADF8"/>
				<stop  offset="0.6802" style="stop-color:#7C83E5"/>
				<stop  offset="1" style="stop-color:#5761D7"/>
			</linearGradient>
			<path style="fill:url(#SVGID_00000043419944549848837140000001335891723642813079_);" d="M113.95,345.57v-5.66l-1.56-0.87
				c-0.44,2.67-3.58,4.43-6.21,4.79L88.28,354.3l-7.81,2.82l-24.92-12.86l0.58-0.33c-2.13-0.99-3.28-3.27-4.43-5.35l-1.68,1l-1,0.28
				v5.8l0,0c0,1.11,0.73,2.22,2.19,3.06l24.97,14.41c2.92,1.69,7.68,1.69,10.6,0l24.97-14.41c1.44-0.83,2.17-1.92,2.19-3.01
				C113.95,345.67,113.95,345.62,113.95,345.57L113.95,345.57z"/>
			<path class="st15" d="M106.17,343.84L88.28,354.3l-6.8,2.45v7.65c1.92,0,3.84-0.42,5.3-1.27l24.97-14.41
				c1.44-0.83,2.17-1.92,2.19-3.01c0-0.05,0-0.1,0-0.15l0,0v-5.66l-1.43-0.8h-0.15C111.88,341.75,108.78,343.48,106.17,343.84z"/>
			<g>
				
					<linearGradient id="SVGID_00000098901906890678239290000001580175177902233237_" gradientUnits="userSpaceOnUse" x1="49.028" y1="339.915" x2="113.9498" y2="339.915">
					<stop  offset="0" style="stop-color:#E9E9FD"/>
					<stop  offset="0.3601" style="stop-color:#D3D2F9"/>
					<stop  offset="0.7062" style="stop-color:#C5C4F7"/>
					<stop  offset="1" style="stop-color:#C0BFF6"/>
				</linearGradient>
				<path style="fill:url(#SVGID_00000098901906890678239290000001580175177902233237_);" d="M76.19,357.39l-24.97-14.41
					c-2.92-1.69-2.92-4.43,0-6.12l24.97-14.41c2.92-1.69,7.68-1.69,10.6,0l24.97,14.41c2.92,1.69,2.92,4.43,0,6.12l-24.97,14.41
					C83.87,359.08,79.11,359.08,76.19,357.39z"/>
			</g>
			<g class="st13">
				<path class="st17" d="M76.19,357.39l-24.97-14.41c-2.92-1.69-2.92-4.43,0-6.12l24.97-14.41c2.92-1.69,7.68-1.69,10.6,0
					l24.97,14.41c2.92,1.69,2.92,4.43,0,6.12l-24.97,14.41C83.87,359.08,79.11,359.08,76.19,357.39z"/>
			</g>
		</g>
		<g>
			<g>
				<path class="st3" d="M81.49,347.87c-1.71,0-3.41-0.38-4.71-1.12l-24.97-14.42c-1.3-0.75-2.01-1.76-2.01-2.84
					c0-1.08,0.71-2.09,2.01-2.84l24.97-14.41c2.59-1.5,6.82-1.5,9.41,0l24.97,14.42c1.3,0.75,2.01,1.76,2.01,2.84
					c0,1.09-0.71,2.1-2.01,2.84l-24.97,14.41C84.9,347.5,83.19,347.87,81.49,347.87z M81.49,311.54c-1.62,0-3.25,0.36-4.49,1.07
					l-24.97,14.41c-1.16,0.67-1.79,1.54-1.79,2.46c0,0.92,0.64,1.8,1.79,2.46L77,346.37c2.48,1.43,6.5,1.43,8.97,0l24.97-14.41
					c1.16-0.67,1.79-1.54,1.79-2.46c0-0.92-0.64-1.8-1.79-2.46l-24.97-14.42C84.74,311.9,83.11,311.54,81.49,311.54z"/>
				<g>
					<path class="st18" d="M113.95,323.96v-8.55l-1.56-0.87c-0.44,2.67-3.58,4.43-6.21,4.79l-17.89,10.46l-7.81,2.82l-24.92-12.86
						l0.58-0.33c-2.13-0.99-3.28-3.27-4.43-5.35l-1.68,1l-1,0.28v8.69l0,0c0,1.11,0.73,2.22,2.19,3.06l24.97,14.41
						c2.92,1.69,7.68,1.69,10.6,0l24.97-14.41c1.44-0.83,2.17-1.92,2.19-3.01C113.95,324.05,113.95,324,113.95,323.96L113.95,323.96
						z"/>
					<g>
						<g>
							
								<linearGradient id="SVGID_00000009591437164910218760000010308187015141373610_" gradientUnits="userSpaceOnUse" x1="55.4869" y1="299.4593" x2="106.9967" y2="329.1985">
								<stop  offset="0" style="stop-color:#BCBEFF"/>
								<stop  offset="0.2271" style="stop-color:#AAADF8"/>
								<stop  offset="0.6802" style="stop-color:#7C83E5"/>
								<stop  offset="1" style="stop-color:#5761D7"/>
							</linearGradient>
							<path style="fill:url(#SVGID_00000009591437164910218760000010308187015141373610_);" d="M113.95,316.36v-5.66l-1.56-0.87
								c-0.44,2.67-3.58,4.43-6.21,4.79l-17.89,10.46l-7.81,2.82l-24.92-12.86l0.58-0.33c-2.13-0.99-3.28-3.27-4.43-5.35l-1.68,1
								l-1,0.28v5.8l0,0c0,1.11,0.73,2.22,2.19,3.06l24.97,14.41c2.92,1.69,7.68,1.69,10.6,0l24.97-14.41
								c1.44-0.83,2.17-1.92,2.19-3.01C113.95,316.45,113.95,316.4,113.95,316.36L113.95,316.36z"/>
							<path class="st15" d="M106.17,314.62l-17.89,10.46l-6.8,2.45v7.65c1.92,0,3.84-0.42,5.3-1.27l24.97-14.41
								c1.44-0.83,2.17-1.92,2.19-3.01c0-0.05,0-0.1,0-0.15l0,0v-5.66l-1.43-0.8h-0.15C111.88,312.53,108.78,314.26,106.17,314.62z"
								/>
							<g>
								
									<linearGradient id="SVGID_00000093173166903306563440000014144772474931614875_" gradientUnits="userSpaceOnUse" x1="49.0281" y1="310.7006" x2="113.9498" y2="310.7006">
									<stop  offset="0" style="stop-color:#E9E9FD"/>
									<stop  offset="0.3601" style="stop-color:#D3D2F9"/>
									<stop  offset="0.7062" style="stop-color:#C5C4F7"/>
									<stop  offset="1" style="stop-color:#C0BFF6"/>
								</linearGradient>
								<path style="fill:url(#SVGID_00000093173166903306563440000014144772474931614875_);" d="M76.19,328.18l-24.97-14.41
									c-2.92-1.69-2.92-4.43,0-6.12l24.97-14.41c2.92-1.69,7.68-1.69,10.6,0l24.97,14.41c2.92,1.69,2.92,4.43,0,6.12l-24.97,14.41
									C83.87,329.86,79.11,329.86,76.19,328.18z"/>
							</g>
							<g>
								<path class="st21" d="M111.76,313.76l-24.97,14.41c-2.92,1.69-7.68,1.69-10.6,0l-24.97-14.41
									c-1.31-0.75-2.03-1.72-2.17-2.71c-0.17,1.22,0.55,2.48,2.17,3.41l24.97,14.41c2.92,1.69,7.68,1.69,10.6,0l24.97-14.41
									c1.62-0.93,2.34-2.19,2.17-3.41C113.78,312.04,113.06,313.01,111.76,313.76z"/>
							</g>
						</g>
					</g>
				</g>
			</g>
		</g>
	</g>
</g>
<g id="OBJECTS">
	<g>
		<rect x="680.45" y="59.71" class="st22" width="29.8" height="59.16"/>
		<rect x="420.83" y="38.8" class="st23" width="47.15" height="81.37"/>
		<path class="st23" d="M626.01,115.23h-67.09V30h67.09V115.23z M563.05,111.37h58.84V33.86h-58.84V111.37z"/>
		<rect x="404.86" y="44.44" class="st23" width="47.26" height="33.05"/>
		<rect x="480.23" y="51.98" class="st22" width="93.39" height="31.99"/>
		<rect x="590.41" y="24.87" class="st23" width="41.23" height="14.12"/>
		<ellipse class="st23" cx="715.42" cy="116.01" rx="15.69" ry="15.96"/>
		<g>
			<ellipse class="st22" cx="638.16" cy="41.54" rx="4.41" ry="4.49"/>
			<ellipse class="st22" cx="638.16" cy="57.07" rx="4.41" ry="4.49"/>
			<ellipse class="st22" cx="638.16" cy="72.59" rx="4.41" ry="4.49"/>
		</g>
		<ellipse class="st24" cx="413.51" cy="47.35" rx="40.94" ry="41.64"/>
		<ellipse class="st25" cx="715.42" cy="116.01" rx="33.02" ry="33.59"/>
		<ellipse class="st26" cx="516.78" cy="96.78" rx="24.83" ry="25.26"/>
		<g class="st27">
			<rect x="650.31" y="38.22" class="st28" width="1.33" height="1.35"/>
			<rect x="655.58" y="38.22" class="st28" width="1.33" height="1.35"/>
			<rect x="660.84" y="38.22" class="st28" width="1.33" height="1.35"/>
			<rect x="666.11" y="38.22" class="st28" width="1.33" height="1.35"/>
			<rect x="671.37" y="38.22" class="st28" width="1.33" height="1.35"/>
			<rect x="676.64" y="38.22" class="st28" width="1.33" height="1.35"/>
			<rect x="681.9" y="38.22" class="st28" width="1.33" height="1.35"/>
			<rect x="687.17" y="38.22" class="st28" width="1.33" height="1.35"/>
			
				<rect x="650.3" y="43.59" transform="matrix(-1.836970e-16 1 -1 -1.836970e-16 695.2253 -606.7211)" class="st29" width="1.35" height="1.33"/>
			
				<rect x="650.3" y="48.94" transform="matrix(-1.836970e-16 1 -1 -1.836970e-16 700.5807 -601.3656)" class="st28" width="1.35" height="1.33"/>
			
				<rect x="650.3" y="54.3" transform="matrix(-1.836970e-16 1 -1 -1.836970e-16 705.9362 -596.0102)" class="st28" width="1.35" height="1.33"/>
			
				<rect x="650.3" y="59.66" transform="matrix(-1.836970e-16 1 -1 -1.836970e-16 711.2916 -590.6548)" class="st28" width="1.35" height="1.33"/>
			
				<rect x="650.3" y="65.01" transform="matrix(-1.836970e-16 1 -1 -1.836970e-16 716.647 -585.2993)" class="st28" width="1.35" height="1.33"/>
			
				<rect x="650.3" y="70.37" transform="matrix(-1.836970e-16 1 -1 -1.836970e-16 722.0024 -579.9439)" class="st29" width="1.35" height="1.33"/>
			
				<rect x="650.3" y="75.72" transform="matrix(-1.836970e-16 1 -1 -1.836970e-16 727.3579 -574.5885)" class="st28" width="1.35" height="1.33"/>
			
				<rect x="655.56" y="43.59" transform="matrix(-1.836970e-16 1 -1 -1.836970e-16 700.4908 -611.9866)" class="st28" width="1.35" height="1.33"/>
			
				<rect x="655.56" y="48.94" transform="matrix(-1.836970e-16 1 -1 -1.836970e-16 705.8463 -606.6311)" class="st28" width="1.35" height="1.33"/>
			
				<rect x="655.56" y="54.3" transform="matrix(-1.836970e-16 1 -1 -1.836970e-16 711.2017 -601.2758)" class="st28" width="1.35" height="1.33"/>
			
				<rect x="655.56" y="59.66" transform="matrix(-1.836970e-16 1 -1 -1.836970e-16 716.5571 -595.9203)" class="st28" width="1.35" height="1.33"/>
			
				<rect x="655.56" y="65.01" transform="matrix(-1.836970e-16 1 -1 -1.836970e-16 721.9125 -590.5648)" class="st28" width="1.35" height="1.33"/>
			
				<rect x="655.56" y="70.37" transform="matrix(-1.836970e-16 1 -1 -1.836970e-16 727.268 -585.2094)" class="st28" width="1.35" height="1.33"/>
			
				<rect x="655.56" y="75.72" transform="matrix(-1.836970e-16 1 -1 -1.836970e-16 732.6234 -579.854)" class="st28" width="1.35" height="1.33"/>
			
				<rect x="660.83" y="43.59" transform="matrix(-1.836970e-16 1 -1 -1.836970e-16 705.7563 -617.2521)" class="st29" width="1.35" height="1.33"/>
			
				<rect x="660.83" y="48.94" transform="matrix(-1.836970e-16 1 -1 -1.836970e-16 711.1118 -611.8967)" class="st28" width="1.35" height="1.33"/>
			
				<rect x="660.83" y="54.3" transform="matrix(-1.836970e-16 1 -1 -1.836970e-16 716.4672 -606.5413)" class="st28" width="1.35" height="1.33"/>
			
				<rect x="660.83" y="59.66" transform="matrix(-1.836970e-16 1 -1 -1.836970e-16 721.8227 -601.1859)" class="st28" width="1.35" height="1.33"/>
			
				<rect x="660.83" y="65.01" transform="matrix(-1.836970e-16 1 -1 -1.836970e-16 727.1781 -595.8304)" class="st28" width="1.35" height="1.33"/>
			
				<rect x="660.83" y="70.37" transform="matrix(-1.836970e-16 1 -1 -1.836970e-16 732.5336 -590.475)" class="st28" width="1.35" height="1.33"/>
			
				<rect x="660.83" y="75.72" transform="matrix(-1.836970e-16 1 -1 -1.836970e-16 737.889 -585.1196)" class="st28" width="1.35" height="1.33"/>
			
				<rect x="666.1" y="43.59" transform="matrix(-1.836970e-16 1 -1 -1.836970e-16 711.0219 -622.5177)" class="st28" width="1.35" height="1.33"/>
			
				<rect x="666.1" y="48.94" transform="matrix(-1.836970e-16 1 -1 -1.836970e-16 716.3774 -617.1622)" class="st28" width="1.35" height="1.33"/>
			
				<rect x="666.1" y="54.3" transform="matrix(-1.836970e-16 1 -1 -1.836970e-16 721.7328 -611.8069)" class="st28" width="1.35" height="1.33"/>
			
				<rect x="666.1" y="59.66" transform="matrix(-1.836970e-16 1 -1 -1.836970e-16 727.0883 -606.4514)" class="st28" width="1.35" height="1.33"/>
			
				<rect x="666.1" y="65.01" transform="matrix(-1.836970e-16 1 -1 -1.836970e-16 732.4437 -601.0959)" class="st29" width="1.35" height="1.33"/>
			
				<rect x="666.1" y="70.37" transform="matrix(-1.836970e-16 1 -1 -1.836970e-16 737.7991 -595.7405)" class="st28" width="1.35" height="1.33"/>
			
				<rect x="666.1" y="75.72" transform="matrix(-1.836970e-16 1 -1 -1.836970e-16 743.1545 -590.3851)" class="st28" width="1.35" height="1.33"/>
			
				<rect x="671.36" y="43.59" transform="matrix(-1.836970e-16 1 -1 -1.836970e-16 716.2875 -627.7833)" class="st28" width="1.35" height="1.33"/>
			
				<rect x="671.36" y="48.94" transform="matrix(-1.836970e-16 1 -1 -1.836970e-16 721.6429 -622.4278)" class="st28" width="1.35" height="1.33"/>
			
				<rect x="671.36" y="54.3" transform="matrix(-1.836970e-16 1 -1 -1.836970e-16 726.9984 -617.0724)" class="st28" width="1.35" height="1.33"/>
			
				<rect x="671.36" y="59.66" transform="matrix(-1.836970e-16 1 -1 -1.836970e-16 732.3538 -611.7169)" class="st28" width="1.35" height="1.33"/>
			
				<rect x="671.36" y="65.01" transform="matrix(-1.836970e-16 1 -1 -1.836970e-16 737.7092 -606.3615)" class="st28" width="1.35" height="1.33"/>
			
				<rect x="671.36" y="70.37" transform="matrix(-1.836970e-16 1 -1 -1.836970e-16 743.0646 -601.0061)" class="st28" width="1.35" height="1.33"/>
			
				<rect x="671.36" y="75.72" transform="matrix(-1.836970e-16 1 -1 -1.836970e-16 748.42 -595.6506)" class="st28" width="1.35" height="1.33"/>
			
				<rect x="676.63" y="43.59" transform="matrix(-1.836970e-16 1 -1 -1.836970e-16 721.553 -633.0488)" class="st28" width="1.35" height="1.33"/>
			
				<rect x="676.63" y="48.94" transform="matrix(-1.836970e-16 1 -1 -1.836970e-16 726.9085 -627.6934)" class="st28" width="1.35" height="1.33"/>
			
				<rect x="676.63" y="54.3" transform="matrix(-1.836970e-16 1 -1 -1.836970e-16 732.2639 -622.338)" class="st28" width="1.35" height="1.33"/>
			
				<rect x="676.63" y="59.66" transform="matrix(-1.836970e-16 1 -1 -1.836970e-16 737.6193 -616.9825)" class="st28" width="1.35" height="1.33"/>
			
				<rect x="676.63" y="65.01" transform="matrix(-1.836970e-16 1 -1 -1.836970e-16 742.9748 -611.6271)" class="st28" width="1.35" height="1.33"/>
			
				<rect x="676.63" y="70.37" transform="matrix(-1.836970e-16 1 -1 -1.836970e-16 748.3302 -606.2716)" class="st28" width="1.35" height="1.33"/>
			
				<rect x="676.63" y="75.72" transform="matrix(-1.836970e-16 1 -1 -1.836970e-16 753.6856 -600.9162)" class="st29" width="1.35" height="1.33"/>
			
				<rect x="681.89" y="43.59" transform="matrix(-1.836970e-16 1 -1 -1.836970e-16 726.8185 -638.3143)" class="st28" width="1.35" height="1.33"/>
			
				<rect x="681.89" y="48.94" transform="matrix(-1.836970e-16 1 -1 -1.836970e-16 732.174 -632.9589)" class="st28" width="1.35" height="1.33"/>
			
				<rect x="681.89" y="54.3" transform="matrix(-1.836970e-16 1 -1 -1.836970e-16 737.5294 -627.6035)" class="st28" width="1.35" height="1.33"/>
			
				<rect x="681.89" y="59.66" transform="matrix(-1.836970e-16 1 -1 -1.836970e-16 742.8849 -622.248)" class="st28" width="1.35" height="1.33"/>
			
				<rect x="681.89" y="65.01" transform="matrix(-1.836970e-16 1 -1 -1.836970e-16 748.2403 -616.8926)" class="st28" width="1.35" height="1.33"/>
			
				<rect x="681.89" y="70.37" transform="matrix(-1.836970e-16 1 -1 -1.836970e-16 753.5958 -611.5372)" class="st29" width="1.35" height="1.33"/>
			
				<rect x="681.89" y="75.72" transform="matrix(-1.836970e-16 1 -1 -1.836970e-16 758.9512 -606.1818)" class="st29" width="1.35" height="1.33"/>
			
				<rect x="687.16" y="43.59" transform="matrix(-1.836970e-16 1 -1 -1.836970e-16 732.0842 -643.58)" class="st28" width="1.35" height="1.33"/>
			
				<rect x="687.16" y="48.94" transform="matrix(-1.836970e-16 1 -1 -1.836970e-16 737.4396 -638.2245)" class="st28" width="1.35" height="1.33"/>
			<rect x="650.31" y="27.51" class="st28" width="1.33" height="1.35"/>
			<rect x="655.58" y="27.51" class="st28" width="1.33" height="1.35"/>
			<rect x="660.84" y="27.51" class="st29" width="1.33" height="1.35"/>
			<rect x="666.11" y="27.51" class="st28" width="1.33" height="1.35"/>
			<rect x="671.37" y="27.51" class="st28" width="1.33" height="1.35"/>
			<rect x="676.64" y="27.51" class="st28" width="1.33" height="1.35"/>
			<rect x="681.9" y="27.51" class="st28" width="1.33" height="1.35"/>
			<rect x="687.17" y="27.51" class="st28" width="1.33" height="1.35"/>
			
				<rect x="650.3" y="32.88" transform="matrix(-1.836970e-16 1 -1 -1.836970e-16 684.5144 -617.4319)" class="st28" width="1.35" height="1.33"/>
			
				<rect x="655.56" y="32.88" transform="matrix(-1.836970e-16 1 -1 -1.836970e-16 689.78 -622.6974)" class="st28" width="1.35" height="1.33"/>
			
				<rect x="660.83" y="32.88" transform="matrix(-1.836970e-16 1 -1 -1.836970e-16 695.0455 -627.963)" class="st28" width="1.35" height="1.33"/>
			
				<rect x="666.1" y="32.88" transform="matrix(-1.836970e-16 1 -1 -1.836970e-16 700.3111 -633.2286)" class="st29" width="1.35" height="1.33"/>
			
				<rect x="671.36" y="32.88" transform="matrix(-1.836970e-16 1 -1 -1.836970e-16 705.5766 -638.4941)" class="st29" width="1.35" height="1.33"/>
			
				<rect x="676.63" y="32.88" transform="matrix(-1.836970e-16 1 -1 -1.836970e-16 710.8422 -643.7596)" class="st28" width="1.35" height="1.33"/>
			
				<rect x="681.89" y="32.88" transform="matrix(-1.836970e-16 1 -1 -1.836970e-16 716.1077 -649.0252)" class="st28" width="1.35" height="1.33"/>
			
				<rect x="687.16" y="32.88" transform="matrix(-1.836970e-16 1 -1 -1.836970e-16 721.3733 -654.2908)" class="st28" width="1.35" height="1.33"/>
			
				<rect x="687.16" y="54.3" transform="matrix(-1.836970e-16 1 -1 -1.836970e-16 742.795 -632.8691)" class="st28" width="1.35" height="1.33"/>
			
				<rect x="687.16" y="59.66" transform="matrix(-1.836970e-16 1 -1 -1.836970e-16 748.1505 -627.5136)" class="st29" width="1.35" height="1.33"/>
			
				<rect x="687.16" y="65.01" transform="matrix(-1.836970e-16 1 -1 -1.836970e-16 753.5059 -622.1582)" class="st28" width="1.35" height="1.33"/>
			
				<rect x="687.16" y="70.37" transform="matrix(-1.836970e-16 1 -1 -1.836970e-16 758.8613 -616.8027)" class="st28" width="1.35" height="1.33"/>
			
				<rect x="687.16" y="75.72" transform="matrix(-1.836970e-16 1 -1 -1.836970e-16 764.2167 -611.4473)" class="st28" width="1.35" height="1.33"/>
		</g>
		<g>
			<path class="st29" d="M398.52,56.4l-2.76,1.75c0.25,0.41,0.52,0.81,0.8,1.2l2.63-1.95C398.96,57.08,398.73,56.74,398.52,56.4z"/>
			<path class="st29" d="M396.94,41.79l-3.07-1.1c-0.16,0.45-0.3,0.92-0.43,1.39l3.14,0.87C396.69,42.56,396.81,42.17,396.94,41.79z
				"/>
			<path class="st29" d="M398.18,39.03l-2.82-1.64c-0.23,0.42-0.46,0.85-0.66,1.29l2.93,1.43C397.8,39.74,397.99,39.38,398.18,39.03
				z"/>
			<path class="st29" d="M402.01,34.39l-2.08-2.54c-0.37,0.31-0.72,0.64-1.07,0.97l2.26,2.38C401.4,34.93,401.7,34.65,402.01,34.39z
				"/>
			<path class="st29" d="M396.33,50.78l-3.19,0.65c0.09,0.48,0.21,0.95,0.33,1.41l3.13-0.88C396.5,51.58,396.4,51.18,396.33,50.78z"
				/>
			<path class="st29" d="M397.18,53.69l-3.02,1.22c0.17,0.45,0.37,0.89,0.58,1.33l2.93-1.44C397.48,54.44,397.32,54.07,397.18,53.69
				z"/>
			<path class="st29" d="M396,47.76l-3.25,0.07c0.01,0.49,0.04,0.97,0.08,1.45l3.24-0.3C396.03,48.58,396.01,48.17,396,47.76z"/>
			<path class="st29" d="M396.21,44.73L393,44.21c-0.07,0.47-0.13,0.96-0.17,1.44l3.24,0.29C396.1,45.53,396.14,45.13,396.21,44.73z
				"/>
			<path class="st29" d="M399.89,36.54l-2.49-2.13c-0.31,0.37-0.6,0.76-0.88,1.15l2.64,1.94C399.39,37.17,399.63,36.85,399.89,36.54
				z"/>
			<path class="st29" d="M404.46,32.67l-1.6-2.88c-0.41,0.24-0.82,0.49-1.22,0.76l1.8,2.75C403.78,33.08,404.12,32.86,404.46,32.67z
				"/>
			<path class="st29" d="M428.63,42.56l3.12-0.95c-0.14-0.46-0.29-0.93-0.46-1.38l-3.04,1.18
				C428.38,41.78,428.51,42.17,428.63,42.56z"/>
			<path class="st29" d="M427.52,39.74l2.9-1.5c-0.21-0.43-0.45-0.85-0.69-1.27l-2.78,1.71C427.14,39.02,427.34,39.38,427.52,39.74z
				"/>
			<path class="st29" d="M429.22,45.53l3.23-0.37c-0.05-0.48-0.12-0.96-0.21-1.44l-3.2,0.6C429.12,44.73,429.18,45.13,429.22,45.53z
				"/>
			<path class="st29" d="M425.93,37.17l2.59-2c-0.29-0.38-0.59-0.76-0.91-1.12l-2.44,2.19C425.43,36.53,425.69,36.85,425.93,37.17z"
				/>
			<path class="st29" d="M407.18,31.42l-1.07-3.12c-0.45,0.16-0.89,0.34-1.33,0.53l1.29,3.04C406.43,31.7,406.81,31.55,407.18,31.42
				z"/>
			<path class="st29" d="M423.91,34.93l2.2-2.44c-0.35-0.33-0.72-0.64-1.09-0.94L423,34.14C423.31,34.39,423.62,34.65,423.91,34.93z
				"/>
			<path class="st29" d="M423.28,30.28c-0.4-0.26-0.82-0.5-1.23-0.73l-1.53,2.92c0.35,0.19,0.7,0.4,1.04,0.61L423.28,30.28z"/>
			<path class="st29" d="M416.68,63.88l0.78,3.21c0.46-0.11,0.92-0.25,1.37-0.4l-1.01-3.15C417.44,63.67,417.06,63.78,416.68,63.88z
				"/>
			<path class="st29" d="M424.39,59.46l2.29,2.35c0.34-0.35,0.67-0.7,0.98-1.06l-2.45-2.17C424.96,58.87,424.68,59.17,424.39,59.46z
				"/>
			<path class="st29" d="M418.75,28.13l-0.99,3.15c0.37,0.12,0.75,0.26,1.13,0.41l1.21-3.07C419.65,28.45,419.2,28.28,418.75,28.13z
				"/>
			<path class="st29" d="M419.49,62.89l1.34,3.01c0.43-0.2,0.86-0.42,1.28-0.64l-1.54-2.91C420.22,62.54,419.86,62.72,419.49,62.89z
				"/>
			<path class="st29" d="M426.32,57.13l2.67,1.9c0.27-0.4,0.54-0.81,0.78-1.22l-2.79-1.7C426.77,56.46,426.55,56.8,426.32,57.13z"/>
			<path class="st29" d="M422.1,61.39l1.84,2.73c0.39-0.27,0.77-0.56,1.15-0.87l-2.03-2.58C422.74,60.92,422.42,61.17,422.1,61.39z"
				/>
			<path class="st29" d="M429.32,47.35v0.08c0,0.4-0.01,0.81-0.04,1.22l3.24,0.23c0.03-0.48,0.05-0.97,0.05-1.45v-0.08H429.32z"/>
			<path class="st29" d="M428.8,51.64l3.15,0.82c0.12-0.47,0.22-0.95,0.3-1.42l-3.2-0.59C428.99,50.84,428.9,51.25,428.8,51.64z"/>
			<path class="st29" d="M427.81,54.5l2.96,1.38c0.2-0.44,0.38-0.89,0.55-1.34l-3.05-1.16C428.13,53.75,427.97,54.13,427.81,54.5z"
				/>
			<path class="st29" d="M403.56,65.44c0.42,0.22,0.86,0.43,1.3,0.62l1.28-3.04c-0.37-0.16-0.73-0.33-1.08-0.52L403.56,65.44z"/>
			<path class="st29" d="M400.33,58.82l-2.41,2.23c0.32,0.36,0.66,0.71,1,1.04l2.24-2.39C400.88,59.41,400.6,59.12,400.33,58.82z"/>
			<path class="st29" d="M408.17,27.69l0.73,3.22c0.39-0.09,0.78-0.17,1.17-0.23l-0.5-3.27C409.11,27.48,408.64,27.58,408.17,27.69z
				"/>
			<path class="st29" d="M406.87,66.81c0.45,0.14,0.92,0.26,1.38,0.37l0.72-3.23c-0.39-0.09-0.78-0.19-1.16-0.31L406.87,66.81z"/>
			<path class="st29" d="M400.55,63.5c0.38,0.3,0.77,0.58,1.16,0.84l1.79-2.76c-0.33-0.22-0.66-0.46-0.98-0.71L400.55,63.5z"/>
			<path class="st29" d="M411.7,27.19l0.16,3.3c0.25-0.01,0.51-0.02,0.77-0.02c0.14,0,0.29,0,0.43,0l0.07-3.31
				c-0.16,0-0.31-0.01-0.47-0.01C412.33,27.17,412.02,27.18,411.7,27.19z"/>
			<path class="st29" d="M410.37,67.55c0.47,0.05,0.95,0.09,1.42,0.11l0.14-3.31c-0.4-0.02-0.8-0.05-1.19-0.1L410.37,67.55z"/>
			<path class="st29" d="M413.73,64.34l0.2,3.3c0.47-0.03,0.95-0.08,1.42-0.14l-0.44-3.28C414.52,64.27,414.12,64.31,413.73,64.34z"
				/>
			<path class="st29" d="M415.27,27.34l-0.42,3.28c0.4,0.05,0.79,0.12,1.18,0.2l0.66-3.24C416.22,27.49,415.74,27.4,415.27,27.34z"
				/>
		</g>
		<g>
			<g>
				<polygon class="st30" points="582.09,65.11 581.44,65.11 581.44,59.48 586.98,59.48 586.98,60.14 582.09,60.14 				"/>
				<polygon class="st30" points="605.52,65.11 604.87,65.11 604.87,60.14 599.99,60.14 599.99,59.48 605.52,59.48 				"/>
				<polygon class="st30" points="605.52,83.97 599.99,83.97 599.99,83.31 604.87,83.31 604.87,78.34 605.52,78.34 				"/>
				<polygon class="st30" points="586.98,83.97 581.44,83.97 581.44,78.34 582.09,78.34 582.09,83.31 586.98,83.31 				"/>
			</g>
			<path class="st28" d="M597.09,71.72c0,2.02-1.61,3.66-3.6,3.66c-1.99,0-3.6-1.64-3.6-3.66s1.61-3.66,3.6-3.66
				C595.47,68.06,597.09,69.7,597.09,71.72z"/>
			<path class="st30" d="M593.48,72.69c-0.53,0-0.95-0.43-0.95-0.97c0-0.53,0.43-0.97,0.95-0.97c0.53,0,0.95,0.43,0.95,0.97
				C594.44,72.26,594.01,72.69,593.48,72.69z"/>
		</g>
		<g>
			<path class="st30" d="M502.66,62.53h-27.21c-0.35,0-0.64-0.29-0.64-0.65l0,0c0-0.36,0.28-0.65,0.64-0.65h27.21
				c0.35,0,0.64,0.29,0.64,0.65l0,0C503.29,62.25,503.01,62.53,502.66,62.53z"/>
			<path class="st30" d="M489.64,66.02h-14.2c-0.35,0-0.64-0.29-0.64-0.65l0,0c0-0.36,0.28-0.65,0.64-0.65h14.2
				c0.35,0,0.64,0.29,0.64,0.65l0,0C490.28,65.73,490,66.02,489.64,66.02z"/>
		</g>
		<g>
			<path class="st28" d="M720.36,45h-27.21c-0.35,0-0.64-0.29-0.64-0.65l0,0c0-0.36,0.28-0.65,0.64-0.65h27.21
				c0.35,0,0.64,0.29,0.64,0.65l0,0C721,44.71,720.71,45,720.36,45z"/>
			<path class="st28" d="M707.35,48.49h-14.2c-0.35,0-0.64-0.29-0.64-0.65l0,0c0-0.36,0.28-0.65,0.64-0.65h14.2
				c0.35,0,0.64,0.29,0.64,0.65l0,0C707.99,48.2,707.7,48.49,707.35,48.49z"/>
		</g>
		<g>
			<path class="st28" d="M410.86,120.49h-14.2c-0.35,0-0.64-0.29-0.64-0.65l0,0c0-0.36,0.28-0.65,0.64-0.65h14.2
				c0.35,0,0.64,0.29,0.64,0.65l0,0C411.49,120.2,411.21,120.49,410.86,120.49z"/>
			<path class="st28" d="M410.86,123.98h-14.2c-0.35,0-0.64-0.29-0.64-0.65l0,0c0-0.36,0.28-0.65,0.64-0.65h14.2
				c0.35,0,0.64,0.29,0.64,0.65l0,0C411.49,123.69,411.21,123.98,410.86,123.98z"/>
		</g>
		<g>
			<path class="st30" d="M720.36,69.65h-27.21c-0.35,0-0.64-0.29-0.64-0.65l0,0c0-0.36,0.28-0.65,0.64-0.65h27.21
				c0.35,0,0.64,0.29,0.64,0.65l0,0C721,69.36,720.71,69.65,720.36,69.65z"/>
			<path class="st30" d="M707.35,73.13h-14.2c-0.35,0-0.64-0.29-0.64-0.65l0,0c0-0.36,0.28-0.65,0.64-0.65h14.2
				c0.35,0,0.64,0.29,0.64,0.65l0,0C707.99,72.84,707.7,73.13,707.35,73.13z"/>
			<path class="st30" d="M707.35,76.62h-14.2c-0.35,0-0.64-0.29-0.64-0.65l0,0c0-0.36,0.28-0.65,0.64-0.65h14.2
				c0.35,0,0.64,0.29,0.64,0.65l0,0C707.99,76.33,707.7,76.62,707.35,76.62z"/>
		</g>
		<g>
			<path class="st30" d="M423.87,104.87h-27.21c-0.35,0-0.64-0.29-0.64-0.65l0,0c0-0.36,0.28-0.65,0.64-0.65h27.21
				c0.35,0,0.64,0.29,0.64,0.65l0,0C424.5,104.59,424.22,104.87,423.87,104.87z"/>
			<path class="st30" d="M423.87,101.72h-27.21c-0.35,0-0.64-0.29-0.64-0.65l0,0c0-0.36,0.28-0.65,0.64-0.65h27.21
				c0.35,0,0.64,0.29,0.64,0.65l0,0C424.5,101.43,424.22,101.72,423.87,101.72z"/>
			<path class="st30" d="M423.87,98.57h-27.21c-0.35,0-0.64-0.29-0.64-0.65l0,0c0-0.36,0.28-0.65,0.64-0.65h27.21
				c0.35,0,0.64,0.29,0.64,0.65l0,0C424.5,98.28,424.22,98.57,423.87,98.57z"/>
			<path class="st30" d="M410.86,108.03h-14.2c-0.35,0-0.64-0.29-0.64-0.65l0,0c0-0.36,0.28-0.65,0.64-0.65h14.2
				c0.35,0,0.64,0.29,0.64,0.65l0,0C411.49,107.74,411.21,108.03,410.86,108.03z"/>
		</g>
		<ellipse class="st31" cx="412.66" cy="47.41" rx="5.7" ry="5.8"/>
		<g>
			<g>
				<path class="st31" d="M476.04,22.67L476.04,22.67c-0.68,0-1.24,0.56-1.24,1.26v5.91c0,0.69,0.55,1.26,1.24,1.26h0
					c0.68,0,1.24-0.56,1.24-1.26v-5.91C477.27,23.24,476.72,22.67,476.04,22.67z"/>
				<path class="st31" d="M480.37,22.67L480.37,22.67c-0.68,0-1.24,0.56-1.24,1.26v5.91c0,0.69,0.55,1.26,1.24,1.26h0
					c0.68,0,1.24-0.56,1.24-1.26v-5.91C481.61,23.24,481.05,22.67,480.37,22.67z"/>
				<path class="st31" d="M484.71,22.67L484.71,22.67c-0.68,0-1.24,0.56-1.24,1.26v5.91c0,0.69,0.55,1.26,1.24,1.26h0
					c0.68,0,1.24-0.56,1.24-1.26v-5.91C485.94,23.24,485.39,22.67,484.71,22.67z"/>
				<path class="st31" d="M489.04,22.67L489.04,22.67c-0.68,0-1.24,0.56-1.24,1.26v5.91c0,0.69,0.55,1.26,1.24,1.26h0
					c0.68,0,1.24-0.56,1.24-1.26v-5.91C490.28,23.24,489.72,22.67,489.04,22.67z"/>
				<path class="st31" d="M493.38,22.67L493.38,22.67c-0.68,0-1.24,0.56-1.24,1.26v5.91c0,0.69,0.55,1.26,1.24,1.26h0
					c0.68,0,1.24-0.56,1.24-1.26v-5.91C494.61,23.24,494.06,22.67,493.38,22.67z"/>
				<path class="st31" d="M497.71,22.67L497.71,22.67c-0.68,0-1.24,0.56-1.24,1.26v5.91c0,0.69,0.55,1.26,1.24,1.26h0
					c0.68,0,1.24-0.56,1.24-1.26v-5.91C498.95,23.24,498.39,22.67,497.71,22.67z"/>
				<path class="st31" d="M502.05,22.67L502.05,22.67c-0.68,0-1.24,0.56-1.24,1.26v5.91c0,0.69,0.55,1.26,1.24,1.26h0
					c0.68,0,1.24-0.56,1.24-1.26v-5.91C503.28,23.24,502.73,22.67,502.05,22.67z"/>
				<path class="st31" d="M506.38,22.67L506.38,22.67c-0.68,0-1.24,0.56-1.24,1.26v5.91c0,0.69,0.55,1.26,1.24,1.26h0
					c0.68,0,1.24-0.56,1.24-1.26v-5.91C507.62,23.24,507.06,22.67,506.38,22.67z"/>
				<path class="st28" d="M510.71,22.67L510.71,22.67c-0.68,0-1.24,0.56-1.24,1.26v5.91c0,0.69,0.55,1.26,1.24,1.26h0
					c0.68,0,1.24-0.56,1.24-1.26v-5.91C511.95,23.24,511.4,22.67,510.71,22.67z"/>
				<path class="st28" d="M515.05,22.67L515.05,22.67c-0.68,0-1.24,0.56-1.24,1.26v5.91c0,0.69,0.55,1.26,1.24,1.26h0
					c0.68,0,1.24-0.56,1.24-1.26v-5.91C516.29,23.24,515.73,22.67,515.05,22.67z"/>
				<path class="st28" d="M519.38,22.67L519.38,22.67c-0.68,0-1.24,0.56-1.24,1.26v5.91c0,0.69,0.55,1.26,1.24,1.26h0
					c0.68,0,1.24-0.56,1.24-1.26v-5.91C520.62,23.24,520.07,22.67,519.38,22.67z"/>
				<path class="st28" d="M523.72,22.67L523.72,22.67c-0.68,0-1.24,0.56-1.24,1.26v5.91c0,0.69,0.55,1.26,1.24,1.26h0
					c0.68,0,1.24-0.56,1.24-1.26v-5.91C524.96,23.24,524.4,22.67,523.72,22.67z"/>
			</g>
			<rect x="470.68" y="19.43" class="st26" width="58.39" height="15.02"/>
		</g>
		<g>
			<g>
				<path class="st32" d="M660.75,96.72v-1.33c0-2.76,2.24-5,5-5h7.98c2.76,0,5,2.24,5,5v1.33c0,2.76-2.24,5-5,5h-7.98
					C662.99,101.72,660.75,99.48,660.75,96.72z"/>
				<path class="st28" d="M658.17,96.72v-1.33c0-2.76,2.24-5,5-5h7.98c2.76,0,5,2.24,5,5v1.33c0,2.76-2.24,5-5,5h-7.98
					C660.41,101.72,658.17,99.48,658.17,96.72z"/>
			</g>
			<path class="st33" d="M669.43,96.06c0,1.27-1.01,2.3-2.26,2.3c-1.25,0-2.26-1.03-2.26-2.3s1.01-2.3,2.26-2.3
				C668.41,93.75,669.43,94.78,669.43,96.06z"/>
			<path class="st29" d="M668.31,96.06c0,0.64-0.51,1.16-1.14,1.16c-0.63,0-1.14-0.52-1.14-1.16s0.51-1.16,1.14-1.16
				C667.79,94.89,668.31,95.41,668.31,96.06z"/>
		</g>
	</g>
	<g>
		<path class="st34" d="M729.84,345.69h-19.23V270.3h19.23c8.17,0,14.82,6.71,14.82,14.96v45.46
			C744.66,338.98,738.01,345.69,729.84,345.69z M712.19,344.1h17.65c7.3,0,13.25-6,13.25-13.37v-45.46
			c0-7.37-5.94-13.37-13.25-13.37h-17.65V344.1z"/>
		<path class="st34" d="M734.57,345.69h-23.97v-59.45h23.97c8.17,0,14.82,6.71,14.82,14.96v29.52
			C749.4,338.98,742.75,345.69,734.57,345.69z M712.19,344.1h22.39c7.3,0,13.25-6,13.25-13.37v-29.52c0-7.37-5.94-13.37-13.25-13.37
			h-22.39V344.1z"/>
		<path class="st34" d="M704.85,227.4h-23.18v-1.59h23.18c7.3,0,13.25-6,13.25-13.37v-13.57c0-7.37-5.94-13.37-13.25-13.37h-23.18
			v-1.59h23.18c8.17,0,14.82,6.71,14.82,14.96v13.57C719.68,220.68,713.03,227.4,704.85,227.4z"/>
		<path class="st34" d="M570.2,227.4h-23.18v-1.59h23.18c7.3,0,13.24-6,13.24-13.37v-13.57c0-7.37-5.94-13.37-13.24-13.37h-23.18
			v-1.59h23.18c8.17,0,14.82,6.71,14.82,14.96v13.57C585.03,220.68,578.38,227.4,570.2,227.4z"/>
		<g>
			<path class="st34" d="M637.98,345.69h-15.75c-25.18,0-45.66-20.68-45.66-46.09v-72.66h1.58v72.66c0,24.54,19.78,44.5,44.08,44.5
				h15.75V345.69z"/>
			<path class="st34" d="M631.21,345.69h-15.75c-25.18,0-45.66-20.68-45.66-46.09v-72.66h1.58v72.66c0,24.54,19.78,44.5,44.08,44.5
				h15.75V345.69z"/>
			<path class="st34" d="M640.98,345.69h-15.75c-25.18,0-45.66-20.68-45.66-46.09v-72.66h1.58v72.66c0,24.54,19.78,44.5,44.08,44.5
				h15.75V345.69z"/>
			<path class="st34" d="M618.52,345.69h-15.75c-25.18,0-45.66-20.68-45.66-46.09v-72.66h1.58v72.66c0,24.54,19.78,44.5,44.08,44.5
				h15.75V345.69z"/>
		</g>
		<g>
			<g>
				
					<rect x="514.89" y="109.36" transform="matrix(-1.836970e-16 1 -1 -1.836970e-16 714.3876 -384.0341)" class="st35" width="68.65" height="111.64"/>
				
					<rect x="512.69" y="109.36" transform="matrix(-1.836970e-16 1 -1 -1.836970e-16 712.1877 -381.8342)" class="st34" width="68.65" height="111.64"/>
				<rect x="497.62" y="137.35" class="st29" width="98.77" height="55.66"/>
				<polygon class="st30" points="497.62,193.01 497.62,137.35 596.4,137.35 				"/>
				<rect x="535.09" y="199.5" class="st35" width="29.7" height="17.07"/>
				<rect x="526.42" y="216.57" class="st36" width="47.04" height="2.64"/>
			</g>
			<g>
				
					<rect x="631.07" y="129.13" transform="matrix(-1.836970e-16 1 -1 -1.836970e-16 836.9625 -485.178)" class="st35" width="60" height="93.52"/>
				
					<rect x="629.14" y="129.13" transform="matrix(-1.836970e-16 1 -1 -1.836970e-16 835.0396 -483.255)" class="st34" width="60" height="93.52"/>
				<rect x="618.01" y="151.57" class="st29" width="82.27" height="48.65"/>
				<polygon class="st30" points="618.01,200.22 618.01,151.57 700.28,151.57 				"/>
				<rect x="648.73" y="205.89" class="st35" width="25.96" height="11.01"/>
				<rect x="641.15" y="216.9" class="st36" width="41.11" height="2.3"/>
			</g>
			<g>
				
					<rect x="407.07" y="129.13" transform="matrix(-1.836970e-16 1 -1 -1.836970e-16 612.9667 -261.1822)" class="st35" width="60" height="93.52"/>
				
					<rect x="405.15" y="129.13" transform="matrix(-1.836970e-16 1 -1 -1.836970e-16 611.0438 -259.2593)" class="st34" width="60" height="93.52"/>
				<rect x="394.02" y="151.57" class="st29" width="82.27" height="48.65"/>
				<polygon class="st30" points="394.02,200.22 394.02,151.57 476.29,151.57 				"/>
				<rect x="424.74" y="205.89" class="st35" width="25.96" height="11.01"/>
				<rect x="417.16" y="216.9" class="st36" width="41.11" height="2.3"/>
			</g>
		</g>
		<g>
			<rect x="620.91" y="245.71" class="st37" width="65.5" height="99.99"/>
			<rect x="592.6" y="245.71" class="st38" width="45.21" height="99.99"/>
			<g>
				<path class="st36" d="M686.89,245.71H633c-1.61,0-2.92-1.32-2.92-2.94l0,0c0-1.63,1.31-2.94,2.92-2.94h53.89
					c1.61,0,2.92,1.32,2.92,2.94l0,0C689.81,244.39,688.5,245.71,686.89,245.71z"/>
				<path class="st37" d="M637.48,245.71h-45.24c-1.61,0-2.92-1.32-2.92-2.94l0,0c0-1.63,1.31-2.94,2.92-2.94h45.24
					c1.61,0,2.92,1.32,2.92,2.94l0,0C640.4,244.39,639.09,245.71,637.48,245.71z"/>
			</g>
			<g>
				<g>
					<rect x="592.6" y="245.71" class="st39" width="45.21" height="0.81"/>
					<polygon class="st39" points="621.86,249.25 608.55,249.25 606.56,246.52 623.85,246.52 					"/>
				</g>
				<g>
					<rect x="592.6" y="266" class="st39" width="45.21" height="0.81"/>
					<polygon class="st39" points="621.86,269.54 608.55,269.54 606.56,266.81 623.85,266.81 					"/>
				</g>
				<g>
					<rect x="592.6" y="286.3" class="st39" width="45.21" height="0.81"/>
					<polygon class="st39" points="621.86,289.83 608.55,289.83 606.56,287.11 623.85,287.11 					"/>
				</g>
				<g>
					<rect x="592.6" y="306.59" class="st39" width="45.21" height="0.81"/>
					<polygon class="st39" points="621.86,310.13 608.55,310.13 606.56,307.4 623.85,307.4 					"/>
				</g>
				<g>
					<rect x="592.6" y="326.88" class="st39" width="45.21" height="0.81"/>
					<polygon class="st39" points="621.86,330.42 608.55,330.42 606.56,327.7 623.85,327.7 					"/>
				</g>
			</g>
		</g>
		<g>
			<path class="st32" d="M713.17,227.59H486.78c-2.29,0-4.15-1.88-4.15-4.19l0,0c0-2.32,1.86-4.19,4.15-4.19h226.39
				c2.29,0,4.15,1.88,4.15,4.19l0,0C717.32,225.71,715.46,227.59,713.17,227.59z"/>
			<path class="st28" d="M616.91,227.59H374.73c-2.29,0-4.15-1.88-4.15-4.19l0,0c0-2.32,1.86-4.19,4.15-4.19h242.19
				c2.29,0,4.15,1.88,4.15,4.19l0,0C621.07,225.71,619.21,227.59,616.91,227.59z"/>
			<path class="st31" d="M613.71,345.69c-0.08,0-0.16,0-0.24-0.01c-1.3-0.13-2.25-1.3-2.13-2.61l11.06-113.32
				c0.12-1.22,1.14-2.16,2.36-2.16h85.84c1.31,0,2.37,1.07,2.37,2.39V343.3c0,1.32-1.06,2.39-2.37,2.39s-2.37-1.07-2.37-2.39V232.37
				h-81.33l-10.85,111.16C615.94,344.77,614.91,345.69,613.71,345.69z"/>
			<path class="st32" d="M368.51,345.69c-0.08,0-0.16,0-0.24-0.01c-1.3-0.13-2.25-1.3-2.13-2.61l11.06-113.32
				c0.12-1.22,1.14-2.16,2.36-2.16h85.84c1.31,0,2.37,1.07,2.37,2.39V343.3c0,1.32-1.06,2.39-2.37,2.39c-1.31,0-2.37-1.07-2.37-2.39
				V232.37h-81.33l-10.85,111.16C370.74,344.77,369.71,345.69,368.51,345.69z"/>
		</g>
		<g>
			<rect x="676.3" y="265" class="st38" width="52.86" height="80.69"/>
			
				<rect x="673.47" y="289.97" transform="matrix(-1.836970e-16 1 -1 -1.836970e-16 1015.1816 -404.4872)" class="st39" width="72.72" height="30.75"/>
			
				<rect x="675.07" y="291.55" transform="matrix(-1.836970e-16 1 -1 -1.836970e-16 1015.1815 -404.4871)" class="st38" width="69.53" height="27.59"/>
			<rect x="653.45" y="265" class="st35" width="36.49" height="80.69"/>
			
				<rect x="635.33" y="291.05" transform="matrix(-1.836970e-16 1 -1 -1.836970e-16 977.0413 -366.3468)" class="st37" width="72.72" height="28.59"/>
			
				<rect x="671" y="265.2" transform="matrix(-1.836970e-16 1 -1 -1.836970e-16 948.3886 -394.9995)" class="st29" width="1.39" height="23"/>
			
				<rect x="671" y="270.43" transform="matrix(-1.836970e-16 1 -1 -1.836970e-16 953.626 -389.7621)" class="st29" width="1.39" height="23"/>
			<path class="st39" d="M675.21,294.19c0,1.96-1.57,3.55-3.52,3.55c-1.94,0-3.52-1.59-3.52-3.55c0-1.96,1.57-3.55,3.52-3.55
				C673.64,290.64,675.21,292.23,675.21,294.19z"/>
			<ellipse class="st29" cx="671.69" cy="294.19" rx="1.78" ry="1.79"/>
		</g>
		<g>
			<g>
				<path class="st30" d="M715.43,306.83c4.36,5.11,3.98,12.65,3.98,12.65s-7.45-0.74-11.8-5.85c-4.36-5.11-3.98-12.65-3.98-12.65
					S711.08,301.72,715.43,306.83z"/>
				<path class="st29" d="M733.47,315.07c-4.18,7.65-13.43,10.58-13.43,10.58s-2.47-9.46,1.71-17.11
					c4.18-7.65,13.43-10.58,13.43-10.58S737.65,307.42,733.47,315.07z"/>
			</g>
			<g>
				<polygon class="st32" points="730.1,345.69 712.52,345.69 710.71,322.64 731.91,322.64 				"/>
				<path class="st31" d="M732.82,322.64H709.8c-0.55,0-1-0.45-1-1.01l0,0c0-0.56,0.45-1.01,1-1.01h23.02c0.55,0,1,0.45,1,1.01l0,0
					C733.81,322.19,733.37,322.64,732.82,322.64z"/>
			</g>
		</g>
		<g>
			<rect x="389.89" y="265.21" class="st38" width="42.28" height="80.49"/>
			
				<rect x="380.94" y="294.42" transform="matrix(-1.836970e-16 1 -1 -1.836970e-16 722.1713 -111.2722)" class="st38" width="71.56" height="22.07"/>
			<rect x="371.62" y="265.21" class="st35" width="29.18" height="80.49"/>
			
				<rect x="349.16" y="294.02" transform="matrix(-1.836970e-16 1 -1 -1.836970e-16 691.6639 -80.7648)" class="st37" width="74.11" height="22.87"/>
			<path class="st29" d="M377.02,268.39L377.02,268.39h18.39l0,0c0,1.94-1.55,3.51-3.47,3.51h-11.45
				C378.57,271.9,377.02,270.33,377.02,268.39z"/>
		</g>
		<g>
			<g>
				<defs>
					<polygon id="SVGID_00000168836406429126642980000005158864405247831174_" points="354.41,341.8 320.35,341.8 316.85,297.15 
						357.92,297.15 					"/>
				</defs>
				<clipPath id="SVGID_00000088836799128497320230000003807842741190484873_">
					<use xlink:href="#SVGID_00000168836406429126642980000005158864405247831174_"  style="overflow:visible;"/>
				</clipPath>
				<path style="clip-path:url(#SVGID_00000088836799128497320230000003807842741190484873_);fill:#193BA5;" d="M355.82,334.82
					l3.13-3.16v-1.6l-3.13-3.16l3.13-3.16v-1.6l-3.13-3.16l3.13-3.16v-1.6l-3.13-3.16l3.13-3.16v-1.6l-3.13-3.16l3.13-3.16v-1.6
					l-3.13-3.16l3.13-3.16v-1.6l-3.13-3.16l1.59-1.61h-1.58l-0.8,0.81l-0.8-0.81h-1.58l1.59,1.61l-3.13,3.16l-3.13-3.16l1.59-1.61
					h-1.58l-0.8,0.81l-0.8-0.81h-1.58l1.59,1.61l-3.13,3.16l-3.13-3.16l1.59-1.61h-1.58l-0.8,0.81l-0.8-0.81h-1.58l1.59,1.61
					l-3.13,3.16l-3.13-3.16l1.59-1.61h-1.58l-0.8,0.81l-0.8-0.81h-1.58l1.59,1.61l-3.13,3.16l-3.13-3.16l1.59-1.61h-1.58l-0.8,0.81
					l-0.8-0.81h-1.58l1.59,1.61l-3.13,3.16l-3.92-3.96v1.6l3.13,3.16l-3.13,3.16v1.6l3.13,3.16l-3.13,3.16v1.6l3.13,3.16l-3.13,3.16
					v1.6l3.13,3.16l-3.13,3.16v1.6l3.13,3.16l-3.13,3.16v1.6l3.13,3.16l-3.13,3.16v1.6l3.13,3.16l-3.13,3.16v1.6l0.04,0.04h0.93
					l0.33-0.33l-0.5-0.51l3.13-3.16l3.13,3.16l-0.5,0.51l0.33,0.33h0.93l0.04-0.04l0.04,0.04h0.93l0.33-0.33l-0.5-0.51l3.13-3.16
					l3.13,3.16l-0.5,0.51l0.33,0.33h0.93l0.04-0.04l0.04,0.04h0.93l0.33-0.33l-0.5-0.51l3.13-3.16l3.13,3.16l-0.5,0.51l0.33,0.33
					h0.93l0.04-0.04l0.04,0.04h0.93l0.33-0.33l-0.5-0.51l3.13-3.16l3.13,3.16l-0.5,0.51l0.33,0.33h0.93l0.04-0.04l0.04,0.04h0.93
					l0.33-0.33l-0.5-0.51l3.13-3.16l3.13,3.16l-0.5,0.51l0.33,0.33h0.93l0.04-0.04l0.04,0.04h0.93l0.33-0.33l-0.5-0.51l3.13-3.16
					v-1.6L355.82,334.82z M358.15,330.86l-3.13,3.16l-3.13-3.16l3.13-3.16L358.15,330.86z M344.05,307.11l3.13-3.16l3.13,3.16
					l-3.13,3.16L344.05,307.11z M350.31,315.03l-3.13,3.16l-3.13-3.16l3.13-3.16L350.31,315.03z M346.39,311.07l-3.13,3.16
					l-3.13-3.16l3.13-3.16L346.39,311.07z M342.47,315.03l-3.13,3.16l-3.13-3.16l3.13-3.16L342.47,315.03z M339.34,310.27
					l-3.13-3.16l3.13-3.16l3.13,3.16L339.34,310.27z M338.55,311.07l-3.13,3.16l-3.13-3.16l3.13-3.16L338.55,311.07z M334.63,315.03
					l-3.13,3.16l-3.13-3.16l3.13-3.16L334.63,315.03z M331.5,310.27l-3.13-3.16l3.13-3.16l3.13,3.16L331.5,310.27z M330.71,311.07
					l-3.13,3.16l-3.13-3.16l3.13-3.16L330.71,311.07z M330.71,318.99l-3.13,3.16l-3.13-3.16l3.13-3.16L330.71,318.99z M331.5,319.78
					l3.13,3.16l-3.13,3.16l-3.13-3.16L331.5,319.78z M332.29,318.99l3.13-3.16l3.13,3.16l-3.13,3.16L332.29,318.99z M339.34,319.78
					l3.13,3.16l-3.13,3.16l-3.13-3.16L339.34,319.78z M340.13,318.99l3.13-3.16l3.13,3.16l-3.13,3.16L340.13,318.99z M347.18,319.78
					l3.13,3.16l-3.13,3.16l-3.13-3.16L347.18,319.78z M347.97,318.99l3.13-3.16l3.13,3.16l-3.13,3.16L347.97,318.99z M351.1,314.23
					l-3.13-3.16l3.13-3.16l3.13,3.16L351.1,314.23z M347.97,303.16l3.13-3.16l3.13,3.16l-3.13,3.16L347.97,303.16z M347.18,302.36
					l-3.13-3.16l3.13-3.16l3.13,3.16L347.18,302.36z M346.39,303.16l-3.13,3.16l-3.13-3.16l3.13-3.16L346.39,303.16z M339.34,302.36
					l-3.13-3.16l3.13-3.16l3.13,3.16L339.34,302.36z M338.55,303.16l-3.13,3.16l-3.13-3.16l3.13-3.16L338.55,303.16z M331.5,302.36
					l-3.13-3.16l3.13-3.16l3.13,3.16L331.5,302.36z M330.71,303.16l-3.13,3.16l-3.13-3.16l3.13-3.16L330.71,303.16z M323.66,302.36
					l-3.13-3.16l3.13-3.16l3.13,3.16L323.66,302.36z M326.79,307.11l-3.13,3.16l-3.13-3.16l3.13-3.16L326.79,307.11z M326.79,315.03
					l-3.13,3.16l-3.13-3.16l3.13-3.16L326.79,315.03z M326.79,322.94l-3.13,3.16l-3.13-3.16l3.13-3.16L326.79,322.94z
					 M326.79,330.86l-3.13,3.16l-3.13-3.16l3.13-3.16L326.79,330.86z M324.45,326.9l3.13-3.16l3.13,3.16l-3.13,3.16L324.45,326.9z
					 M331.5,327.7l3.13,3.16l-3.13,3.16l-3.13-3.16L331.5,327.7z M332.29,326.9l3.13-3.16l3.13,3.16l-3.13,3.16L332.29,326.9z
					 M339.34,327.7l3.13,3.16l-3.13,3.16l-3.13-3.16L339.34,327.7z M340.13,326.9l3.13-3.16l3.13,3.16l-3.13,3.16L340.13,326.9z
					 M347.18,327.7l3.13,3.16l-3.13,3.16l-3.13-3.16L347.18,327.7z M347.97,326.9l3.13-3.16l3.13,3.16l-3.13,3.16L347.97,326.9z
					 M358.15,322.94l-3.13,3.16l-3.13-3.16l3.13-3.16L358.15,322.94z M358.15,315.03l-3.13,3.16l-3.13-3.16l3.13-3.16L358.15,315.03
					z M358.15,307.11l-3.13,3.16l-3.13-3.16l3.13-3.16L358.15,307.11z M358.15,299.2l-3.13,3.16l-3.13-3.16l3.13-3.16L358.15,299.2z
					 M355.02,288.13l3.13,3.16l-3.13,3.16l-3.13-3.16L355.02,288.13z M351.1,292.08l3.13,3.16l-3.13,3.16l-3.13-3.16L351.1,292.08z
					 M347.18,288.13l3.13,3.16l-3.13,3.16l-3.13-3.16L347.18,288.13z M346.39,295.24l-3.13,3.16l-3.13-3.16l3.13-3.16L346.39,295.24
					z M339.34,288.13l3.13,3.16l-3.13,3.16l-3.13-3.16L339.34,288.13z M338.55,295.24l-3.13,3.16l-3.13-3.16l3.13-3.16
					L338.55,295.24z M331.5,288.13l3.13,3.16l-3.13,3.16l-3.13-3.16L331.5,288.13z M330.71,295.24l-3.13,3.16l-3.13-3.16l3.13-3.16
					L330.71,295.24z M323.66,288.13l3.13,3.16l-3.13,3.16l-3.13-3.16L323.66,288.13z M316.61,295.24l3.13-3.16l3.13,3.16l-3.13,3.16
					L316.61,295.24z M316.61,303.16l3.13-3.16l3.13,3.16l-3.13,3.16L316.61,303.16z M316.61,311.07l3.13-3.16l3.13,3.16l-3.13,3.16
					L316.61,311.07z M316.61,318.99l3.13-3.16l3.13,3.16l-3.13,3.16L316.61,318.99z M316.61,326.9l3.13-3.16l3.13,3.16l-3.13,3.16
					L316.61,326.9z M316.61,334.82l3.13-3.16l3.13,3.16l-3.13,3.16L316.61,334.82z M323.66,341.93l-3.13-3.16l3.13-3.16l3.13,3.16
					L323.66,341.93z M324.45,334.82l3.13-3.16l3.13,3.16l-3.13,3.16L324.45,334.82z M331.5,341.93l-3.13-3.16l3.13-3.16l3.13,3.16
					L331.5,341.93z M332.29,334.82l3.13-3.16l3.13,3.16l-3.13,3.16L332.29,334.82z M339.34,341.93l-3.13-3.16l3.13-3.16l3.13,3.16
					L339.34,341.93z M340.13,334.82l3.13-3.16l3.13,3.16l-3.13,3.16L340.13,334.82z M347.18,341.93l-3.13-3.16l3.13-3.16l3.13,3.16
					L347.18,341.93z M347.97,334.82l3.13-3.16l3.13,3.16l-3.13,3.16L347.97,334.82z M355.02,341.93l-3.13-3.16l3.13-3.16l3.13,3.16
					L355.02,341.93z"/>
			</g>
			<g>
				<path class="st37" d="M359.67,297.15h-44.58c-1.07,0-1.93-0.87-1.93-1.95l0,0c0-1.08,0.86-1.95,1.93-1.95h44.58
					c1.07,0,1.93,0.87,1.93,1.95l0,0C361.6,296.28,360.74,297.15,359.67,297.15z"/>
				<path class="st37" d="M354.94,345.69h-35.13c-1.07,0-1.93-0.87-1.93-1.95l0,0c0-1.08,0.86-1.95,1.93-1.95h35.13
					c1.07,0,1.93,0.87,1.93,1.95l0,0C356.87,344.82,356.01,345.69,354.94,345.69z"/>
			</g>
		</g>
	</g>
	<g>
		<g>
			<g>
				<g>
					<path class="st41" d="M542.64,327.04h-5.21c-4.05,0-7.75-2.27-9.57-5.87l0,0h-9.18l2.97,15.1h30.25
						C551.91,331.17,547.76,327.04,542.64,327.04z"/>
					<rect x="521.66" y="336.27" class="st30" width="30.25" height="1.64"/>
				</g>
				<g>
					<path class="st32" d="M502.53,281.56h-27.52c-8.51,0-15.4-6.9-15.4-15.4v0c0-8.51,6.9-15.4,15.4-15.4h27.52
						c8.51,0,15.4,6.9,15.4,15.4v0C517.93,274.66,511.04,281.56,502.53,281.56z"/>
					<path class="st28" d="M517.17,261.1c-2.32-6.35-9.37-9.62-15.74-7.31l0,0c-6.37,2.31-9.65,9.33-7.33,15.68l22.92,61.63
						l19.43-7.05L517.17,261.1z"/>
				</g>
			</g>
			<g>
				<polygon class="st21" points="490.14,187.99 475.62,191.51 470.2,169.35 484.72,165.82 				"/>
				<g>
					<path class="st21" d="M485.31,178.89l-2.99,0.73c-7.72,1.88-15.51-2.84-17.39-10.54l-2.72-11.13
						c-1.88-7.7,2.85-15.45,10.58-17.33l2.99-0.73c7.72-1.88,15.51,2.84,17.39,10.54l2.72,11.13
						C497.77,169.25,493.04,177.01,485.31,178.89z"/>
					<g>
						<path class="st28" d="M492.84,131.1c-2.57-1.98-6.95,2.26-12.2,4.52c-5.26,2.26-16.9-0.47-20.44,5.73
							c-1.19,2.08,0.23,4.97,0.23,4.97s-5.36,2.63-5.37,4.87c-0.01,3.39,1.77,8.78,3.54,11.39c2.94,4.34,14.59,11.18,20.25,11.18
							c9.04,0,1.21-19.71,3.39-24.19c1.57-3.21,4.32-3.71,7.15-5.17c2.19-1.13,4.49-3.19,5.14-6.3
							C495.32,134.34,494.38,132.28,492.84,131.1z"/>
						<path class="st28" d="M457.43,160.44l6.46,14.77c1.13,2.27,3.52,3.62,6.05,3.44l9.46-1.21c3.53-0.26,6-3.58,5.24-7.02
							l-2.49-11.11L457.43,160.44z"/>
					</g>
					<path class="st21" d="M484.33,160.88c0.92,2.76-0.24,5.63-2.59,6.41c-2.35,0.77-5-0.84-5.92-3.6
						c-0.92-2.76,0.24-5.63,2.59-6.41C480.76,156.5,483.41,158.11,484.33,160.88z"/>
				</g>
			</g>
			<g>
				<path class="st21" d="M561.6,208.64c-4.9,0-8.87,3.96-8.87,8.84h17.74C570.47,212.6,566.5,208.64,561.6,208.64z"/>
				<rect x="552.73" y="217.48" class="st29" width="19.35" height="2.22"/>
			</g>
			<g>
				<g>
					<path class="st29" d="M579.42,327.04h-5.21c-4.05,0-7.75-2.27-9.57-5.87l0,0h-9.18l2.97,15.1h30.25
						C588.69,331.17,584.54,327.04,579.42,327.04z"/>
					<rect x="558.44" y="336.27" class="st30" width="30.25" height="1.64"/>
				</g>
				<g>
					<path class="st32" d="M539.31,281.56h-42.47c-8.51,0-15.4-6.9-15.4-15.4v0c0-8.51,6.9-15.4,15.4-15.4h42.47
						c8.51,0,15.4,6.9,15.4,15.4v0C554.71,274.66,547.82,281.56,539.31,281.56z"/>
					<path class="st32" d="M553.95,261.1c-2.32-6.35-9.37-9.62-15.74-7.31l0,0c-6.37,2.31-9.65,9.33-7.33,15.68l22.92,61.63
						l19.43-7.05L553.95,261.1z"/>
				</g>
			</g>
			<g>
				<path class="st34" d="M501.33,266.74l-3.84,0.68c-18.36,3.27-35.98-8.65-39.7-26.86l-10.63-52l38.3-4.75
					c7.5-0.93,14.47,4,16.07,11.36l16,47.81c1.11,3.18,0.51,6.71-1.59,9.35l-8.6,10.83C505.84,265.05,503.71,266.32,501.33,266.74z"
					/>
				<g>
					<path class="st34" d="M557.35,214.1L557.35,214.1c0.36,4.74-3.41,8.89-8.43,9.27l-27.34,2.13c-5.02,0.38-9.37-3.16-9.73-7.9v0
						c-0.36-4.74,3.41-8.89,8.43-9.27l27.34-2.13C552.63,205.83,556.99,209.36,557.35,214.1z"/>
					<path class="st34" d="M526.2,223.27L526.2,223.27c-3.47,3.27-9.08,2.96-12.54-0.68l-24.02-25.22
						c-3.46-3.64-3.45-9.24,0.02-12.51l0,0c3.47-3.27,9.08-2.96,12.54,0.68l24.02,25.22C529.68,214.4,529.67,220,526.2,223.27z"/>
				</g>
			</g>
			<g>
				<path class="st34" d="M489.52,173.9c-0.36,0-0.71-0.17-0.93-0.48l-7.76-9.15c-0.35-0.51-0.22-1.2,0.28-1.55
					c0.51-0.35,1.21-0.22,1.56,0.28l7.14,8.25l8.37-5.45c0.52-0.34,1.21-0.19,1.55,0.32c0.34,0.52,0.19,1.21-0.32,1.55l-9.29,6.04
					C489.94,173.84,489.73,173.9,489.52,173.9z"/>
				<g>
					<path class="st35" d="M458.8,142.5l-0.4,3.13c-0.11,0.83,0.55,1.57,1.39,1.56c3.81-0.07,13.66,0.77,14.7,10.53l5.88-2.67
						c-0.19-13.2-15.83-13.85-20.23-13.76C459.45,141.3,458.88,141.82,458.8,142.5z"/>
					<path class="st34" d="M459.52,145.94c-0.44,0.01-0.83-0.17-1.11-0.46l-0.02,0.15c-0.11,0.83,0.55,1.57,1.39,1.56
						c3.81-0.07,13.67,0.77,14.7,10.53l1.12-0.51C474.31,146.77,463.66,145.86,459.52,145.94z"/>
					<path class="st36" d="M486.13,159.93c1.23,3.7-0.69,7.66-4.29,8.85c-3.6,1.19-7.51-0.85-8.74-4.55
						c-1.23-3.7,0.69-7.66,4.29-8.85C480.99,154.19,484.9,156.23,486.13,159.93z"/>
					<path class="st34" d="M479.74,166.88c-2.03,0-3.85-1.35-4.51-3.36c-0.84-2.52,0.45-5.23,2.87-6.02
						c0.45-0.15,0.92-0.22,1.39-0.22c2.03,0,3.85,1.35,4.51,3.36c0.41,1.23,0.33,2.55-0.23,3.69c-0.54,1.12-1.48,1.95-2.64,2.33
						C480.69,166.81,480.22,166.88,479.74,166.88z"/>
				</g>
			</g>
		</g>
		<g>
			<g>
				<path class="st38" d="M489.35,265.46l-0.75-5.18l0,0l-14.37-99.53h-35.01c-5.45,0-9.64,4.81-8.86,10.19l13.65,94.52
					c1.33,9.24,9.28,16.1,18.65,16.1H508C498.63,281.56,490.68,274.7,489.35,265.46z"/>
				<path class="st37" d="M501.46,241.2c-15.89-15.11-18.11-54.07-18.28-71.63c-0.05-4.89-4.05-8.82-8.95-8.82l0,0l14.37,99.53
					l0.75,5.18c1.33,9.24,9.28,16.1,18.65,16.1h9.02C517.01,281.56,522.26,260.98,501.46,241.2z"/>
				<path class="st36" d="M508,281.56h35.99c3.74,0,6.77-3.02,6.77-6.75v-3.45c0-4.3-7.78-14.36-21.38-15.33
					c-13.59-0.97-29.15,5.31-31.62,11.7C495.29,274.13,508,281.56,508,281.56z"/>
			</g>
			<g>
				<rect x="461.23" y="281.56" class="st35" width="77" height="5"/>
				<g>
					<g>
						<g>
							<ellipse class="st35" cx="472.3" cy="331.46" rx="6.47" ry="6.45"/>
							<ellipse class="st37" cx="472.3" cy="331.46" rx="3.43" ry="3.42"/>
						</g>
						<g>
							<ellipse class="st35" cx="527.17" cy="331.46" rx="6.47" ry="6.45"/>
							<ellipse class="st37" cx="527.17" cy="331.46" rx="3.43" ry="3.42"/>
						</g>
					</g>
					<g>
						<path class="st37" d="M503.23,334.75h-7c-0.84,0-1.52-0.68-1.52-1.52v-2.72c0-0.84,0.68-1.52,1.52-1.52h7
							c0.84,0,1.52,0.68,1.52,1.52v2.72C504.76,334.07,504.07,334.75,503.23,334.75z"/>
						<path class="st35" d="M501.07,337.91h-2.66c-1.39,0-2.52-1.13-2.52-2.52v-7.85c0-1.39,1.13-2.52,2.52-2.52h2.66
							c1.39,0,2.52,1.13,2.52,2.52v7.85C503.59,336.78,502.46,337.91,501.07,337.91z"/>
					</g>
					<path class="st36" d="M499.73,333.57L499.73,333.57c-1.18,0-2.13-0.95-2.13-2.12v-44.89h4.26v44.89
						C501.86,332.62,500.91,333.57,499.73,333.57z"/>
					<rect x="496.96" y="305.44" class="st38" width="5.55" height="6.22"/>
					<path class="st36" d="M528.51,329.34l-13.67-13.61c-0.47-0.46-1.1-0.72-1.76-0.72h-13.35h-13.35c-0.66,0-1.29,0.26-1.76,0.72
						l-13.67,13.61c-0.97,0.97-0.97,2.53,0,3.5c0.48,0.48,1.12,0.72,1.76,0.72c0.64,0,1.27-0.24,1.76-0.72l12.94-12.89h12.32h12.32
						l12.94,12.89c0.48,0.48,1.12,0.72,1.76,0.72c0.64,0,1.27-0.24,1.76-0.72C529.48,331.88,529.48,330.31,528.51,329.34z"/>
					<rect x="494.36" y="311.66" class="st35" width="10.75" height="3.35"/>
					<rect x="497.61" y="319.95" class="st37" width="4.26" height="2.56"/>
				</g>
			</g>
		</g>
	</g>
</g>
</svg>
